<mxfile host="Electron" modified="2024-11-05T08:02:13.471Z" agent="Mozilla/5.0 (Windows NT 10.0; Win64; x64) AppleWebKit/537.36 (KHTML, like Gecko) draw.io/24.6.4 Chrome/124.0.6367.207 Electron/30.0.6 Safari/537.36" etag="6rbux7FMTl0A2S145oUJ" version="24.6.4" type="device">
  <diagram name="PÃ¡gina-1" id="sy9p5VX0q3dtOBgsLAct">
    <mxGraphModel dx="2694" dy="887" grid="1" gridSize="10" guides="1" tooltips="1" connect="1" arrows="1" fold="1" page="1" pageScale="1" pageWidth="827" pageHeight="1169" math="0" shadow="0">
      <root>
        <mxCell id="0" />
        <mxCell id="1" parent="0" />
        <mxCell id="7F3EquHxu8-Q1DY4XxR6-55" style="edgeStyle=orthogonalEdgeStyle;rounded=0;orthogonalLoop=1;jettySize=auto;html=1;entryX=0.5;entryY=1;entryDx=0;entryDy=0;" parent="1" target="7F3EquHxu8-Q1DY4XxR6-57" edge="1">
          <mxGeometry relative="1" as="geometry">
            <mxPoint x="-20" y="579" as="targetPoint" />
            <Array as="points">
              <mxPoint x="-10" y="620" />
            </Array>
            <mxPoint x="-215" y="620" as="sourcePoint" />
          </mxGeometry>
        </mxCell>
        <mxCell id="7F3EquHxu8-Q1DY4XxR6-73" value="&lt;font style=&quot;font-size: 18px;&quot;&gt;&lt;b&gt;RUC&lt;/b&gt;&lt;/font&gt;" style="edgeLabel;html=1;align=center;verticalAlign=middle;resizable=0;points=[];" parent="7F3EquHxu8-Q1DY4XxR6-55" vertex="1" connectable="0">
          <mxGeometry x="-0.0578" y="2" relative="1" as="geometry">
            <mxPoint x="-10" as="offset" />
          </mxGeometry>
        </mxCell>
        <mxCell id="7F3EquHxu8-Q1DY4XxR6-71" style="edgeStyle=orthogonalEdgeStyle;rounded=0;orthogonalLoop=1;jettySize=auto;html=1;exitX=1;exitY=0.75;exitDx=0;exitDy=0;entryX=0.5;entryY=0;entryDx=0;entryDy=0;" parent="1" target="7F3EquHxu8-Q1DY4XxR6-60" edge="1">
          <mxGeometry relative="1" as="geometry">
            <mxPoint x="-215" y="667.5" as="sourcePoint" />
          </mxGeometry>
        </mxCell>
        <mxCell id="7F3EquHxu8-Q1DY4XxR6-74" value="&lt;font style=&quot;font-size: 18px;&quot;&gt;&lt;b&gt;DNI&lt;/b&gt;&lt;/font&gt;" style="edgeLabel;html=1;align=center;verticalAlign=middle;resizable=0;points=[];" parent="7F3EquHxu8-Q1DY4XxR6-71" vertex="1" connectable="0">
          <mxGeometry x="-0.2252" y="1" relative="1" as="geometry">
            <mxPoint x="7" as="offset" />
          </mxGeometry>
        </mxCell>
        <mxCell id="7F3EquHxu8-Q1DY4XxR6-32" value="" style="shape=image;verticalLabelPosition=bottom;labelBackgroundColor=default;verticalAlign=top;aspect=fixed;imageAspect=0;image=data:image/png,iVBORw0KGgoAAAANSUhEUgAAAgAAAAIACAYAAAD0eNT6AAAAAXNSR0IArs4c6QAAIABJREFUeAHt3W2ObUeRNtD802YuGHqmGIMN9FzaoJ6DYSBgfhq9r7LlI0tXSjrvjsjMyFOrpFbJu/Mjcj2xz65bH4fWfBAgQIAAAQIECBAgQIAAAQIECBAgQIAAAQIECBAgQIAAAQIECBAgQIAAAQIECBAgQIAAAQIECBAgQIAAAQIECBAgQIAAAQIECBAgQIAAAQIECBAgQIAAAQIECBAgQIAAAQIECBAgQIAAAQIECBAgQIAAAQIECBAgQIAAAQIECBAgQIAAAQIECBAgQIAAAQIECBAgQIAAAQIECBAgQIAAAQIECBAgQIAAAQIECBAgQIAAAQIECBAgQIAAAQIECBAgQIAAAQIECBAgQIAAAQIECBAgQIAAAQIECBAgQIAAAQIECBAgQIAAAQIECBAgQIAAAQIECBAgQIAAAQIECBAgQIAAAQIECBAgQIAAAQIECBAgQIAAAQIECBAgQIAAAQIECBAgQIAAAQIECBAgQIAAAQIECBAgQIAAAQIECBAgQIAAAQIECBAgQIAAAQIECBAgQIAAAQIECBAgQIAAAQIECBAgQIAAAQIECBAgQIAAAQIECBAgQIAAAQIECBAgQIAAAQIECBAgQIAAAQIECBAgQIAAAQIECBAgQIAAAQIECBAgQIAAAQIECBAgQIAAAQIECBAgQIAAAQIECBAgQIAAAQIECBAgQIAAAQIECBAgQIAAAQIECBAgQIAAAQIECBAgQIAAAQIECBAgQIAAAQIECBAgQIAAAQIECBAgQIAAAQIECBAgQIAAAQIECBAgQIAAAQIECBAgQIAAAQIECBAgQIAAAQIECBAgQIAAAQIECBAgQIAAAQIECBAgQIAAAQIECBAgQIAAAQIECBAgQIAAAQIECBAgQIAAAQIECBAgQIAAAQIECBAgQIAAAQIECBAgQIAAAQIECBAgQIAAAQIECBAgQIAAAQIECBAgQIAAAQIECBAgQIAAAQIECBAgQIAAAQIECBAgQIAAAQIECBAgQIAAAQIECBAgQIAAAQIECBAgQIAAAQIECBAgQIAAAQIECBAgQIAAAQIECBAgQIAAAQIECBAgQIAAAQIECBAgQIAAAQIECBAgQIAAAQIECBAgQIAAAQIECBAgQIAAAQIECBAgQIAAAQIECBAgQIAAAQIECBAgQIAAAQIECBAgQIAAAQIECBAgQIAAAQIECBAgQIAAAQIECBAgQIAAAQIECBAgQIAAAQIECBAgQIAAAQIECBAgQIAAAQIECBAgQIAAAQIECBAgQIAAAQIECBAgQIAAAQIECBAgQIAAAQIECBAgQIAAAQIECBAgQIAAAQIECBD4GAK/aq193Vr7a2vtn621/+f/GOgBPaAHPmQP9GdAfxb0Z0J/Nvh4U4EvWmt/aK39y43+IW90X+j5YlcP6IF/1wM/tta+ba31Z4WPNxLogf7Zg9+DXw/oAT2gB/6PHvjOFwFv9PT/6V/+/+4rP/8//zLQA3pAD+iBVw98816PwI97mv5znf6tnVewPrPQA3pAD+iBf9cD/Znx5cd9bL7PyX/n4e+LHz2gB/SAHvjMHvjqfR6DH/ckf/vM0P/dV4X+f/7VoAf0gB74GD3w/cd9bL7PyX/wBYCv/PWAHtADeuAze+Af7/MY/Lgn8dX6x/hqXc5y1gN6ILsHPu6T801Ont0Q1vMiowf0gB74GD3wJo/Bj3sMN+rHuFHlLGc9oAeye+DjPjnf5OTZDWE9LzJ6QA/ogY/RA2/yGPy4x3CjfowbVc5y1gN6ILsHPu6T801Ont0Q1vMiowf0gB74GD3wJo/Bj3sMN+rHuFHlLGc9oAeye+DjPjnf5OTZDWE9LzJ6QA/ogY/RA2/yGPy4x4jeqB9X7j1OLv/3yPHpKeT/VO495sn/PXJ8fAoN8JjuLSbK/y1ifHwI+T+me4uJ8n+LGJ8fQgM8t3uHmfJ/hxSfn0H+z+3eYab83yHFwBk0QADvDabK/w1CDBxB/gG8N5gq/zcIMXIEDRDRu3+u/O/PMHIC+Uf07p8r//szDJ1AA4T4rp8s/+sjDB1A/iG+6yfL//oIYwfQADG/22fL//YEY/XLP+Z3+2z5355gsH4NEAS8fLr8Lw8wWL78g4CXT5f/5QFGy9cAUcG758v/7vyi1cs/Knj3fPnfnV+4eg0QJrx6AflfHV+4ePmHCa9eQP5XxxcvXgPEDW9eQf43pxevXf5xw5tXkP/N6SXUrgESEC9eQv4Xh5dQuvwTEC9eQv4Xh5dRugbIULx3Dfnfm11G5fLPULx3Dfnfm11K5RoghfHaReR/bXQphcs/hfHaReR/bXQ5hWuAHMdbV5H/rcnl1C3/HMdbV5H/rckl1a0BkiAvXUb+lwaXVLb8kyAvXUb+lwaXVbYGyJK8cx3535lbVtXyz5K8cx3535lbWtUaII3yyoXkf2VsaUXLP43yyoXkf2VseUVrgDzLG1eS/42p5dUs/zzLG1eS/42pJdasARIxL1xK/heGlliy/BMxL1xK/heGllmyBsjUvG8t+d+XWWbF8s/UvG8t+d+XWWrFGiCV87rF5H9dZKkFyz+V87rF5H9dZLkFa4Bcz9tWk/9tieXWK/9cz9tWk/9tiSXXqwGSQS9bTv6XBZZcrvyTQS9bTv6XBZZdrgbIFr1rPfnflVd2tfLPFr1rPfnflVd6tRognfSqBeV/VVzpxco/nfSqBeV/VVz5xWqAfNObVpT/TWnl1yr/fNObVpT/TWktqFUDLEC9aEn5XxTWglLlvwD1oiXlf1FYK0rVACtU71lT/vdktaJS+a9QvWdN+d+T1ZJKNcAS1msWlf81US0pVP5LWK9ZVP7XRLWmUA2wxvWWVeV/S1Jr6pT/GtdbVpX/LUktqlMDLIK9ZFn5XxLUojLlvwj2kmXlf0lQq8qMNoD5rTFgoAf0wEfsgVXPJetuEviITevMXqz1gB7QA/Ee2PSYss0qATdB/CZgyFAP6IGP2AOrnkvW3STwEZvWmb1Y6wE9oAfiPbDpMWWbVQJugvhNwJChHtADH7EHVj2XrLtJ4CM2rTN7sdYDekAPxHtg02PKNqsE3ATxm4AhQz2gBz5iD6x6Lll3k8BHbFpn9mKtB/SAHoj3wKbHlG1WCbgJ4jcBQ4Z6QA98xB5Y9Vyy7iaBj9i0zuzFWg/oAT0Q74FNjynbrBJwE8RvAoYM9YAe+Ig9sOq5ZN1NAh+xaZ3Zi7Ue0AN6IN4Dmx5Ttlkl4CaI3wQMGeoBPfARe2DVc8m6mwQ+YtM6sxdrPaAH9EC8BzY9pmyzSsBNEL8JGDLUA3rgI/bAqueSdTcJfMSmdWYv1npAD+iBeA9sekzZZpVA9CZYVZd19wjIf49z1V3kXzWZPXXJf49z2V00QNlothQm/y3MZTeRf9lothQm/y3MdTfRAHWz2VGZ/Hco191D/nWz2VGZ/HcoF95DAxQOZ0Np8t+AXHgL+RcOZ0Np8t+AXHkLDVA5nfW1yX+9ceUd5F85nfW1yX+9cekdNEDpeJYXJ//lxKU3kH/peJYXJ//lxLU30AC181ldnfxXC9deX/6181ldnfxXCxdfXwMUD2hxefJfDFx8efkXD2hxefJfDFx9eQ1QPaG19cl/rW/11eVfPaG19cl/rW/51TVA+YiWFij/pbzlF5d/+YiWFij/pbz1F9cA9TNaWaH8V+rWX1v+9TNaWaH8V+pesLYGuCCkhSXKfyHuBUvL/4KQFpYo/4W4NyytAW5IaV2N8l9ne8PK8r8hpXU1yn+d7RUra4ArYlpWpPyX0V6xsPyviGlZkfJfRnvHwhrgjpxWVSn/VbJ3rCv/O3JaVaX8V8lesq4GuCSoRWXKfxHsJcvK/5KgFpUp/0WwtyyrAW5Jak2d8l/jesuq8r8lqTV1yn+N6zWraoBrolpSqPyXsF6zqPyviWpJofJfwnrPohrgnqxWVCr/Far3rCn/e7JaUan8V6hetKYGuCisBaXKfwHqRUvK/6KwFpQq/wWoNy2pAW5KK79W+eeb3rSi/G9KK79W+eebXrWiBrgqrvRi5Z9OetWC8r8qrvRi5Z9OeteCGuCuvLKrlX+26F3ryf+uvLKrlX+26GXraYDLAksuV/7JoJctJ//LAksuV/7JoLctpwFuSyy3Xvnnet62mvxvSyy3Xvnnel63mga4LrLUguWfynndYvK/LrLUguWfynnfYhrgvswyK5Z/puZ9a8n/vswyK5Z/puaFa2mAC0NLLFn+iZgXLiX/C0NLLFn+iZg3LqUBbkwtr2b551neuJL8b0wtr2b551leuZIGuDK2tKLln0Z55ULyvzK2tKLln0Z550Ia4M7csqqWf5bknevI/87csqqWf5bkpetogEuDSypb/kmQly4j/0uDSypb/kmQty7zbg3wq9ba1621v7bW/tlai54vOr/X0GvpNfXaqn1Ez1ftPPL/vETeLf9ft9Z+11r7m/t/qhHeLf+pQxv0s8C7NMAXrbU/tNb+VeChPzL9sbX2TWut11rlY1Tr7PUq57gl/2/lv6RlftFa++MF97/8l8Rv0acCsy/0o3FP982c11/8/1z4wf+p3XeFHgKf1va5/52Z49O15P9ULv4dsuc7583sD/+/uP8fgX7u/f7p+EebmlRH4NNAP/e/K5yk/8v/c+s+Pf73FeAS3Coc48b8+3eCKnxE74MKZ/hTQh9HHT53vvwrdI4awg/O04T9Z779W+ufewOeHt9r/vI0XoLb6SPIP5ZA9D6I7R6f3X/mX/nHfiNf9388eyskCIwadPZ6QgmhJfov/MzWWm3cV6GT50yOmuRU8XwV+T+36zPlHzd4auj+j/Wu2QkCT5v3NS+hhNAS/bd9X7Xc9vn70MlzJkfNcqp4vor8n9v1mfKPGzw1dP/HetfsBIGnzfual1BCaIkfEl7EXmfZ/fkfoZPnTI6eOaeK56vI/7ldnyn/uMFTQ/d/rHfNThB42ryveQklhJboN9Grlts+/z108pzJUbOcKp6vIv/ndn2m/OMGTw3d/7HeNTtB4GnzvuYllBBawreAQ3zXPwDkL//Xa9Ftn/0IINa7ZicIRG+ahBJCS/R32Iue4dT834ROnjM5evacKp6vIv/ndn2m/OMGTw3d/7HeNTtB4GnzvuYllBBa4uY/A/tl6OQ5k185Pv2cU8XzVeT/3K7PfJr7a15s9/hs+ccMXzk+/Rzb3ezjAk+Df807foCf3l73Vc8tn/ufr1X4iHpVOEN/U5XoOXbP90ZQeZ1z4xtByT8vfysFBKIvfIGt06b2t4Ltb68bPcuu+f/dWvuPtNPHFoqeObZ7zuwb8+81V/h4l/xveivwfv/Lv0L3qyH80KxC2G+o/lV15XcF7LX1f/lXefj37N7hAdDPcVP+VV783y3//j+0c8P9L/8qTw11vM0D4BVlf3vd/g5b/TdsK/yNeK+h19J/4afCz/xfTq/P7/IFwOs8VfPvPVnhrZ9fTq/P75Z//52A3/70P8Fd6f6X/6vjfC4l8G4vAKVwLyhG/heEtLBE+S/EvWBp+V8Q0soSNcBK3fpry79+RisrlP9K3fpry79+Rksr1ABLecsvLv/yES0tUP5LecsvLv/yEa0tUAOs9a2+uvyrJ7S2Pvmv9a2+uvyrJ7S4Pg2wGLj48vIvHtDi8uS/GLj48vIvHtDq8jTAauHa68u/dj6rq5P/auHa68u/dj7Lq9MAy4lLbyD/0vEsL07+y4lLbyD/0vGsL04DrDeuvIP8K6ezvjb5rzeuvIP8K6ezoTYNsAG58BbyLxzOhtLkvwG58BbyLxzOjtI0wA7lunvIv242OyqT/w7lunvIv242WyrTAFuYy24i/7LRbClM/luYy24i/7LR7ClMA+xxrrqL/Ksms6cu+e9xrrqL/Ksms6kuDbAJuug28i8azKay5L8Juug28i8azK6yNMAu6Zr7yL9mLruqkv8u6Zr7yL9mLtuq0gDbqEtuJP+SsWwrSv7bqEtuJP+SsewrSgPss664k/wrprKvJvnvs664k/wrprKxJg2wEbvgVvIvGMrGkuS/EbvgVvIvGMrOkjTATu16e8m/XiY7K5L/Tu16e8m/XiZbK9IAW7nLbSb/cpFsLUj+W7nLbSb/cpHsLUgD7PWutpv8qyWytx757/Wutpv8qyWyuR4NsBm82HbyLxbI5nLkvxm82HbyLxbI7nI0wG7xWvvJv1Yeu6uR/27xWvvJv1Ye26vRANvJS20o/1JxbC9G/tvJS20o/1Jx7C9GA+w3r7Sj/Culsb8W+e83r7Sj/CulcaAWDXAAvdCW8i8UxoFS5H8AvdCW8i8UxolSNMAJ9Tp7yr9OFicqkf8J9Tp7yr9OFkcq0QBH2MtsKv8yURwpRP5H2MtsKv8yUZwpRAOcca+yq/yrJHGmDvmfca+yq/yrJHGoDg1wCL7ItvIvEsShMuR/CL7ItvIvEsSpMjTAKfka+8q/Rg6nqpD/Kfka+8q/Rg7HqtAAx+hLbCz/EjEcK0L+x+hLbCz/EjGcK0IDnLOvsLP8K6Rwrgb5n7OvsLP8K6RwsIZ3a4Bftda+bq39tbX2z9Za9HzR+b2GXkuvqddW7SN6vmrnkf/nJfJu+f+6tfa71trf3P9TjfBu+U8d2qCfBd6lAb5orf2htfavAg/9kemPrbVvWmu91iofo1pnr1c5xy35fyv/JS3zi9baHy+4/+W/JH6LPhWYfaEfjXu6b+a8/uL/58IP/k/tviv0EPi0ts/978wcn64l/6dy8e+QPd85b2Z/+P/F/f8I9HPv90/HP9rUpDoCnwb6uf9d4ST9X/6fW/fp8b+vAJfgVuEYN+bfvxNU4SN6H1Q4w58S+jjq8Lnz5V+hc9QQfnCeJuw/8+3fWv/cG/D0+F7zl6fxEtxOH0H+sQSi90Fs9/js/jP/yj/2G/m6/+PZWyFBYNSgs9cTSggt0X/hZ7bWauO+Cp08Z3LUJKeK56vI/7ldnyn/uMFTQ/d/rHfNThB42ryveQklhJbov+37quW2z9+HTp4zOWqWU8XzVeT/3K7PlH/c4Kmh+z/Wu2YnCDxt3te8hBJCS/yQ8CL2Osvuz/8InTxncvTMOVU8X0X+z+36TPnHDZ4auv9jvWt2gsDT5n3NSyghtES/iV613Pb576GT50yOmuVU8XwV+T+36zPlHzd4auj+j/Wu2QkCT5v3NS+hhNASvgUc4rv+ASB/+b9ei2777EcAsd41O0EgetMklBBaor/DXvQMp+b/JnTynMnRs+dU8XwV+T+36zPlHzd4auj+j/Wu2QkCT5v3NS+hhNASN/8Z2C9DJ8+Z/Mrx6eecKp6vIv/ndn3m09xf82K7x2fLP2b4yvHp59juZh8XeBr8a97xA/z09rqvem753P98rcJH1KvCGfqbqkTPsXu+N4LK65wb3whK/nn5WykgEH3hC2ydNrW/FWx/e93oWXbN/+/W2n+knT62UPTMsd1zZt+Yf6+5wse75H/TW4H3+1/+FbpfDeGHZhXCfkP1r6orvytgr63/y7/Kw79n9w4PgH6Om/Kv8uL/bvn3/6GdG+5/+Vd5aqjjbR4Aryj72+v2d9jqv2Fb4W/Eew29lv4LPxV+5v9yen1+ly8AXuepmn/vyQpv/fxyen1+t/z77wT89qf/Ce5K97/8Xx3ncymBd3sBKIV7QTHyvyCkhSXKfyHuBUvL/4KQVpaoAVbq1l9b/vUzWlmh/Ffq1l9b/vUzWlqhBljKW35x+ZePaGmB8l/KW35x+ZePaG2BGmCtb/XV5V89obX1yX+tb/XV5V89ocX1aYDFwMWXl3/xgBaXJ//FwMWXl3/xgFaXpwFWC9deX/6181ldnfxXC9deX/6181lenQZYTlx6A/mXjmd5cfJfTlx6A/mXjmd9cRpgvXHlHeRfOZ31tcl/vXHlHeRfOZ0NtWmADciFt5B/4XA2lCb/DciFt5B/4XB2lKYBdijX3UP+dbPZUZn8dyjX3UP+dbPZUpkG2MJcdhP5l41mS2Hy38JcdhP5l41mT2EaYI9z1V3kXzWZPXXJf49z1V3kXzWZTXVpgE3QRbeRf9FgNpUl/03QRbeRf9FgdpWlAXZJ19xH/jVz2VWV/HdJ19xH/jVz2VaVBthGXXIj+ZeMZVtR8t9GXXIj+ZeMZV9RGmCfdcWd5F8xlX01yX+fdcWd5F8xlY01aYCN2AW3kn/BUDaWJP+N2AW3kn/BUHaWpAF2atfbS/71MtlZkfx3atfbS/71MtlakQbYyl1uM/mXi2RrQfLfyl1uM/mXi2RvQRpgr3e13eRfLZG99ch/r3e13eRfLZHN9WiAzeDFtpN/sUA2lyP/zeDFtpN/sUB2l6MBdovX2k/+tfLYXY38d4vX2k/+tfLYXo0G2E5eakP5l4pjezHy305eakP5l4pjfzEaYL95pR3lXymN/bXIf795pR3lXymNA7VogAPohbaUf6EwDpQi/wPohbaUf6EwTpSiAU6o19lT/nWyOFGJ/E+o19lT/nWyOFKJBjjCXmZT+ZeJ4kgh8j/CXmZT+ZeJ4kwhGuCMe5Vd5V8liTN1yP+Me5Vd5V8liUN1aIBD8EW2lX+RIA6VIf9D8EW2lX+RIE6VoQFOydfYV/41cjhVhfxPydfYV/41cjhWhQY4Rl9iY/mXiOFYEfI/Rl9iY/mXiOFcERrgnH2FneVfIYVzNcj/nH2FneVfIYWDNbxbA/y6tfZ1a+2vrbV/ttai54vO7zX0WnpNvzqY82jr6PlG6566Xjn/Xlu1j3fL/z9ba79rrf2t4P0v/2rdr57wA7IK4S9aa39qrf2rwEN/9KLaa/tDa+2LKmgJVlWOclP+vdYqH6Nenb1e5Rzd9L8uuf/lX6Vr1PEWXwD0G+ovCQ+z2Re96Lg/F/oiIHqWCrfQbfn3Xq3yReC75P8/F93/8q/wqqGG/xV4hxeAP15087+8vy3Sf696nn6ucIwb8+/fCarw8TT317wKZ+j/8n/Vc8tn+VfoHDWEb5zThP3napW/7T96QfqxtfblabyEF87TR7g5/wq/EzLqz9nrp/PvP/O/9f6X/+nusf/1XwD8PuEhNvtilz3utwX6L3qm00eQfywB+Z/77oH7P9a7ZicI3P4C0H/bN3qGU/P7Xwec/oie/XT98o8lIP9zrx/u/1jvmp0gcPsLwA8XfwHwj4T8okvI/9wDQP7R7m3N/R8zvP3+j53e7PC/nk8T3vwC8PfTeAlfPJ0+gvxjCdz+AJD/x84/dnqzr/8C4OZvAX9foP9ufwDIP9ZE8j/3HSD3f6x3zU4QuP0FoL/DXvQMp+b/JiG/6BLRs0f3j86Xf0xQ/udeP9z/sd41O0Hg9heA/qc0/U/qoufYPb/X/MuE/KJLRM8d3T86/+b8/RloNP3W+p+B3nr/yz+evxWCArc/APrx+5vqRM+xe35/v/IKH9FzVzjDjfn3P1+s8PEO+d/4RlDyr9D9agg/OCsQ9rdV/e6iLwJ6rd4KNq9z5P/c8h2+ALjtraDd/8/71cxkgXd4Aegk/SHwTfFvB/ZvVfZ/+Vd5+Hc3+ccNZg17/v1ffvJPfhH7ybR/J6jyjwPkn5+7FYMCsy9eo3HB7dOn95+rfdVa679hW+FPhHoNvZb+Cz8Vfub3Kfgo19nrn653+r+r5t97Uv7ru6P/Tkh/h73+JjuV7n/5r8/eDg8EZl/oR+MebGlKIYFRrrPXCx1FKQ8EZnMejXuwpSmFBEa5zl4vdBSlPBGYDXo07sme5tQRGOU6e73OSVTyRGA259G4J3uaU0dglOvs9TonUckjgdmgR+MebWpSGYFRrrPXyxxEIY8EZnMejXu0qUllBEa5zl4vcxCFPBOYDXo07tmuZlURGOU6e73KOdTxTGA259G4Z7uaVUVglOvs9SrnUMdDgdmgR+MebmtaEYFRrrPXixxDGQ8FZnMejXu4rWlFBEa5zl4vcgxlPBWYDXo07um+5tUQGOU6e73GKVTxVGA259G4p/uaV0NglOvs9RqnUMVjgdmgR+Meb2xiCYFRrrPXSxxCEY8FZnMejXu8sYklBEa5zl4vcQhFPBeYDXo07vnOZlYQGOU6e73CGdTwXGA259G45zubWUFglOvs9QpnUENAYDbo0bjA1qYWEBjlOnu9wBGUEBCYzXk0LrC1qQUERrnOXi9wBCVEBGaDHo2L7G3ueYFRrrPXz59ABRGB2ZxH4yJ7m3teYJTr7PXzJ1BBSGA26NG40OYmHxcY5Tp7/fgBFBASmM15NC60ucnHBUa5zl4/fgAFxARmgx6Ni+1u9mmBUa6z10/Xb/+YwGzOo3Gx3c0+LTDKdfb66frtHxSYDXo0Lri96YcFRrnOXj9cvu2DArM5j8YFtzf9sMAo19nrh8u3fVRgNujRuOj+5p8VGOU6e/1s9XaPCszmPBoX3d/8swKjXGevn63e7mGB2aBH48IFWOCowCjX2etHi7d5WGA259G4cAEWOCowynX2+tHibR4XmA16NC5egRVOCoxynb1+snZ7xwVmcx6Ni1dghZMCo1xnr5+s3d4JArNBj8YllGCJgwKjXGevHyzd1gkCszmPxiWUYImDAqNcZ68fLN3WGQKzQY/GZdRgjXMCo1xnr5+r3M4ZArM5j8Zl1GCNcwKjXGevn6vczikCs0GPxqUUYZFjAqNcZ68fK9zGKQKzOY/GpRRhkWMCo1xnrx8r3MY5ArNBj8blVGGVUwKjXGevn6rbvjkCszmPxuVUYZVTAqNcZ6+fqtu+SQKzQY/GJZVhmUMCo1xnrx8q27ZJArM5j8YllWGZQwKjXGevHyrbtlkCs0GPxmXVYZ0zAqNcZ6+fqdquWQKzOY/GZdVhnTMCo1xnr5+p2q5pArNBj8alFWKhIwKjXGevHynapmkCszmPxqUVYqEjAqNcZ68fKdqmeQKzQY/G5VVipRMCo1xnr5+o2Z55ArM5j8blVWKlEwKjXGevn6jZnokCs0GPxiWWYqkDAqOTkf3rAAAOQUlEQVRcZ68fKNmWiQKzOY/GJZZiqQMCo1xnrx8o2ZaZArNBj8Zl1mKt/QKjXGev76/YjpkCszmPxmXWYq39AqNcZ6/vr9iOqQKzQY/GpRZjse0Co1xnr28v2IapArM5j8alFmOx7QKjXGevby/YhrkCs0GPxuVWY7XdAqNcZ6/vrtd+uQKzOY/G5VZjtd0Co1xnr++u137JArNBj8Yll2O5zQKjXGevby7XdskCszmPxiWXY7nNAqNcZ69vLtd22QKzQY/GZddjvb0Co1xnr++t1m7ZArM5j8Zl12O9vQKjXGev763WbukCs0GPxqUXZMGtAqNcZ69vLdZm6QKzOY/GpRdkwa0Co1xnr28t1mb5ArNBj8blV2TFnQKjXGev76zVXvkCszmPxuVXZMWdAqNcZ6/vrNVeCwRmgx6NW1BSaMlft9a+bq39tbX2z9baqO5d13sNvZZe069CJ1szOeqwpqrnq1bOv9dW7ePd8v/P1trvWmt/K3j/y79a96sn/ICsQviL1tqfWmv/KvDQH72o9tr+0Fr7ogpaglWVo9yUf6+1yseoV2evVzlHN/2vS+5/+VfpGnW8xRcA/Yb6S8LDbPZFLzruz4W+CIiepcItdFv+vVerfBH4Lvn/z0X3v/wrvGqo4X8F3uEF4I8X3fwv72+L9N+rnqefKxzjxvz7d4IqfDzN/TWvwhn6v/xf9dzyWf4VOkcN4RvnNGH/uVrlb/uPXpB+bK19eRov4YXz9BFuzr/C74SM+nP2+un8+8/8b73/5X+6e+x//RcAv094iM2+2GWP+22B/oue6fQR5B9LQP7nvnvg/o/1rtkJAre/APTf9o2e4dT8/tcBpz+iZz9dv/xjCcj/3OuH+z/Wu2YnCNz+AvDDxV8A/CMhv+gS8j/3AJB/tHtbc//HDG+//2OnNzv8r+fThDe/APz9NF7CF0+njyD/WAK3PwDk/7Hzj53e7Ou/ALj5W8DfF+i/2x8A8o81kfzPfQfI/R/rXbMTBG5/AejvsBc9w6n5v0nIL7pE9OzR/aPz5R8TlP+51w/3f6x3zU4QuP0FoP8pTf+Tuug5ds/vNf8yIb/oEtFzR/ePzr85f38GGk2/tf5noLfe//KP52+FoMDtD4B+/P6mOtFz7J7f36+8wkf03BXOcGP+/c8XK3y8Q/43vhGU/Ct0vxrCD84KhP1tVb+76IuAXqu3gs3rHPk/t3yHLwBueyto9//zfjUzWeAdXgA6SX8IfFP824H9W5X9X/5VHv7dTf5xg1nDnn//l5/8k1/EfjLt3wmq/OMA+efnbsWgwOyL12hccPv06f3nal+11vpv2Fb4E6FeQ6+l/8JPhZ/5fQo+ynX2+qfrnf7vqvn3npT/+u7ovxPS32Gvv8lOpftf/uuzt8MDgdkX+tG4B1uaUkhglOvs9UJHUcoDgdmcR+MebGlKIYFRrrPXCx1FKU8EZoMejXuypzl1BEa5zl6vcxKVPBGYzXk07sme5tQRGOU6e73OSVTySGA26NG4R5uaVEZglOvs9TIHUcgjgdmcR+MebWpSGYFRrrPXyxxEIc8EZoMejXu2q1lVBEa5zl6vcg51PBOYzXk07tmuZlURGOU6e73KOdTxUGA26NG4h9uaVkRglOvs9SLHUMZDgdmcR+MebmtaEYFRrrPXixxDGU8FZoMejXu6r3k1BEa5zl6vcQpVPBWYzXk07um+5tUQGOU6e73GKVTxWGA26NG4xxubWEJglOvs9RKHUMRjgdmcR+Meb2xiCYFRrrPXSxxCEc8FZoMejXu+s5kVBEa5zl6vcAY1PBeYzXk07vnOZlYQGOU6e73CGdQQEJgNejQusLWpBQRGuc5eL3AEJQQEZnMejQtsbWoBgVGus9cLHEEJEYHZoEfjInube15glOvs9fMnUEFEYDbn0bjI3uaeFxjlOnv9/AlUEBKYDXo0LrS5yccFRrnOXj9+AAWEBGZzHo0LbW7ycYFRrrPXjx9AATGB2aBH42K7m31aYJTr7PXT9ds/JjCb82hcbHezTwuMcp29frp++wcFZoMejQtub/phgVGus9cPl2/7oMBszqNxwe1NPywwynX2+uHybR8VmA16NC66v/lnBUa5zl4/W73dowKzOY/GRfc3/6zAKNfZ62ert3tYYDbo0bhwARY4KjDKdfb60eJtHhaYzXk0LlyABY4KjHKdvX60eJvHBWaDHo2LV2CFkwKjXGevn6zd3nGB2ZxH4+IVWOGkwCjX2esna7d3gsBs0KNxCSVY4qDAKNfZ6wdLt3WCwGzOo3EJJVjioMAo19nrB0u3dYbAbNCjcRk1WOOcwCjX2evnKrdzhsBszqNxGTVY45zAKNfZ6+cqt3OKwGzQo3EpRVjkmMAo19nrxwq3cYrAbM6jcSlFWOSYwCjX2evHCrdxjsBs0KNxOVVY5ZTAKNfZ66fqtm+OwGzOo3E5VVjllMAo19nrp+q2b5LAbNCjcUllWOaQwCjX2euHyrZtksBszqNxSWVY5pDAKNfZ64fKtm2WwGzQo3FZdVjnjMAo19nrZ6q2a5bAbM6jcVl1WOeMwCjX2etnqrZrmsBs0KNxaYVY6IjAKNfZ60eKtmmawGzOo3FphVjoiMAo19nrR4q2aZ7AbNCjcXmVWOmEwCjX2esnarZnnsBszqNxeZVY6YTAKNfZ6ydqtmeiwGzQo3GJpVjqgMAo19nrB0q2ZaLAbM6jcYmlWOqAwCjX2esHSrZlpsBs0KNxmbVYa7/AKNfZ6/srtmOmwGzOo3GZtVhrv8Ao19nr+yu2Y6rAbNCjcanFWGy7wCjX2evbC7ZhqsBszqNxqcVYbLvAKNfZ69sLtmGuwGzQo3G51Vhtt8Ao19nru+u1X67AbM6jcbnVWG23wCjX2eu767VfssBs0KNxyeVYbrPAKNfZ65vLtV2ywGzOo3HJ5Vhus8Ao19nrm8u1XbbAbNCjcdn1WG+vwCjX2et7q7VbtsBszqNx2fVYb6/AKNfZ63urtVu6wGzQo3HpBVlwq8Ao19nrW4u1WbrAbM6jcekFWXCrwCjX2etbi7VZvsBs0KNx+RVZcafAKNfZ6ztrtVe+wGzOo3H5FVlxp8Ao19nrO2u11wKB2aCNa40BAz2gB/TAzz2w4JFkyZ0CmvnnZmbBQg/oAT0w3wM7n1X2WiCg2eebnRUrPaAH9MDPPbDgkWTJnQKa+edmZsFCD+gBPTDfAzufVfZaIKDZ55udFSs9oAf0wM89sOCRZMmdApr552ZmwUIP6AE9MN8DO59V9logoNnnm50VKz2gB/TAzz2w4JFkyZ0CmvnnZmbBQg/oAT0w3wM7n1X2WiDwQ5sP243BSg/oAT2gB3oP/H3B88iSmwX+5gsAb/CjB/SAHtADn9kD329+VtlugcDXnxm6r/599a8H9IAe0AO/WfA8suRmgV+11n70RYCv/vWAHtADemCyB/oz48vNzyrbLRL4djJ0X/X7ql8P6AE9oAd+v+hZZNkDAl+01r7zRYCv/vWAHtADeuD/6IH+rOjPDB9vJNAD/caPA9z8/8fN719//vWnBz5mD/Rv+/d/+Xv4v9GD/9Oj9J/rfNVa67/h6U8EP+aN7gVe7npAD/Qe6M+A/izozwQ/8//0aem/CRAgQIAAAQIECBAgQIAAAQIECBAgQIAAAQIECBAgQIAAAQIECBAgQIAAAQIECBAgQIAAAQIECBAgQIAAAQIECBAgQIAAAQIECBAgQIAAAQIECBAgQIAAAQIECBAgQIAAAQIECBAgQIAAAQIECBAgQIAAAQIECBAgQIAAAQIECBAgQIAAAQIECBAgQIAAAQIECBAgQIAAAQIECBAgQIAAAQIECBAgQIAAAQIECBAgQIAAAQIECBAgQIAAAQIECBAgQIAAAQIECBAgQIAAAQIECBAgQIAAAQIECBAgQIAAAQIECBAgQIAAAQIECBAgQIAAAQIECBAgQIAAAQIECBAgQIAAAQIECBAgQIAAAQIECBAgQIAAAQIECBAgQIAAAQIECBAgQIAAAQIECBAgQIAAAQIECBAgQIAAAQIECBAgQIAAAQIECBAgQIAAAQIECBAgQIAAAQIECBAgQIAAAQIECBAgQIAAAQIECBAgQIAAAQIECBAgQIAAAQIECBAgQIAAAQIECBAgQIAAAQIECBAgQIAAAQIECBAgQIAAAQIECBAgQIAAAQIECBAgQIAAAQIECBAgQIAAAQIECBAgQIAAAQIECBAgQIAAAQIECBAgQIAAAQIECBAgQIAAAQIECBAgQIAAAQIECBAgQIAAAQIECBAgQIAAAQIECBAgQIAAAQIECBAgQIAAAQIECBAgQIAAAQIECBAgQIAAAQIECBAgQIAAAQIECBAgQIAAAQIECBAgQIAAAQIECBAgQIAAAQIECBAgQIAAAQIECBAgQIAAAQIECBAgQIAAAQIECBAgQIAAAQIECBAgQIAAAQIECBAgQIAAAQIECBAgQIAAAQIECBAgQIAAAQIECBAgQIAAAQIECBAgQIAAAQIECBAgQIAAAQIECBAgQIAAAQIECBAgQIAAAQIECBAgQIAAAQIECBAgQIAAAQIECBAgQIAAAQIECBAgQIAAAQIECBAgQIAAAQIECBAgQIAAAQIECBAgQIAAAQIECBAgQIAAAQIECBAgQIAAAQIECBAgQIAAAQIECBAgQIAAAQIECBAgQIAAAQIECBAgQIAAAQIECBAgQIAAAQIECBAgQIAAAQIECBAgQIAAAQIECBAgQIAAAQIECBAgQIAAAQIECBAgQIAAAQIECBAgQIAAAQIECBAgQIAAAQIECBAgQIAAAQIECBAgQIAAAQIECBAgQIAAAQIECBAgQIAAAQIECBAgQIAAAQIE3lLg/wOOL4OzMo7OigAAAABJRU5ErkJggg==;" parent="1" vertex="1">
          <mxGeometry x="195" y="435.25" width="89.5" height="89.5" as="geometry" />
        </mxCell>
        <mxCell id="7F3EquHxu8-Q1DY4XxR6-49" value="&lt;font style=&quot;font-size: 24px;&quot;&gt;empresa&lt;/font&gt;" style="text;html=1;align=center;verticalAlign=middle;resizable=0;points=[];autosize=1;strokeColor=none;fillColor=none;" parent="1" vertex="1">
          <mxGeometry x="179.5" y="515" width="120" height="40" as="geometry" />
        </mxCell>
        <mxCell id="7F3EquHxu8-Q1DY4XxR6-51" value="&lt;font style=&quot;font-size: 24px;&quot;&gt;declaracion&lt;/font&gt;" style="text;html=1;align=center;verticalAlign=middle;resizable=0;points=[];autosize=1;strokeColor=none;fillColor=none;" parent="1" vertex="1">
          <mxGeometry x="-335" y="670" width="150" height="40" as="geometry" />
        </mxCell>
        <mxCell id="7F3EquHxu8-Q1DY4XxR6-53" value="" style="shape=image;verticalLabelPosition=bottom;labelBackgroundColor=default;verticalAlign=top;aspect=fixed;imageAspect=0;image=https://archive.org/download/logo-mtpe/logo-mtpe.png;" parent="1" vertex="1">
          <mxGeometry x="-515" y="550" width="246.43" height="50" as="geometry" />
        </mxCell>
        <mxCell id="7F3EquHxu8-Q1DY4XxR6-59" style="edgeStyle=orthogonalEdgeStyle;rounded=0;orthogonalLoop=1;jettySize=auto;html=1;exitX=1;exitY=0.5;exitDx=0;exitDy=0;entryX=0;entryY=0.5;entryDx=0;entryDy=0;" parent="1" source="7F3EquHxu8-Q1DY4XxR6-57" target="7F3EquHxu8-Q1DY4XxR6-32" edge="1">
          <mxGeometry relative="1" as="geometry" />
        </mxCell>
        <mxCell id="7F3EquHxu8-Q1DY4XxR6-57" value="" style="swimlane;startSize=0;" parent="1" vertex="1">
          <mxGeometry x="-115" y="430" width="210" height="100" as="geometry" />
        </mxCell>
        <mxCell id="7F3EquHxu8-Q1DY4XxR6-3" value="" style="shape=image;verticalLabelPosition=bottom;labelBackgroundColor=default;verticalAlign=top;aspect=fixed;imageAspect=0;image=https://caminocontable.com/media/k2/items/cache/c82cc4e14a1d2c8c8ffff9840d24b558_XL.jpg;" parent="7F3EquHxu8-Q1DY4XxR6-57" vertex="1">
          <mxGeometry x="21.000000000000043" y="15" width="165.03" height="70" as="geometry" />
        </mxCell>
        <mxCell id="7F3EquHxu8-Q1DY4XxR6-65" style="edgeStyle=orthogonalEdgeStyle;rounded=0;orthogonalLoop=1;jettySize=auto;html=1;exitX=1;exitY=0.5;exitDx=0;exitDy=0;entryX=0;entryY=0.5;entryDx=0;entryDy=0;" parent="1" source="7F3EquHxu8-Q1DY4XxR6-60" target="7F3EquHxu8-Q1DY4XxR6-63" edge="1">
          <mxGeometry relative="1" as="geometry" />
        </mxCell>
        <mxCell id="7F3EquHxu8-Q1DY4XxR6-60" value="" style="swimlane;startSize=0;" parent="1" vertex="1">
          <mxGeometry x="-115" y="750" width="210" height="100" as="geometry" />
        </mxCell>
        <mxCell id="7F3EquHxu8-Q1DY4XxR6-29" value="" style="shape=image;verticalLabelPosition=bottom;labelBackgroundColor=default;verticalAlign=top;aspect=fixed;imageAspect=0;image=https://vectorseek.com/wp-content/uploads/2023/09/Reniec-Logo-Vector.svg-.png;" parent="7F3EquHxu8-Q1DY4XxR6-60" vertex="1">
          <mxGeometry x="13.519999999999982" y="22.710000000000036" width="182.96" height="54.58" as="geometry" />
        </mxCell>
        <mxCell id="7F3EquHxu8-Q1DY4XxR6-63" value="" style="shape=image;verticalLabelPosition=bottom;labelBackgroundColor=default;verticalAlign=top;aspect=fixed;imageAspect=0;image=data:image/png,iVBORw0KGgoAAAANSUhEUgAAAgAAAAIACAYAAAD0eNT6AAAAAXNSR0IArs4c6QAAIABJREFUeAHt3W2ObUeRNtD802YuGHqmGIMN9FzaoJ6DYSBgfhq9r7LlI0tXSjrvjsjMyFOrpFbJu/Mjcj2xz65bH4fWfBAgQIAAAQIECBAgQIAAAQIECBAgQIAAAQIECBAgQIAAAQIECBAgQIAAAQIECBAgQIAAAQIECBAgQIAAAQIECBAgQIAAAQIECBAgQIAAAQIECBAgQIAAAQIECBAgQIAAAQIECBAgQIAAAQIECBAgQIAAAQIECBAgQIAAAQIECBAgQIAAAQIECBAgQIAAAQIECBAgQIAAAQIECBAgQIAAAQIECBAgQIAAAQIECBAgQIAAAQIECBAgQIAAAQIECBAgQIAAAQIECBAgQIAAAQIECBAgQIAAAQIECBAgQIAAAQIECBAgQIAAAQIECBAgQIAAAQIECBAgQIAAAQIECBAgQIAAAQIECBAgQIAAAQIECBAgQIAAAQIECBAgQIAAAQIECBAgQIAAAQIECBAgQIAAAQIECBAgQIAAAQIECBAgQIAAAQIECBAgQIAAAQIECBAgQIAAAQIECBAgQIAAAQIECBAgQIAAAQIECBAgQIAAAQIECBAgQIAAAQIECBAgQIAAAQIECBAgQIAAAQIECBAgQIAAAQIECBAgQIAAAQIECBAgQIAAAQIECBAgQIAAAQIECBAgQIAAAQIECBAgQIAAAQIECBAgQIAAAQIECBAgQIAAAQIECBAgQIAAAQIECBAgQIAAAQIECBAgQIAAAQIECBAgQIAAAQIECBAgQIAAAQIECBAgQIAAAQIECBAgQIAAAQIECBAgQIAAAQIECBAgQIAAAQIECBAgQIAAAQIECBAgQIAAAQIECBAgQIAAAQIECBAgQIAAAQIECBAgQIAAAQIECBAgQIAAAQIECBAgQIAAAQIECBAgQIAAAQIECBAgQIAAAQIECBAgQIAAAQIECBAgQIAAAQIECBAgQIAAAQIECBAgQIAAAQIECBAgQIAAAQIECBAgQIAAAQIECBAgQIAAAQIECBAgQIAAAQIECBAgQIAAAQIECBAgQIAAAQIECBAgQIAAAQIECBAgQIAAAQIECBAgQIAAAQIECBAgQIAAAQIECBAgQIAAAQIECBAgQIAAAQIECBAgQIAAAQIECBAgQIAAAQIECBAgQIAAAQIECBAgQIAAAQIECBAgQIAAAQIECBAgQIAAAQIECBAgQIAAAQIECBAgQIAAAQIECBAgQIAAAQIECBAgQIAAAQIECBAgQIAAAQIECBAgQIAAAQIECBAgQIAAAQIECBAgQIAAAQIECBAgQIAAAQIECBAgQIAAAQIECBAgQIAAAQIECBD4GAK/aq193Vr7a2vtn621/+f/GOgBPaAHPmQP9GdAfxb0Z0J/Nvh4U4EvWmt/aK39y43+IW90X+j5YlcP6IF/1wM/tta+ba31Z4WPNxLogf7Zg9+DXw/oAT2gB/6PHvjOFwFv9PT/6V/+/+4rP/8//zLQA3pAD+iBVw98816PwI97mv5znf6tnVewPrPQA3pAD+iBf9cD/Znx5cd9bL7PyX/n4e+LHz2gB/SAHvjMHvjqfR6DH/ckf/vM0P/dV4X+f/7VoAf0gB74GD3w/cd9bL7PyX/wBYCv/PWAHtADeuAze+Af7/MY/Lgn8dX6x/hqXc5y1gN6ILsHPu6T801Ont0Q1vMiowf0gB74GD3wJo/Bj3sMN+rHuFHlLGc9oAeye+DjPjnf5OTZDWE9LzJ6QA/ogY/RA2/yGPy4x3CjfowbVc5y1gN6ILsHPu6T801Ont0Q1vMiowf0gB74GD3wJo/Bj3sMN+rHuFHlLGc9oAeye+DjPjnf5OTZDWE9LzJ6QA/ogY/RA2/yGPy4x4jeqB9X7j1OLv/3yPHpKeT/VO495sn/PXJ8fAoN8JjuLSbK/y1ifHwI+T+me4uJ8n+LGJ8fQgM8t3uHmfJ/hxSfn0H+z+3eYab83yHFwBk0QADvDabK/w1CDBxB/gG8N5gq/zcIMXIEDRDRu3+u/O/PMHIC+Uf07p8r//szDJ1AA4T4rp8s/+sjDB1A/iG+6yfL//oIYwfQADG/22fL//YEY/XLP+Z3+2z5355gsH4NEAS8fLr8Lw8wWL78g4CXT5f/5QFGy9cAUcG758v/7vyi1cs/Knj3fPnfnV+4eg0QJrx6AflfHV+4ePmHCa9eQP5XxxcvXgPEDW9eQf43pxevXf5xw5tXkP/N6SXUrgESEC9eQv4Xh5dQuvwTEC9eQv4Xh5dRugbIULx3Dfnfm11G5fLPULx3Dfnfm11K5RoghfHaReR/bXQphcs/hfHaReR/bXQ5hWuAHMdbV5H/rcnl1C3/HMdbV5H/rckl1a0BkiAvXUb+lwaXVLb8kyAvXUb+lwaXVbYGyJK8cx3535lbVtXyz5K8cx3535lbWtUaII3yyoXkf2VsaUXLP43yyoXkf2VseUVrgDzLG1eS/42p5dUs/zzLG1eS/42pJdasARIxL1xK/heGlliy/BMxL1xK/heGllmyBsjUvG8t+d+XWWbF8s/UvG8t+d+XWWrFGiCV87rF5H9dZKkFyz+V87rF5H9dZLkFa4Bcz9tWk/9tieXWK/9cz9tWk/9tiSXXqwGSQS9bTv6XBZZcrvyTQS9bTv6XBZZdrgbIFr1rPfnflVd2tfLPFr1rPfnflVd6tRognfSqBeV/VVzpxco/nfSqBeV/VVz5xWqAfNObVpT/TWnl1yr/fNObVpT/TWktqFUDLEC9aEn5XxTWglLlvwD1oiXlf1FYK0rVACtU71lT/vdktaJS+a9QvWdN+d+T1ZJKNcAS1msWlf81US0pVP5LWK9ZVP7XRLWmUA2wxvWWVeV/S1Jr6pT/GtdbVpX/LUktqlMDLIK9ZFn5XxLUojLlvwj2kmXlf0lQq8qMNoD5rTFgoAf0wEfsgVXPJetuEviITevMXqz1gB7QA/Ee2PSYss0qATdB/CZgyFAP6IGP2AOrnkvW3STwEZvWmb1Y6wE9oAfiPbDpMWWbVQJugvhNwJChHtADH7EHVj2XrLtJ4CM2rTN7sdYDekAPxHtg02PKNqsE3ATxm4AhQz2gBz5iD6x6Lll3k8BHbFpn9mKtB/SAHoj3wKbHlG1WCbgJ4jcBQ4Z6QA98xB5Y9Vyy7iaBj9i0zuzFWg/oAT0Q74FNjynbrBJwE8RvAoYM9YAe+Ig9sOq5ZN1NAh+xaZ3Zi7Ue0AN6IN4Dmx5Ttlkl4CaI3wQMGeoBPfARe2DVc8m6mwQ+YtM6sxdrPaAH9EC8BzY9pmyzSsBNEL8JGDLUA3rgI/bAqueSdTcJfMSmdWYv1npAD+iBeA9sekzZZpVA9CZYVZd19wjIf49z1V3kXzWZPXXJf49z2V00QNlothQm/y3MZTeRf9lothQm/y3MdTfRAHWz2VGZ/Hco191D/nWz2VGZ/HcoF95DAxQOZ0Np8t+AXHgL+RcOZ0Np8t+AXHkLDVA5nfW1yX+9ceUd5F85nfW1yX+9cekdNEDpeJYXJ//lxKU3kH/peJYXJ//lxLU30AC181ldnfxXC9deX/6181ldnfxXCxdfXwMUD2hxefJfDFx8efkXD2hxefJfDFx9eQ1QPaG19cl/rW/11eVfPaG19cl/rW/51TVA+YiWFij/pbzlF5d/+YiWFij/pbz1F9cA9TNaWaH8V+rWX1v+9TNaWaH8V+pesLYGuCCkhSXKfyHuBUvL/4KQFpYo/4W4NyytAW5IaV2N8l9ne8PK8r8hpXU1yn+d7RUra4ArYlpWpPyX0V6xsPyviGlZkfJfRnvHwhrgjpxWVSn/VbJ3rCv/O3JaVaX8V8lesq4GuCSoRWXKfxHsJcvK/5KgFpUp/0WwtyyrAW5Jak2d8l/jesuq8r8lqTV1yn+N6zWraoBrolpSqPyXsF6zqPyviWpJofJfwnrPohrgnqxWVCr/Far3rCn/e7JaUan8V6hetKYGuCisBaXKfwHqRUvK/6KwFpQq/wWoNy2pAW5KK79W+eeb3rSi/G9KK79W+eebXrWiBrgqrvRi5Z9OetWC8r8qrvRi5Z9OeteCGuCuvLKrlX+26F3ryf+uvLKrlX+26GXraYDLAksuV/7JoJctJ//LAksuV/7JoLctpwFuSyy3Xvnnet62mvxvSyy3Xvnnel63mga4LrLUguWfynndYvK/LrLUguWfynnfYhrgvswyK5Z/puZ9a8n/vswyK5Z/puaFa2mAC0NLLFn+iZgXLiX/C0NLLFn+iZg3LqUBbkwtr2b551neuJL8b0wtr2b551leuZIGuDK2tKLln0Z55ULyvzK2tKLln0Z550Ia4M7csqqWf5bknevI/87csqqWf5bkpetogEuDSypb/kmQly4j/0uDSypb/kmQty7zbg3wq9ba1621v7bW/tlai54vOr/X0GvpNfXaqn1Ez1ftPPL/vETeLf9ft9Z+11r7m/t/qhHeLf+pQxv0s8C7NMAXrbU/tNb+VeChPzL9sbX2TWut11rlY1Tr7PUq57gl/2/lv6RlftFa++MF97/8l8Rv0acCsy/0o3FP982c11/8/1z4wf+p3XeFHgKf1va5/52Z49O15P9ULv4dsuc7583sD/+/uP8fgX7u/f7p+EebmlRH4NNAP/e/K5yk/8v/c+s+Pf73FeAS3Coc48b8+3eCKnxE74MKZ/hTQh9HHT53vvwrdI4awg/O04T9Z779W+ufewOeHt9r/vI0XoLb6SPIP5ZA9D6I7R6f3X/mX/nHfiNf9388eyskCIwadPZ6QgmhJfov/MzWWm3cV6GT50yOmuRU8XwV+T+36zPlHzd4auj+j/Wu2QkCT5v3NS+hhNAS/bd9X7Xc9vn70MlzJkfNcqp4vor8n9v1mfKPGzw1dP/HetfsBIGnzfual1BCaIkfEl7EXmfZ/fkfoZPnTI6eOaeK56vI/7ldnyn/uMFTQ/d/rHfNThB42ryveQklhJboN9Grlts+/z108pzJUbOcKp6vIv/ndn2m/OMGTw3d/7HeNTtB4GnzvuYllBBawreAQ3zXPwDkL//Xa9Ftn/0IINa7ZicIRG+ahBJCS/R32Iue4dT834ROnjM5evacKp6vIv/ndn2m/OMGTw3d/7HeNTtB4GnzvuYllBBa4uY/A/tl6OQ5k185Pv2cU8XzVeT/3K7PfJr7a15s9/hs+ccMXzk+/Rzb3ezjAk+Df807foCf3l73Vc8tn/ufr1X4iHpVOEN/U5XoOXbP90ZQeZ1z4xtByT8vfysFBKIvfIGt06b2t4Ltb68bPcuu+f/dWvuPtNPHFoqeObZ7zuwb8+81V/h4l/xveivwfv/Lv0L3qyH80KxC2G+o/lV15XcF7LX1f/lXefj37N7hAdDPcVP+VV783y3//j+0c8P9L/8qTw11vM0D4BVlf3vd/g5b/TdsK/yNeK+h19J/4afCz/xfTq/P7/IFwOs8VfPvPVnhrZ9fTq/P75Z//52A3/70P8Fd6f6X/6vjfC4l8G4vAKVwLyhG/heEtLBE+S/EvWBp+V8Q0soSNcBK3fpry79+RisrlP9K3fpry79+Rksr1ABLecsvLv/yES0tUP5LecsvLv/yEa0tUAOs9a2+uvyrJ7S2Pvmv9a2+uvyrJ7S4Pg2wGLj48vIvHtDi8uS/GLj48vIvHtDq8jTAauHa68u/dj6rq5P/auHa68u/dj7Lq9MAy4lLbyD/0vEsL07+y4lLbyD/0vGsL04DrDeuvIP8K6ezvjb5rzeuvIP8K6ezoTYNsAG58BbyLxzOhtLkvwG58BbyLxzOjtI0wA7lunvIv242OyqT/w7lunvIv242WyrTAFuYy24i/7LRbClM/luYy24i/7LR7ClMA+xxrrqL/Ksms6cu+e9xrrqL/Ksms6kuDbAJuug28i8azKay5L8Juug28i8azK6yNMAu6Zr7yL9mLruqkv8u6Zr7yL9mLtuq0gDbqEtuJP+SsWwrSv7bqEtuJP+SsewrSgPss664k/wrprKvJvnvs664k/wrprKxJg2wEbvgVvIvGMrGkuS/EbvgVvIvGMrOkjTATu16e8m/XiY7K5L/Tu16e8m/XiZbK9IAW7nLbSb/cpFsLUj+W7nLbSb/cpHsLUgD7PWutpv8qyWytx757/Wutpv8qyWyuR4NsBm82HbyLxbI5nLkvxm82HbyLxbI7nI0wG7xWvvJv1Yeu6uR/27xWvvJv1Ye26vRANvJS20o/1JxbC9G/tvJS20o/1Jx7C9GA+w3r7Sj/Culsb8W+e83r7Sj/CulcaAWDXAAvdCW8i8UxoFS5H8AvdCW8i8UxolSNMAJ9Tp7yr9OFicqkf8J9Tp7yr9OFkcq0QBH2MtsKv8yURwpRP5H2MtsKv8yUZwpRAOcca+yq/yrJHGmDvmfca+yq/yrJHGoDg1wCL7ItvIvEsShMuR/CL7ItvIvEsSpMjTAKfka+8q/Rg6nqpD/Kfka+8q/Rg7HqtAAx+hLbCz/EjEcK0L+x+hLbCz/EjGcK0IDnLOvsLP8K6Rwrgb5n7OvsLP8K6RwsIZ3a4Bftda+bq39tbX2z9Za9HzR+b2GXkuvqddW7SN6vmrnkf/nJfJu+f+6tfa71trf3P9TjfBu+U8d2qCfBd6lAb5orf2htfavAg/9kemPrbVvWmu91iofo1pnr1c5xy35fyv/JS3zi9baHy+4/+W/JH6LPhWYfaEfjXu6b+a8/uL/58IP/k/tviv0EPi0ts/978wcn64l/6dy8e+QPd85b2Z/+P/F/f8I9HPv90/HP9rUpDoCnwb6uf9d4ST9X/6fW/fp8b+vAJfgVuEYN+bfvxNU4SN6H1Q4w58S+jjq8Lnz5V+hc9QQfnCeJuw/8+3fWv/cG/D0+F7zl6fxEtxOH0H+sQSi90Fs9/js/jP/yj/2G/m6/+PZWyFBYNSgs9cTSggt0X/hZ7bWauO+Cp08Z3LUJKeK56vI/7ldnyn/uMFTQ/d/rHfNThB42ryveQklhJbov+37quW2z9+HTp4zOWqWU8XzVeT/3K7PlH/c4Kmh+z/Wu2YnCDxt3te8hBJCS/yQ8CL2Osvuz/8InTxncvTMOVU8X0X+z+36TPnHDZ4auv9jvWt2gsDT5n3NSyghtES/iV613Pb576GT50yOmuVU8XwV+T+36zPlHzd4auj+j/Wu2QkCT5v3NS+hhNASvgUc4rv+ASB/+b9ei2777EcAsd41O0EgetMklBBaor/DXvQMp+b/JnTynMnRs+dU8XwV+T+36zPlHzd4auj+j/Wu2QkCT5v3NS+hhNASN/8Z2C9DJ8+Z/Mrx6eecKp6vIv/ndn3m09xf82K7x2fLP2b4yvHp59juZh8XeBr8a97xA/z09rqvem753P98rcJH1KvCGfqbqkTPsXu+N4LK65wb3whK/nn5WykgEH3hC2ydNrW/FWx/e93oWXbN/+/W2n+knT62UPTMsd1zZt+Yf6+5wse75H/TW4H3+1/+FbpfDeGHZhXCfkP1r6orvytgr63/y7/Kw79n9w4PgH6Om/Kv8uL/bvn3/6GdG+5/+Vd5aqjjbR4Aryj72+v2d9jqv2Fb4W/Eew29lv4LPxV+5v9yen1+ly8AXuepmn/vyQpv/fxyen1+t/z77wT89qf/Ce5K97/8Xx3ncymBd3sBKIV7QTHyvyCkhSXKfyHuBUvL/4KQVpaoAVbq1l9b/vUzWlmh/Ffq1l9b/vUzWlqhBljKW35x+ZePaGmB8l/KW35x+ZePaG2BGmCtb/XV5V89obX1yX+tb/XV5V89ocX1aYDFwMWXl3/xgBaXJ//FwMWXl3/xgFaXpwFWC9deX/6181ldnfxXC9deX/6181lenQZYTlx6A/mXjmd5cfJfTlx6A/mXjmd9cRpgvXHlHeRfOZ31tcl/vXHlHeRfOZ0NtWmADciFt5B/4XA2lCb/DciFt5B/4XB2lKYBdijX3UP+dbPZUZn8dyjX3UP+dbPZUpkG2MJcdhP5l41mS2Hy38JcdhP5l41mT2EaYI9z1V3kXzWZPXXJf49z1V3kXzWZTXVpgE3QRbeRf9FgNpUl/03QRbeRf9FgdpWlAXZJ19xH/jVz2VWV/HdJ19xH/jVz2VaVBthGXXIj+ZeMZVtR8t9GXXIj+ZeMZV9RGmCfdcWd5F8xlX01yX+fdcWd5F8xlY01aYCN2AW3kn/BUDaWJP+N2AW3kn/BUHaWpAF2atfbS/71MtlZkfx3atfbS/71MtlakQbYyl1uM/mXi2RrQfLfyl1uM/mXi2RvQRpgr3e13eRfLZG99ch/r3e13eRfLZHN9WiAzeDFtpN/sUA2lyP/zeDFtpN/sUB2l6MBdovX2k/+tfLYXY38d4vX2k/+tfLYXo0G2E5eakP5l4pjezHy305eakP5l4pjfzEaYL95pR3lXymN/bXIf795pR3lXymNA7VogAPohbaUf6EwDpQi/wPohbaUf6EwTpSiAU6o19lT/nWyOFGJ/E+o19lT/nWyOFKJBjjCXmZT+ZeJ4kgh8j/CXmZT+ZeJ4kwhGuCMe5Vd5V8liTN1yP+Me5Vd5V8liUN1aIBD8EW2lX+RIA6VIf9D8EW2lX+RIE6VoQFOydfYV/41cjhVhfxPydfYV/41cjhWhQY4Rl9iY/mXiOFYEfI/Rl9iY/mXiOFcERrgnH2FneVfIYVzNcj/nH2FneVfIYWDNbxbA/y6tfZ1a+2vrbV/ttai54vO7zX0WnpNvzqY82jr6PlG6566Xjn/Xlu1j3fL/z9ba79rrf2t4P0v/2rdr57wA7IK4S9aa39qrf2rwEN/9KLaa/tDa+2LKmgJVlWOclP+vdYqH6Nenb1e5Rzd9L8uuf/lX6Vr1PEWXwD0G+ovCQ+z2Re96Lg/F/oiIHqWCrfQbfn3Xq3yReC75P8/F93/8q/wqqGG/xV4hxeAP15087+8vy3Sf696nn6ucIwb8+/fCarw8TT317wKZ+j/8n/Vc8tn+VfoHDWEb5zThP3napW/7T96QfqxtfblabyEF87TR7g5/wq/EzLqz9nrp/PvP/O/9f6X/+nusf/1XwD8PuEhNvtilz3utwX6L3qm00eQfywB+Z/77oH7P9a7ZicI3P4C0H/bN3qGU/P7Xwec/oie/XT98o8lIP9zrx/u/1jvmp0gcPsLwA8XfwHwj4T8okvI/9wDQP7R7m3N/R8zvP3+j53e7PC/nk8T3vwC8PfTeAlfPJ0+gvxjCdz+AJD/x84/dnqzr/8C4OZvAX9foP9ufwDIP9ZE8j/3HSD3f6x3zU4QuP0FoL/DXvQMp+b/JiG/6BLRs0f3j86Xf0xQ/udeP9z/sd41O0Hg9heA/qc0/U/qoufYPb/X/MuE/KJLRM8d3T86/+b8/RloNP3W+p+B3nr/yz+evxWCArc/APrx+5vqRM+xe35/v/IKH9FzVzjDjfn3P1+s8PEO+d/4RlDyr9D9agg/OCsQ9rdV/e6iLwJ6rd4KNq9z5P/c8h2+ALjtraDd/8/71cxkgXd4Aegk/SHwTfFvB/ZvVfZ/+Vd5+Hc3+ccNZg17/v1ffvJPfhH7ybR/J6jyjwPkn5+7FYMCsy9eo3HB7dOn95+rfdVa679hW+FPhHoNvZb+Cz8Vfub3Kfgo19nrn653+r+r5t97Uv7ru6P/Tkh/h73+JjuV7n/5r8/eDg8EZl/oR+MebGlKIYFRrrPXCx1FKQ8EZnMejXuwpSmFBEa5zl4vdBSlPBGYDXo07sme5tQRGOU6e73OSVTyRGA259G4J3uaU0dglOvs9TonUckjgdmgR+MebWpSGYFRrrPXyxxEIY8EZnMejXu0qUllBEa5zl4vcxCFPBOYDXo07tmuZlURGOU6e73KOdTxTGA259G4Z7uaVUVglOvs9SrnUMdDgdmgR+MebmtaEYFRrrPXixxDGQ8FZnMejXu4rWlFBEa5zl4vcgxlPBWYDXo07um+5tUQGOU6e73GKVTxVGA259G4p/uaV0NglOvs9RqnUMVjgdmgR+Meb2xiCYFRrrPXSxxCEY8FZnMejXu8sYklBEa5zl4vcQhFPBeYDXo07vnOZlYQGOU6e73CGdTwXGA259G45zubWUFglOvs9QpnUENAYDbo0bjA1qYWEBjlOnu9wBGUEBCYzXk0LrC1qQUERrnOXi9wBCVEBGaDHo2L7G3ueYFRrrPXz59ABRGB2ZxH4yJ7m3teYJTr7PXzJ1BBSGA26NG40OYmHxcY5Tp7/fgBFBASmM15NC60ucnHBUa5zl4/fgAFxARmgx6Ni+1u9mmBUa6z10/Xb/+YwGzOo3Gx3c0+LTDKdfb66frtHxSYDXo0Lri96YcFRrnOXj9cvu2DArM5j8YFtzf9sMAo19nrh8u3fVRgNujRuOj+5p8VGOU6e/1s9XaPCszmPBoX3d/8swKjXGevn63e7mGB2aBH48IFWOCowCjX2etHi7d5WGA259G4cAEWOCowynX2+tHibR4XmA16NC5egRVOCoxynb1+snZ7xwVmcx6Ni1dghZMCo1xnr5+s3d4JArNBj8YllGCJgwKjXGevHyzd1gkCszmPxiWUYImDAqNcZ68fLN3WGQKzQY/GZdRgjXMCo1xnr5+r3M4ZArM5j8Zl1GCNcwKjXGevn6vczikCs0GPxqUUYZFjAqNcZ68fK9zGKQKzOY/GpRRhkWMCo1xnrx8r3MY5ArNBj8blVGGVUwKjXGevn6rbvjkCszmPxuVUYZVTAqNcZ6+fqtu+SQKzQY/GJZVhmUMCo1xnrx8q27ZJArM5j8YllWGZQwKjXGevHyrbtlkCs0GPxmXVYZ0zAqNcZ6+fqdquWQKzOY/GZdVhnTMCo1xnr5+p2q5pArNBj8alFWKhIwKjXGevHynapmkCszmPxqUVYqEjAqNcZ68fKdqmeQKzQY/G5VVipRMCo1xnr5+o2Z55ArM5j8blVWKlEwKjXGevn6jZnokCs0GPxiWWYqkDAqOTkf3rAAAOQUlEQVRcZ68fKNmWiQKzOY/GJZZiqQMCo1xnrx8o2ZaZArNBj8Zl1mKt/QKjXGev76/YjpkCszmPxmXWYq39AqNcZ6/vr9iOqQKzQY/GpRZjse0Co1xnr28v2IapArM5j8alFmOx7QKjXGevby/YhrkCs0GPxuVWY7XdAqNcZ6/vrtd+uQKzOY/G5VZjtd0Co1xnr++u137JArNBj8Yll2O5zQKjXGevby7XdskCszmPxiWXY7nNAqNcZ69vLtd22QKzQY/GZddjvb0Co1xnr++t1m7ZArM5j8Zl12O9vQKjXGev763WbukCs0GPxqUXZMGtAqNcZ69vLdZm6QKzOY/GpRdkwa0Co1xnr28t1mb5ArNBj8blV2TFnQKjXGev76zVXvkCszmPxuVXZMWdAqNcZ6/vrNVeCwRmgx6NW1BSaMlft9a+bq39tbX2z9baqO5d13sNvZZe069CJ1szOeqwpqrnq1bOv9dW7ePd8v/P1trvWmt/K3j/y79a96sn/ICsQviL1tqfWmv/KvDQH72o9tr+0Fr7ogpaglWVo9yUf6+1yseoV2evVzlHN/2vS+5/+VfpGnW8xRcA/Yb6S8LDbPZFLzruz4W+CIiepcItdFv+vVerfBH4Lvn/z0X3v/wrvGqo4X8F3uEF4I8X3fwv72+L9N+rnqefKxzjxvz7d4IqfDzN/TWvwhn6v/xf9dzyWf4VOkcN4RvnNGH/uVrlb/uPXpB+bK19eRov4YXz9BFuzr/C74SM+nP2+un8+8/8b73/5X+6e+x//RcAv094iM2+2GWP+22B/oue6fQR5B9LQP7nvnvg/o/1rtkJAre/APTf9o2e4dT8/tcBpz+iZz9dv/xjCcj/3OuH+z/Wu2YnCNz+AvDDxV8A/CMhv+gS8j/3AJB/tHtbc//HDG+//2OnNzv8r+fThDe/APz9NF7CF0+njyD/WAK3PwDk/7Hzj53e7Ou/ALj5W8DfF+i/2x8A8o81kfzPfQfI/R/rXbMTBG5/AejvsBc9w6n5v0nIL7pE9OzR/aPz5R8TlP+51w/3f6x3zU4QuP0FoP8pTf+Tuug5ds/vNf8yIb/oEtFzR/ePzr85f38GGk2/tf5noLfe//KP52+FoMDtD4B+/P6mOtFz7J7f36+8wkf03BXOcGP+/c8XK3y8Q/43vhGU/Ct0vxrCD84KhP1tVb+76IuAXqu3gs3rHPk/t3yHLwBueyto9//zfjUzWeAdXgA6SX8IfFP824H9W5X9X/5VHv7dTf5xg1nDnn//l5/8k1/EfjLt3wmq/OMA+efnbsWgwOyL12hccPv06f3nal+11vpv2Fb4E6FeQ6+l/8JPhZ/5fQo+ynX2+qfrnf7vqvn3npT/+u7ovxPS32Gvv8lOpftf/uuzt8MDgdkX+tG4B1uaUkhglOvs9UJHUcoDgdmcR+MebGlKIYFRrrPXCx1FKU8EZoMejXuypzl1BEa5zl6vcxKVPBGYzXk07sme5tQRGOU6e73OSVTySGA26NG4R5uaVEZglOvs9TIHUcgjgdmcR+MebWpSGYFRrrPXyxxEIc8EZoMejXu2q1lVBEa5zl6vcg51PBOYzXk07tmuZlURGOU6e73KOdTxUGA26NG4h9uaVkRglOvs9SLHUMZDgdmcR+MebmtaEYFRrrPXixxDGU8FZoMejXu6r3k1BEa5zl6vcQpVPBWYzXk07um+5tUQGOU6e73GKVTxWGA26NG4xxubWEJglOvs9RKHUMRjgdmcR+Meb2xiCYFRrrPXSxxCEc8FZoMejXu+s5kVBEa5zl6vcAY1PBeYzXk07vnOZlYQGOU6e73CGdQQEJgNejQusLWpBQRGuc5eL3AEJQQEZnMejQtsbWoBgVGus9cLHEEJEYHZoEfjInube15glOvs9fMnUEFEYDbn0bjI3uaeFxjlOnv9/AlUEBKYDXo0LrS5yccFRrnOXj9+AAWEBGZzHo0LbW7ycYFRrrPXjx9AATGB2aBH42K7m31aYJTr7PXT9ds/JjCb82hcbHezTwuMcp29frp++wcFZoMejQtub/phgVGus9cPl2/7oMBszqNxwe1NPywwynX2+uHybR8VmA16NC66v/lnBUa5zl4/W73dowKzOY/GRfc3/6zAKNfZ62ert3tYYDbo0bhwARY4KjDKdfb60eJtHhaYzXk0LlyABY4KjHKdvX60eJvHBWaDHo2LV2CFkwKjXGevn6zd3nGB2ZxH4+IVWOGkwCjX2esna7d3gsBs0KNxCSVY4qDAKNfZ6wdLt3WCwGzOo3EJJVjioMAo19nrB0u3dYbAbNCjcRk1WOOcwCjX2evnKrdzhsBszqNxGTVY45zAKNfZ6+cqt3OKwGzQo3EpRVjkmMAo19nrxwq3cYrAbM6jcSlFWOSYwCjX2evHCrdxjsBs0KNxOVVY5ZTAKNfZ66fqtm+OwGzOo3E5VVjllMAo19nrp+q2b5LAbNCjcUllWOaQwCjX2euHyrZtksBszqNxSWVY5pDAKNfZ64fKtm2WwGzQo3FZdVjnjMAo19nrZ6q2a5bAbM6jcVl1WOeMwCjX2etnqrZrmsBs0KNxaYVY6IjAKNfZ60eKtmmawGzOo3FphVjoiMAo19nrR4q2aZ7AbNCjcXmVWOmEwCjX2esnarZnnsBszqNxeZVY6YTAKNfZ6ydqtmeiwGzQo3GJpVjqgMAo19nrB0q2ZaLAbM6jcYmlWOqAwCjX2esHSrZlpsBs0KNxmbVYa7/AKNfZ6/srtmOmwGzOo3GZtVhrv8Ao19nr+yu2Y6rAbNCjcanFWGy7wCjX2evbC7ZhqsBszqNxqcVYbLvAKNfZ69sLtmGuwGzQo3G51Vhtt8Ao19nru+u1X67AbM6jcbnVWG23wCjX2eu767VfssBs0KNxyeVYbrPAKNfZ65vLtV2ywGzOo3HJ5Vhus8Ao19nrm8u1XbbAbNCjcdn1WG+vwCjX2et7q7VbtsBszqNx2fVYb6/AKNfZ63urtVu6wGzQo3HpBVlwq8Ao19nrW4u1WbrAbM6jcekFWXCrwCjX2etbi7VZvsBs0KNx+RVZcafAKNfZ6ztrtVe+wGzOo3H5FVlxp8Ao19nrO2u11wKB2aCNa40BAz2gB/TAzz2w4JFkyZ0CmvnnZmbBQg/oAT0w3wM7n1X2WiCg2eebnRUrPaAH9MDPPbDgkWTJnQKa+edmZsFCD+gBPTDfAzufVfZaIKDZ55udFSs9oAf0wM89sOCRZMmdApr552ZmwUIP6AE9MN8DO59V9logoNnnm50VKz2gB/TAzz2w4JFkyZ0CmvnnZmbBQg/oAT0w3wM7n1X2WiDwQ5sP243BSg/oAT2gB3oP/H3B88iSmwX+5gsAb/CjB/SAHtADn9kD329+VtlugcDXnxm6r/599a8H9IAe0AO/WfA8suRmgV+11n70RYCv/vWAHtADemCyB/oz48vNzyrbLRL4djJ0X/X7ql8P6AE9oAd+v+hZZNkDAl+01r7zRYCv/vWAHtADeuD/6IH+rOjPDB9vJNAD/caPA9z8/8fN719//vWnBz5mD/Rv+/d/+Xv4v9GD/9Oj9J/rfNVa67/h6U8EP+aN7gVe7npAD/Qe6M+A/izozwQ/8//0aem/CRAgQIAAAQIECBAgQIAAAQIECBAgQIAAAQIECBAgQIAAAQIECBAgQIAAAQIECBAgQIAAAQIECBAgQIAAAQIECBAgQIAAAQIECBAgQIAAAQIECBAgQIAAAQIECBAgQIAAAQIECBAgQIAAAQIECBAgQIAAAQIECBAgQIAAAQIECBAgQIAAAQIECBAgQIAAAQIECBAgQIAAAQIECBAgQIAAAQIECBAgQIAAAQIECBAgQIAAAQIECBAgQIAAAQIECBAgQIAAAQIECBAgQIAAAQIECBAgQIAAAQIECBAgQIAAAQIECBAgQIAAAQIECBAgQIAAAQIECBAgQIAAAQIECBAgQIAAAQIECBAgQIAAAQIECBAgQIAAAQIECBAgQIAAAQIECBAgQIAAAQIECBAgQIAAAQIECBAgQIAAAQIECBAgQIAAAQIECBAgQIAAAQIECBAgQIAAAQIECBAgQIAAAQIECBAgQIAAAQIECBAgQIAAAQIECBAgQIAAAQIECBAgQIAAAQIECBAgQIAAAQIECBAgQIAAAQIECBAgQIAAAQIECBAgQIAAAQIECBAgQIAAAQIECBAgQIAAAQIECBAgQIAAAQIECBAgQIAAAQIECBAgQIAAAQIECBAgQIAAAQIECBAgQIAAAQIECBAgQIAAAQIECBAgQIAAAQIECBAgQIAAAQIECBAgQIAAAQIECBAgQIAAAQIECBAgQIAAAQIECBAgQIAAAQIECBAgQIAAAQIECBAgQIAAAQIECBAgQIAAAQIECBAgQIAAAQIECBAgQIAAAQIECBAgQIAAAQIECBAgQIAAAQIECBAgQIAAAQIECBAgQIAAAQIECBAgQIAAAQIECBAgQIAAAQIECBAgQIAAAQIECBAgQIAAAQIECBAgQIAAAQIECBAgQIAAAQIECBAgQIAAAQIECBAgQIAAAQIECBAgQIAAAQIECBAgQIAAAQIECBAgQIAAAQIECBAgQIAAAQIECBAgQIAAAQIECBAgQIAAAQIECBAgQIAAAQIECBAgQIAAAQIECBAgQIAAAQIECBAgQIAAAQIECBAgQIAAAQIECBAgQIAAAQIECBAgQIAAAQIECBAgQIAAAQIECBAgQIAAAQIECBAgQIAAAQIECBAgQIAAAQIECBAgQIAAAQIECBAgQIAAAQIECBAgQIAAAQIECBAgQIAAAQIECBAgQIAAAQIECBAgQIAAAQIECBAgQIAAAQIECBAgQIAAAQIE3lLg/wOOL4OzMo7OigAAAABJRU5ErkJggg==;" parent="1" vertex="1">
          <mxGeometry x="194.5" y="755" width="90" height="90" as="geometry" />
        </mxCell>
        <mxCell id="7F3EquHxu8-Q1DY4XxR6-64" value="&lt;font style=&quot;font-size: 24px;&quot;&gt;trabajador&lt;/font&gt;" style="text;html=1;align=center;verticalAlign=middle;resizable=0;points=[];autosize=1;strokeColor=none;fillColor=none;" parent="1" vertex="1">
          <mxGeometry x="174.5" y="830" width="130" height="40" as="geometry" />
        </mxCell>
        <mxCell id="7F3EquHxu8-Q1DY4XxR6-78" style="edgeStyle=orthogonalEdgeStyle;rounded=0;orthogonalLoop=1;jettySize=auto;html=1;entryX=0;entryY=0.5;entryDx=0;entryDy=0;" parent="1" source="7F3EquHxu8-Q1DY4XxR6-76" target="LDEMuyIFx6sQ8Yjgb2jP-1" edge="1">
          <mxGeometry relative="1" as="geometry">
            <mxPoint x="-305" y="645" as="targetPoint" />
          </mxGeometry>
        </mxCell>
        <mxCell id="7F3EquHxu8-Q1DY4XxR6-76" value="" style="shape=image;verticalLabelPosition=bottom;labelBackgroundColor=default;verticalAlign=top;aspect=fixed;imageAspect=0;image=data:image/png,iVBORw0KGgoAAAANSUhEUgAAAgAAAAIACAYAAAD0eNT6AAAAAXNSR0IArs4c6QAAIABJREFUeAHtnQe4BElZrr8FXDKISgYRROLCIougFzBcgoqISEYQBFnAqxdQEJakgFdBRZEcDQSJK0u+SFAQSbLERZcMgmSEu4RlCbvc88Pp7Tlzuqv/qq6eqpp5+3nOM326a7qrvvr+v96p7umRWFAABVAABVAABVAABVAABVAABVAABVAABVAABVAABVAABVAABVAABVAABVAABVAABVAABVAABVAABVAABVAABVAABVAABVAABVAABVAABVAABVAABVAABVAABVAABVAABVAABVAABVAABVAABVAABVAABVAABVAABVAABVAABVAABVAABVAABVAABVAABVAABVAABVAABVAABVAABVAABVAABVAABVAABVAABVAABVAABVAABVAABVAABVAABVAABVAABVAABVAABVAABVAABVAABVAABVAABVAABVAABVAABVAABVAABVAABVAABVAABVAABVAABVAABVAABVAABVAABVAABVAABbZXgUtKur+kl0s6kb+qNXiZpOMkXWJ77UjLUAAFUAAFllbgCEkPkPR1Sd/hrykNTt3rt/tJsj5kQQEUQAEUQIEoBR7HoN/UoD8EaY+J6nEKowAKoAAK7LwCt2bwb37w74DgFjvvZgRAARRAARRwK/B+AGBrAOBkd69TEAVQAAVQYKcVuCqD/9YM/t0swFE77WgajwIogAIo4FLgNgDA1gHALV09TyEUQAEUQIGdVuBuAMDWAYD1KQsKoAAKoAAKBBW4OwCwdQBgfcqCAiiAAiiAAkEFAIDte+4BABC0PDtRAAVQAAVMAQAAACASUAAFUAAFdlABAAAA2EHb02QUQAEUQAEAAAAgClAABVAABXZQAQAAANhB29NkFEABFECBVAA4XtIx/C2qgWncPdwn5tX6lAUFUAAFUAAFggqkAsATg0dlZw4FTOOYgb8rCwDkUJ9joAAKoMCWKwAA1NvBAEC9fUPNUAAFUKB5BQCAersQAKi3b6gZCqAACjSvAABQbxcCAPX2DTVDARRAgeYVAADq7UIAoN6+oWYogAIo0LwCAEC9XQgA1Ns31AwFUAAFmlcAAKi3CwGAevuGmqEACqBA8woAAPV2IQBQb99QMxRAARRoXgEAoN4uBADq7RtqhgIogALNKwAA1NuFAEC9fUPNUAAFUKB5BQCAersQAKi3b6gZCqAACjSvAABQbxcCAPX2DTVDARRAgeYVAADq7UIAoN6+oWYogAIo0LwCAEC9XQgA1Ns31AwFUAAFmlcAAKi3CwGAevuGmqEACqDARhT4BUl/K+ldkj6c+e/ziT85e0rmeuRu1zYczzTufuI35tX6NHf7zXvmwRtuxPGcBAVQAAV2XIELSnpN4iAQM2BQNm2g3VXdXiXph3Y8Nmk+CqAACiymwA9Ieh+Df9In4F0dmDfZ7pMlff9i7ufAKIACKLDDCjyXwZ/Bv3IPPGuH45OmowAKoMAiClxR0hmVJ/9NftrkXHVeojhd0uUWiQAOigIogAI7qsBxDP58+m/EA7+/ozFKs1EABVBgEQXsbms+9aJBCx542iIRwEFRAAVQYEcV+AcAAABqxAPH72iM0mwUQAEUWEQBAIBP/y18+rc6AgCLpAAOigIosKsKAAAAAACwq9FPu1EABXZaAQAAAAAAdjoF0HgUQIFdVQAAAAAAgF2NftqNAiiw0woAAAAAALDTKYDGowAK7KoCAAAAAADsavTTbhRAgZ1WIBUAfkvSZfhDgwQPmHdSoINvAex0qqLxKIACuRVIBYCb5a4Ix9sZBcw7AMDOdDcNRQEUqFUBAKDWntneegEA29u3tAwFUKAhBQCAhjprS6oKAGxJR9IMFECBthUAANruvxZrDwC02GvUGQVQYOsUAAC2rkurbxAAUH0XUUEUQIFdUAAA2IVerquNAEBd/UFtUAAFdlQBAGBHO75gswGAguJzahRAARToFAAAOiV43ZQCAMCmlOY8KIACKBBQAAAIiMOuRRQAABaRlYOiAAqgQJwCAECcXpSerwAAMF9DjoACKIACsxUAAGZLyAEiFQAAIgWjOAqgAAosoQAAsISqHDOkAAAQUod9KIACKLAhBQCADQnNac5UAAA4UwpWUAAFUKCcAgBAOe139cwAwK72PO1GARSoSgEAoKru2InKAAA70c00EgVQoHYFAIDae2j76gcAbF+f0iIUQIEGFQAAGuy0xqsMADTegVQfBVBgOxQAALajH1tqBQDQUm9RVxRAga1VAADY2q6ttmEAQLVdQ8VQAAV2SQEAYJd6u462AgB19AO1QAEU2HEFAIAdN0CB5gMABUTnlCiAAiiwrgAAsK4I/y+tAACwtMIcHwVQAAUcCgAADpEoklUBACCrnBwMBVAABdIUAADSdONd6QoAAOna8U4UQAEUyKYAAJBNSg7kVAAAcApFMRRAARRYUgEAYEl1OfaQAgDAkCpsQwEUQIENK1AjAJxD0g0l3V3S/fjbqAam+Q0kWR8stQAASynLcVEABVAgQoGaAMAGnYdK+rKk7/BXVINT9jz0EElnj/CStygA4FWKciiAAiiwoAK1AMD3733qfxODftFBfwi63ijp/Jn9BwBkFpTDoQAKoECKArUAwCsY/Ksb/DsgeGmKsQLvAQAC4rALBVAABTalQA0AcBMG/2oH/w4CbpzRkABARjE5FAqgAAqkKlADALwEAKgeAE5INdjA+wCAAVHYhAIogAKbVqAGAPg8AFA9AHw2ozEBgIxicigUQAEUSFWgNACcTdIZAED1AGB9ZH2VYwEAcqjIMVAABVBgpgKlAcC+ZtZdZ+a1bi1yfSUQAJgZtLwdBVAABXIoAADUPejWBEUAQI6I4xgogAIoUIkCAAAA4IUMAKCSoKUaKLAJBS4g6ShJx/BXtQZXl3SJvafoHZFgCgAAANhmALCYsNiwGCGP1a2BjTU25rAUVMAC5taS3srNWc1dm/64pD+KfHIbAAAAbCMA2JMl/4+kT3CPSVN57HRJb5F0y8QPNAWHzvZPfS5JqQOCN4lQbvkB56N7/XgVpx1T+9tu5MqxcBPg8n7IFXOtXAIw73+Mgb+pgX/Ioy+QdM4cSYZjTCtgn/yPJ2iaD5oukD4l6eLT3Z4MfKUB4Nt7v1j3CP6SNDDtOp/EvLYAADbd/+nE9sVoQdk0D8Xq9jxHDqNIBgVuQdAkJcVYQ2+y/HMcvmh1BuA0R9soMqyAaZfiwxYA4PmJbUvRg/ek+ShWt5sO25itORX4FwInKSnGmnmT5e162kUnTAIATAi0hbu3FQBsxouHSm1mUN5kHnvdFsZgVU2ya/+p04KbNALnig/u2084DQCYEGgLd28rANyBDzFb9yHGcr6NTdwLsGAiuiyBs5WBY8HzgAnfAAATAm3h7m0FgAeSx7Y2j/3oFsZhNU2y71/y6Xo7NXjYhMsAgAmBtnD3tgKAeZ08tp0a2BjFspACAMB2Bo0lQwBgoaBp+LAAwPbG+7YCEACwYMIBALY3IQAACwZOo4cGALY33gGARoOyZLUBgO1NCABAyciq89wAwPbGOwBQZ8xVXSsAYHsTAgBQdegVqRwAsL3xDgAUCam2TwoAbG9CAADajs0lag8AbG+8AwBLRMyWHzMVAE6VdCJ/G9Hgk4l3OG8rANgDXz7MX5IGqQ/Lqf1JgOb1lAHQYos8thkNbMxI6SMbo1gWUiAVAE5aqD4c9rACD04MnG0FgJQkwnvSkm+n27YCgMUWy2YUsDGj81PMKwCwYP8AAAuKm+nQAEBa4ohJMpQNawwAZArmHT4MAFBh5wMAFXbKWpUAgPDgxOC9vD4AwFpQ8m+0AgBAtGTLvwEAWF7juWcAAJYf4ICIsMYAwNwo5v0AQIUeAAAq7JS1KgEA4cGJwXt5fQCAtaDk32gFAIBoyZZ/AwCwvMZzzwAALD/AARFhjQGAuVHM+wGACj0AAFTYKWtV2lYAOIukbyXeGcyAHR6wc+rzzb3flbC+yrHcLLG/j584eerXAC22WDajAACwGZ2jzgIARMlVpPC2AoCJ+ZHEASHnAMexwjDxoYyuBwAyitnYoQCACjsMAKiwU9aqtM0A8EQAIOm70ZuElsev+XHOvwDAHPXafi8AUGH/AQAVdspalbYZAC7HZYCqAcAu0VxxzY9z/gUA5qjX9nsBgAr7DwCosFPWqrTNAGBNvT+zANVCwH3XvDj3XwBgroLtvh8AqLDvAIAKO2WtStsOAEdI+oO9v9Tn1G9yOnxXznW6pAet+TDHvwBADhXbPAYAUGG/AQAVdspalbYdALrmXl3S8yV9hRmBYjMCpv3zJP141ymZXwGAzII2dDgAIHNn2SenoyXdVNJdE/8ekphs7Ve0Us/J++K0e3FiH71soo/ekXhcS+JLLvaVs4tKugx/G9XANM/1db8xf6QCwNsnvGxeT5mdsdgiH21Gg9RfNbUxKrWPzG82RtpYuTWLNcYE+Vii6VMChfekJZht1G1pANiaQKUhhxRIBYBtjCPatLmc+lFJd9kGEDhS0j8w8CfRPgGXJ+AAgEPjGhucCgAAeWKQXJam4wsk2Rja7PJUBn8G/8IeAACaTR/FKw4ApA1cDPj5dHtS8ShIrMBPcqc0g3/hwd8SEQCQGMC87bveYTDLN5ihZbyW9m2ja7YYi39bQfLHcPGG2zbNAIAWs0cddWYGgPxRQz58Wh3hEFcLeyZ3DeJRh93uBwAgLm4p3SsAAOx27qhl7Phgb8l21r4GAABAFXgAAGgnZ9RWUwAAAKgBAmwsbW6xn+WsQTzqsNv9AAA0lzqqqTAAsNu5o5axw8bS5hYAgOCpIYAAgOZSRzUVBgDIYTXkMACA2QRmUxI9AABUM542VxEAAAAAABLDlhkAgqeG4AEAEgOYt/E1wEToriHut6kOzABgRGYAEj0AADCSpyrADAAfYmoACQAgMfnX0HnUoWwSAQBShz/eBwCUjV1y5/f03ykAsMcHP5k/NFjzwEcSIRAAYCBPVSAVAMyr5DA0WPdA6qPxdwoAvi81WnnfViuQ+qNSAMBW22LRxqUCgHmVBQXWFbCxLWVWAwBYV5L/d04BAGDnurx4gwGA4l2wVRUAABwExAzAVnk+W2MAgGxSciCnAgCAUyiKuRQAAAAAl1EodFgBAOCwJmxZVgEAYFl9d+3oAAAAsGuez9ZeACCblBzIqQAA4BSKYi4FAAAAwGUUCh1WAAA4rAlbllUAAFhW3107OgAAAOya57O1FwDIJiUHcioAADiFophLAQAAAHAZhUKHFQAADmvClmUVAACW1XfXjg4AAAC75vls7QUAsknJgZwKAABOoSjmUgAAAABcRqHQYQUAgMOasGVZBQCAZfXdtaMDAADArnk+W3sBgGxSciCnAgCAUyiKuRQAAAAAl1EodFgBAOCwJmxZVgEAYFl9d+3oAAAAsGuez9ZeACCblBzIqQAA4BSKYi4FAAAAwGUUCh1WAAA4rAlbllUAAFhW3107OgAAAOya57O1FwDIJiUHcioAADiFophLAQAAAHAZhUKHFQAADmvClmUVAACW1XfXjg4AAAC75vls7QUAsknJgZwKAABOoSjmUgAAAABcRqHQYQUAgMOasGVZBQCAZfXdtaMDAADArnk+W3sBgGxSciCnAgCAUyiKuRQAAAoAwPkkPUDS2yWd6jj/dzZQ5quS3iTpnpLO6bLO4UK/IOl4SZ/bQH09mnxb0sckPVnSFQ9Xd/aW2gDghyX9paQPSPpGJX3Q9ZP53Px+f0nnnaG8xc4DK4udro2muWn/F5IuOaONobfWBABX2o+t/5RksdbpUPL1s/s56IYhEQP7LPfdS9KbJX2tkjZZ7Jwo6biZsTPUbADA0ckmUq7lOpI+4zhnySD6iKSjIxp87v2gK1nnqXNbgnqQpCMi2jVVtCYAuLOkr1fuq66PPi3J4iB2+WlJluC749T8akn7TrENdJSvAQAshh5c0aA/5oMXSLLc5F0s5320cn99StK1vQ1ylAMAHB2eCwCuXhFVjgVNt/0USUb4U8vZ9gz5aoeG3XFLvz5kqkER+2sBgDs2pH/X/wYr14rQ+piGYqdro70eG9FGT9EaAOCPGvLbqyRZjppaLi/pi420y2LnmlMNcu4HABydngMA7Bg2PbiaHGpft0sCU5+Y791Ym86Q9BPO4JgqVgMA2FRzK5/81/3+fkme2DpS0oca81nXVpsJuMSUkSL2lwYAgzaLoa59LbzalH5osRz31sba9D4n2ITabfsAAEfHe5LUlNC3dZynxmD6uUDDztrA5YwhTe0+hRxLDQBg15uH2tjKtts4OuJ2jbfxzx1t9BYpDQAvbLAv7JLTWQICX6/BNll83yrQJu8uAMDR+TkA4FmO89SYtB8ZcJJ9GqixzlN1shsePdOCgaZ/d1cNAGCfBKbaW/P+Z06JLOnZjbfxZEcbvUVKAoDFTC03xsV6OjTrZzfOxh6vhvJP95omUA4AcHR+DgCw6fQaTBNbhxMC5vm1RttkGlw80C7vrtIAYFOXtd3tH+svi4up5S0N+8z0sD6aupQ2pUG3vyQA2OWm2P6tpXxopulFjbbrXztTzHgFABydnwMA3u04Ty3BsloPu8FvbLEbnFbLtrR+hbFGRWwvDQBnb1j/zivvceh90ha00/oqx1ISACxmun5r7TV0M2ZLNzGv6v6uDIYCABymBgCGnQYApCVES+I5FgAgTf/VJLqpdQCgbF8BAMMZBwAAAIJUzwzAcODYVmYA5id1ZgDG/TW0hxmANM8BAENu4lsAwcGv+3TADMCweZgBSEtGzAD0ugEAw7E1thUA6L3T5WfPKwAw7ChmAJgBCEIQMwDDgWNbmQFIS8arCRsAGPfX0B4AIM1zAMCQm5gBCA5+XaJiBmDYPMwApCUjZgB63QCA4dga2woA9N7p8rPnFQAYdhQzAMwABCGIGYDhwLGtzACkJePVhA0AjPtraA8AkOY5AGDITcwABAe/LlGVnAG46nC/RW+9vgN0uvauvi4BAE+Jrv34G+whK6v19a7v8tcATxuXM3nPVRL7YUkAOCq5NeNvNO28Hlstt8vfAsj5ICTLHau6eteXAADLqTkW+xEibztWy/E1wEj1v5koNAAwLHTqJQAAYFjP2K2pXwMEAGKV7ssDAPGDFQDQ+2doDQAYUmWBbQBAfPAyAzBuxFYvAQAA4306tQcAiM8hAEDYVQBAWJ9sewGA+OAFAMbtBwD02nAJIBxbXALovTJnjUsAvc+4BBDpJACgN8/qtaTQOgAwbjIAoNcGAAjHFgDQe2XOGgDQ+wwAiHQSANCbJzTor+4DAMZNBgD02gAA4dgCAHqvzFkDAHqfAQCRTgIAevOsDvKhdQBg3GQAQK8NABCOLQCg98qcNQCg9xkAEOkkAKA3T2jQX90HAIybDADotQEAwrEFAPRembMGAPQ+AwAinQQA9OZZHeRD6wDAuMkAgF4bACAcWwBA75U5awBA7zMAINJJAEBvntCgv7oPABg3GQDQawMAhGMLAOi9MmcNAOh9BgBEOgkA6M2zOsiH1gGAcZMBAL02AEA4tgCA3itz1gCA3mcAQKSTAIDePKFBf3UfADBuMgCg1wYACMcWANB7Zc4aAND7DACIdBIA0JtndZAPrQMA4yYDAHptAIBwbAEAvVfmrAEAvc8AgEgnAQC9eUKD/uo+AGDcZABArw0AEI4tAKD3ypw1AKD3GQAQ6SQAoDfP6iAfWgcAxk0GAPTaAADh2AIAeq/MWQMAep8BAJFOAgB684QG/dV9AMC4yQCAXhsAIBxbAEDvlTlrAEDvMwAg0kkAQG+e1UE+tA4AjJsMAOi1AQDCsQUA9F6ZswYA9D4DACKdBAD05gkN+qv7AIBxkwEAvTYAQDi2AIDeK3PWAIDeZwBApJNaBIBHSbpfhr+nqjfO6gA/tb4EALw1Q3s6TT6X2K4rRHpnqDgA0KsCAITja5cBwGK0i9e5r5Y7pnLW0P5je6seWrMcN/SeqW2WU+e2x97/V4nnBwAOdWV4Q4sAMGXCpfcvAQBL19lzfAAgHCuxewGA8CCyywDgicelyywBAEvXeer4AEBklgIAwklqyHAAwLjJWp0B+IakYzL/3TrxU8x7xuU9c89Jice+VeY2mmam3VCcTG0DANJ0m9LVux8AODOcDqx8X6KfbSxtbgEA4oMQABi3easA4E2amyi3JABsov7ecwAA8bnHq62nHAAwnMcAAAcBmUhzl3c7zuMx8qbLAADjPQ8AzE/qAMC4v4b23Cwxj5hX5y522WzT+SfX+QCA4d4HABymBgCGzWNBlStAN32cXb4HYNNah84HAAzH1thWACAt5wAAw44CAByDGAAwbB4AIC0ZWRLPsdi0cmhwbWEfABDnBAAgzfMAwLDPAABHEs0BAO9wnKfGhP3KYd98d+udG22T6fxjgXZ5d3EJIC0Zr/ocAPC67XvlSgKAxcxq37W0brlqbLEc11Jburq+faxBEdsBAEfn5wCAVk329ICZfsmhXWfW2l7PG2iXdxcAMD9xAgBet32vXEkAOH/D8X6jgMzPaLRdrwi0ybsLAHB0fg4AeIjjPLUNklafuwecdCFJpzfYrvcG2hSzCwAAALwxuw3fArDY+I8G4/3bki4YCOz/1WCbzHcPDrTJuwsAcHR+DgCw6bNvOc7lTSibKPflicAxk720sTaZbvfxRsdEudIAYNX7WoP6r3r3dRMa2+5/abyNX3W00Vuk5AyA1fG+DfbFiyfEtQ8yX2msXfaV9h+daJdnNwDg6PgcAGCd8UjHuVaTY+n1ezscdKW9AdUSXOm6es9vn2DO6WiXp0gNAPC2hrQf6qPHO4R+UuNttMfX5lpKA4DFzvsa6g8b2D3f+GkNbB6RyVAAgMPMuQDgbJJSB42h5LnkNku6RzhN9st7nwxOdei4ZH09x/6YpMs62+QpltqXlsRzLcc1oHuob/6nQ4gbNN5GG1xyLaUBwNphs5n/2UCf2OzYjZ3CW65L/aGhkL+X2PcCSWd1tmuqGADgMHIuALDOOIuk35X0347zLmGeqWN+ci+47zTlmoH9V6t4qtbuU/g7STbVl3OpAQDsZsZPVeqlKa+9NqIz7FLB1PFq3G/xdJ6Idk4VrQEArI4WS3aDcK33AL1e0tFTYg7s/82K4+kLku4R8cFsoHmHNgEAjsSSEwC6HjiHpF/chwGbzin593BJ95R0PUk2SzFnsem2u+2Z9KGF22R6PkjS7SRdeE6DAu+tAQCsetduZAZmdYD+uKSLBrRd33VxSZ9wxOrqOUqv2yfQn1pvyMz/awGArhkWW7ffj7WSOczObTnnrpIu31Uu8dXyveVCy4mWG0u3yz4w/sJeXXLdSLoqCwDgSCpLAMBqJ7DepgK1AICpd42Grs2+JnLw79xhEPDPjngtPfDb+U+WdPWu4hlfawOAjE3jUAUUAAAcCQUAKODMBk5ZEwCYXDZ7Y7+AZ99r/te9658nVvRnU/iPk/RzGfrV7huwmwftmDW10TS3afFbZphJG5MJABhThu0pCgAAAECKb3jPjBs6LYmzoECKAgBAimq8Z0wBAAAAGPMG2ycUqG0GYKK67N4CBQCALejEipoAAAAAFdmxraoAAG311zbUFgDYhl6spw0AAABQjxsbqwkA0FiHbUF1AYAt6MSKmgAAFAIAeza1fd/+z/fuiH5yBX/2VZdfk/T9M8xpD6ewG7T+YO97wk+ooE2P2X/s71VmtCn0VgAgpA77llCgNgC46n6MWayVzmOWcyz32I2mcx6Uc4H9rw9bTizdJju/jRG/4Xgse4rfAIANA4B9l/PPJH3dcd4SX2eyR2c+MCGArl/519D+MdOzs1eDDABYVYP1TShQCwDYEzVfXWkO676Gad/lj1kMGuzZIbX+LoCNGQYlR8Y0aqIsAOAwsYmUY7HnaNsTqkoM7LHnPCECAoxO7Re3Ys+x6fL2JK2c380GAHJEBceIUaAGADim4ieZruYU+/G1OzrFta/QvqiBHGbts2dh2IPkciwAgKPTcwHAXzvOtWrg0ut/7HDYNSXZL1OVrqv3/PYEuvM52uUpAgB4VKJMTgVKA8D5Jf1XQ/H+jf2HZE31gT3xz5tDaihnv1uQYwEAHB2fAwDsWlmtz80eM/Rpki4x4bJWnsy22saHTLTJu7s2ALCpQXv08XMkvbmyh+S8Yf/HVn7eK26gnD0W9al7j2u1Y9b0ICDT3LS3PsiRM4YkKA0AD3Pky9VYq2F96jcnLinJcl0NdfXWwcaSKw8ZJHIbAODo+BzBbNduvJ1bU7l7BQxlcHBGg+36YKBNMbtqAoBr7T2T/UON9MW/OMByqB8sUdvT9mqKj7G6mMdsdiz3UhoAPtyI/qv9YjnqYoGO+L0G22Tt88zQBpr93V0AgKPzcwBAzTfMrAbL+vozAw66iUO79ePV8v+cbzt0ktQCANet+KbSsf62aWR7tr93scHffllv7Hg1brebtq7jbaCzXEkAsLvja9TZUyf7yfKx5e8bbdcrxxoUsR0AcHR+DgB4p+M8HiNvuozdPT+22E9nbro+uc53ubFGRWyvAQDsfobPNNoP9ix/72LT/bn6fpPH+bQk+8nmXEtJALCY2aR2Oc9luWpssRyX81ybOtY7xhoUsR0AcHR+DgB4t+M8mzJOzHls5mJsObbRNln77WeL5y41AMADGu4D6wf7+ujUYvcNxHi2trLHTTUwYn9JALCYqU1bb30sV40trc7OvmusQRHbAQCHqQGAYUcBAGkJ0ZJ4rsVugvMmwRrLPdEhhN3xXGPdvXV6m6ON3iIAQJoXAIBhhwEAjuQCAAybBwBIS0Y5AeBrDv96B6oS5TyXAVqd/u/0tD7KtQAAaTEHAAw7EABwJFAAYNg8AEBaMsoFAPZUyW6QafX1PcPWOrD1pC1op/VVjgUASPM8ADDsPgDAkVwAgGHzAABpyQgA6HUDAIZja2z1tEhLAAAgAElEQVQrANB7JwZ6AYBhRwEAAEDwUyQ3AQ4Hjm0tfRMgMwBpg0HMwJGrLDMAZfsKABjOYwBA5QDwUEl3zfD3KEc7h5LdEgBg13RztMmOYV+zGqr31LZt+BYAAJDW91PeWGL/LgOAxWiueE+9H2QJALCcmqNdqU9X5FsAw1AzujX1mfUlLwHYI4RzLPZ1q5TEtgQA5HqOtelycmK7AIA0P6R4KPQeLgHERXeLlwAsRnMtqd8IWQIAPF9h9bT76MQcBgB41F0pAwDEJ30AYMVAa6tcAoj30zoMAABrppr4FwBI8xwAMGwsLgE46IsZgGHzWFCtJ3TP/8wADOsZu5VLAGn+83g0d5ldvgTADEA4spkBCOuTbS8zAPEJkxmAcfu1OgNgP5Fqv+me8+/WiTC45AzArTK30fQy7VLgAAAYj6OYPVwC6P3HJYAY58z43XpmAIaFZgagD8aYQaH01wDtp09zL1dJHBiXBICjcjdyxs/GAgB5OgMA6HMOABDpKWYAevN4ByxmAMZN1uoMAAAw3qdTe1J/Nx4AmFLWtx8A6HM4AODzzJmlAIDePADAmbZIXgEAeumYAQjHFgDQe2XOGgDQ+wwAiHQSANCbBwCINM9AcQCgFwUACMcWANB7Zc4aAND7DACIdBIA0JsHAIg0z0BxAKAXBQAIxxYA0HtlzhoA0PsMAIh0EgDQmwcAiDTPQHEAoBcFAAjHFgDQe2XOGgDQ+wwAiHQSANCbBwCINM9AcQCgFwUACMcWANB7Zc4aAND7DACIdBIA0JsHAIg0z0BxAKAXBQAIxxYA0HtlzhoA0PsMAIh0EgDQmwcAiDTPQHEAoBcFAAjHFgDQe2XOGgDQ+wwAiHQSANCbBwCINM9AcQCgFwUACMcWANB7Zc4aAND7DACIdBIA0JsHAIg0z0BxAKAXBQAIxxYA0HtlzhoA0PsMAIh0EgDQmwcAiDTPQHEAoBcFAAjHFgDQe2XOGgDQ+wwAiHQSANCbBwCINM9AcQCgFwUACMcWANB7Zc4aAND7DACIdFKLAHAdSRfI8HfTxB9rWeK3AJ6eoT2dJh9IbNcVIr0zVBwA6FUBAPrEPATXuwwAFqNdvM59tdwxpO/UNvvhsrHFctzU+4f2W06d2x57/3UTzw8AjPXoyPYWAWDIeJvctgQAbLL+Y+cCAEaCJHEzABAeRHYZAMZicJPblwCATdZ/6FwAQGSyAgDCSWrIZADAuMmYAei1AQDCsQUAhPUZyj05twEAfayurtlP3afobGNpcwsAEN/ZAMC4zQGAXhsAIBxbAEBYn5RBKOY9AEAfq6trAICDgEykucu7HeeJMfSmygIA4z0PAPTaAADhAQ4ACOuzdD4DAPpYXV0DABwDMwCwapl+3YJq6cBd6vjcA9D3Y441ACAcCwBAWJ+l4rw7LgAwHOUAgGMQAwCGzQMApCW1mw3LGb3VBpUuwcW8nhZ9puk3AADhvgAAwvrE+DelLAAwHMMAgCOJAgDD5gEA0pJaaQBISaBLvec9w9Y6sPUkR4wuVb9cxwUA0mIll/4AwIGQOvMfAMCRXHIAwBsc58ll9pzHecGZVjm8cqtG22T6XPhwc6K3tHoPQE5/zD0WABBnO4PHFM3Nq3OXiyaeO6W+ud9zi0DjU+M4dx1jj/e6QJu8uwAAh6lzAMDfOM4Ta4BNlP+TgJN+vNE2/T9JZwm0y7srNXEwA9APYgCA123fK1cSAM4q6ZRGY/5qAZkf0Wibnhpok3cXAODo/BwA8CuO82xiQI89x7UCTjpC0n822K5nBtoUswsA6AfyWF915QGAGMdJJQHAavr3Dcb7RyVZrhpbfqrBNln83HisQRHbAQBH5+cAAPvE+U7HubrEWMPrKx1GuktjbfqWpCs62uUpAgAAAN443YZ7ACwmrizJYsjb7hrK3dkRzPZ15xrq6q3DiRNQ42jyd4sAAI6OzwEAprZ99exLjvN5TbBkuU9KurjDRUbWz2ukTabX7zja5C0CAMxPmswAeN32vXKlZwCsFvdoKN6f6xwoLyHJct6SOTXXsb8o6XJxthktDQA4Oj0XAFgvGEGf7DhnLrOkHOdtkn5k1DKHd5g+j5V0esXt+qokzyeBw60b3wIAzE+YAMC4v4b21AAAVi+b+bOYSskvm3iP5aJHS4rJ3Zbz7JP1JuqXeo7/kHSlIWMkbgMAHB0eYyJPP9jx7iTp5ZLs+pQRXem/D0l64R6c3HrGDXJ2o83jJNlTDz9XQZs+JenNex3yEEkX8XRMZJnSAGCzL99w+Dc12WzifW90aG59uIm6LHUOe+5C6Bq0Q4Izi9QCAFYh+1bAQ/djzGKtdA6znGO5xz6MHH2mYnErdqn2Nvu58IMVtMk0/Yikl+6NFXeUdLa45kyWBgAcySU3AEz2CgWaUKA0AJhI73P4d6mBLcdxn+Ho6RZvPFvVxj615VpqAoBcbeI45RQAABwJFAAoZ9Caz1wDADzS4d/Vwai2dXuWxNRy28bb+GdTDYzYDwBEiEXRSQUAAEdyAQAmfbSTBWoAALt56VSHh2sb+K0+di+MZ0rT4u8Djbbxa5IuljE6AICMYnKo794jkZIb+DlgzLPzCtQAANYJv97g4GjQ8hMRDrq6JBtMU5JVyffkvvEUAIgwDUUnFWAGwJFUmAGY9NFOFqgFAEx8u0GolQHSvm5lD1+JXa4tyW42Kzmge89tfWFglnsBAHIrutvHAwAcCQUA2O0gGWt9TQBgdbTnNtj1ZrvpzO489w5WmyhnXxl7yx6k/L6kc48J6th+nr1LHvfdP1ZtX0Mzzf9d0p9mnvZflQUAWFWD9bkKAACORLkUANhxL7n3FY9jCv/Z9KoNHvas7xzLD0o6qnCbTFN78NKcwWZKi9oAYKq+7G9fgRoBwGLMYq10HrOcY7knx2K50HKi5cbS7bIxYskxKOUDAPcAzHCZPcXJvv5kP0qTIv5S7/n83q/kPXEfSmKbZ486vdf+J6Cl6pdy3G9Ler2km8Q2yFEeAHCIRJGsCtQEAPb7JhZbFmMpsbnUe96798TVe0o6MkF5G2yftPfE0C9U1iYbK/5O0mUT2hR6CzMAjo7OSV93qHB6dj0Qvxz5QxNGyu9w6Lh+nk3/bz8ClOuZ7BZUAEAotbBvCQVqAACLoRaezWBP9bPc5F1+WdJXKs9jX5d0O2+DHOUAAEeH5wKAm1b+uNzVAdmeMHcdh4HOK+kkh4arxy65/nRHm7xFAACvUpTLpUANAGAgXTKGY85tj5q2+0amlp9u6Kma9phjg5UcCwDgMHMOADATfsZxrhhzL132/Y5rT3bD09L1yH38X8wROcwAZFKRw8QoUBoAbODJHY9LH+9PJgS2/N7acyY+K8k+fM1dAACHoXMAwF0d51k6EFKOH7p2blOBdrkg5bgl3/OquVGz/35mADIJyWHcCpQGgNc0GO+nTNwPYDOzJfNR6rl/0+2a8YIAgKPzcwDA8Y7zpBphyffZj/uMLT/TaJvs8kbKDULrOgAA64rw/9IKlAQAA367+3vJfLPUsa8b6JgnNNom+xn2uQsA4Oj8HADwVsd5ljL/nOO+JOCw2zfaJtPjUoF2eXcBAF6lKJdLgZIAYDEzJ5eUfK/lqrHFfmmvZN1Sz22/kjl3AQAcnZ8DAOxnKlM7uuT7Xh1w2LGNtsn0tO8tz11qBIAr7v1O+332f5b5yXs/2VrL319JulumB+TYs/XvLsmOWUv7rB42W2ba5/DWmDdLAoC1q2QumnNuy1Vji+W4Occu9d53jTUoYjsA4Oh8AGDYUQBAWuKwJJ57sd9mP8Hh5VLJqjuvXX55lKRzJAhwTkmPaWQa+oV73ye/SEIbp94CAKTFHAAw7CwAwJE0AYBh8wAAackoNwBcRtInHD7uBuEaXt+499jicw3banCrPW3uTY218eOSLj3YmvSNAEBazAEAw54DABxJBQAYNg8AkJaMcgKAedO+61zDoB5bB3uymXdp6bvnqzrYNK3nJ4+9OgAAaV4HAIYdBgA4kicAMGweACAtGeUEgLs4/Ls6INW0fsbeZYujh611YKs9j93K1lT3mLrk/ElgACDNBwDAgZA68x8AwJFYAIAz/XJgBQBIS0Y5AeCfHP6NGaw2XdYeJDW1PLLxNtp353MtAEBazAEAww4EABzJpSQA2M+L2jOt5/6lPulqiW8B2I8OzW1P9357NnbKoJXjTu0avgVQ2w9KxfZFyF9dynptYh/H1mWp8l/qGpLhtUUAsBjt4nXuq+WOlH5aAgAsp85tj73fcnxKm/gWQGRApT7EoiQAXDWyjWPFr59oslCCTp0BeMpYJRO2n5zYrm0AgFR6T0k2S73Hk8RavcdhVbMcOcTCo0UAsBjNtVjuWNXVu74EAFhOzbHYZTBvO1bLeWJnqn6pOYSfA55Sdm1/6nMAAIA1Idf+3WUAsCezrSaEFtdtcJ9aWvqxqbE+sL7KsQAAaZ4HAIbdBwA4kmgOegcA+sBlBmA4GGO3AgC9p8YG3lq2AwCx7h4uzwxA73lmAIY9MrqVSwC9ebyJkUsAo3ZS6XsAAIB4P3t9n7scADAeRzF7AIDe8wBAjHNmPEGMGYBhobkHoA/GmAHDpnFzLABAmv4xfZWrLACQw/ESANB7HgCI9BQzAL15vImNGYBxkzEDEO+ndd9xD8C4v4b2cA9Amue4B2DITRL3AHAPQPBGMgBgOHBsKwCQloxXIQAAGPfX0B4AIM1zAMCQmwCA4ODXJSouAQybh0sAacmo9CWAb0m6a+a/hzpAuoun1dclAeAhmdtompl2q/X3rnMJYDiHxG7lEkDvPy4BRLqHSwC9ebyJixmAcZO1OgNw2niTkvdcJXFgXBIAjkpuzfgbTTtv7KyWAwDGNY3ZAwD0/gMAYpzDTYBJiQsAGDcZANBrAwD0iXl14O/WAYDeK3PWAIDeZwBApJOYAejN0yWmqVcAYNxkAECvDQAQji0AoPfKnDUAoPcZABDpJACgN8/UwN/tBwDGTQYA9NoAAOHYAgB6r8xZAwB6nwEAkU4CAHrzdAP81CsAMG4yAKDXBgAIxxYA0HtlzhoA0PsMAIh0EgDQm2dq4O/2AwDjJgMAem0AgHBsAQC9V+asAQC9zwCASCcBAL15ugF+6hUAGDcZANBrAwCEYwsA6L0yZw0A6H0GAEQ6CQDozTM18Hf7AYBxkwEAvTYAQDi2AIDeK3PWAIDeZwBApJMAgN483QA/9QoAjJsMAOi1AQDCsQUA9F6ZswYA9D4DACKdBAD05pka+Lv9AMC4yQCAXhsAIBxbAEDvlTlrAEDvMwAg0kktAsALJD05w9/LEp9gtgQAfFjS8zP9fTmxXVeI9M5QcQCgVwUA6BNzB8+rr7sMAF/KkL+6HHhyYrwv8VsAr8+Uw16V2CYAoM8/rrUWAWA1iZRYXwIASrRj/ZwAgCtk3IUAAABgPcZq+n8JACjdPgDAnZ6+VxAACCepIUMDAOMmYwag1wYACMfWLs8ADOWVTW8DAPpYXV3j54Ad0y8lfw1w04Gyfj4AYDVcDq4DAL0eAAAAsJ47avofAOhjdXUNAAAAgj8SBACshsvBdQCg1wMAAABqGvDX6wIA9LG6ugYAAAAAwGpERKwDAL1YAAAAsD7o1vQ/ANDH6uoaAAAAAACrERGxDgD0YgEAAEBNA/56XQCAPlZX1wCADQHAiY7zrJu2hv9fseqWtfU7Ntom0/Uya21J+RcA6FUDALYfAH604Xi3XDW2WI6rIdfG1uFtYw2K2A4AODrfRJq7vNRxnlgDbKL8UwMNv2GjbTpd0jkD7fLuAgB6pQCA8CCyDd8COLekMxqN+Rv0Vj209teNtulFh1oSvwEAcHR+DgC4j+M8mxjQY89xu4CnziPptAbb9eZAm2J2AQC9WgDA9gOA9fa/NRjvlqPO21v10NodGmyT5fF7HWpJ/AYAwNH5OQDgIpK+6jhX7AC9ZPlPS7JBPrT8bWNtMr1+I9SgiH2tAoB9irNLUjn//j3RB+9x6H1S4rGtTjnbaMdK/QS8DTMA1lV3TuyLJfPU1LHtE35oMTj4bGPtsiegXijUKOc+AMDR8TkAwPrjno5zTZl5U/st0d3aYaKLSTJQ2FS95p7nnyWd1dEuT5FWAWCuhjnfvyQA5Kzn3GNtCwBY7NgjcOfqsan3f2rvMcQXdQTzbRtqk2n32442eYoAAI6OzwUA1iEPd5xvU8Exdp5vS/o9j3v2yxwjyQJt7Hi1bLep/x+KaNdUUQBgfp8DAFMuO7j/ZolxZl7NtVgMvSWxHpvMBZ+UdPWIRt9bkt0ftMk6xp7LPpj9cUSbpooCAI4OzwkA1iG/KOntjvPGmmNueTPXGyRdZ8o1A/vtEof9UtepFbbLpveO24OvXJ/CuuYDAPOTJQDQucn3WgMAWE3PIekBkj5XYbxbDrIfD7KcFLtcdz8Hpl7qmZuDQ++3u/5/PrZBE+UBAIeBcwNA1yeX3rtGeWNJv7n3CfquBf/sut6NJF28q9iM13NJsiC6ZQV/vyrpGhmn/NdlAQAAgFDCXt2XCz5rAYAuFuySwE9IukXB/NXlzttL+mlJloPmLpYL7YNaDXnslyRdam6DRt4PABQEgJE+YXMjCgAAAMDqIB9a31YAaCRUqeaIAgAAADBiDTZPKQAAAAChQX91HwAwFU3sL6EAAAAAlPDdVpyzNADY9KvdsLk60LS2bt8rn1rs2mdr7Vqt77cknWWqkc79tV0CcFabYpUqAAA4kouJxIIC6wqUBgCrz8cd/l0djGpbP35d1IH/T2i8jR8baFPqJgAgVTneN6QAAOBILgDAkHXYVgMA/I3Dv7UN+qv1ubvDRvad59X3tLb+NEcbvUUAAK9SlPMoAAA4kgsA4LHS7pWpAQCu2sB3l8cGbPsK2fkctmnxSW1dm+175VdztNFbBADwKkU5jwIAQCEAuObeD9L86d6DKl4i6dUV/L147zrlwyTZM91Tlx/ce6Tmb0l6dgXtMU1fKck+fdlXeZaAuBoAwPrqEQ4PdwNSLa/2PeubRxjtVjMew1uyzX8S0UZP0ZoA4EhJ1i/2qF2LtRrymOUem1X6AY+YI2UMqv9IkuXEGtpkY4TFuH3dMvcCADiSZ87Bw56iZR1aMimFzm2J+ZmO3wBYN6IN/P+v4nZ9aP87wuv1nvN/LQBgN5g9umLt1/32DUl3SRDevu/9zYba+aiMN/91ctUCAD8j6cMV98WX9h5RfrdONOerzTQ9q3LQtF8AtA9auRYAwGHiXABwQUkfdJxvPWGW+N+eVDj1Q0CdCY2WS9Qx9pw28NhDNXIttQBA157r7z3F8TWS7K7zWG02Ud5+DOu5kq7UVTjh9cqSnifpa5W20bS3PrheQts8b6kBAOzhZRZLm/DM3HPYrKZnscH/HY206QMZH2kOADg6PRcA/F/HueYaPuf77Zf+phYbUHOec+ljnbL3yGL7AaMcS20A0LXJktlRkuw3Gmr5u4IkmzLOtdix7Ji1tM/qYXBi2i+5lAYAe0Ke/RLd0nGa6/g2o2lP9JtantFQm0ybl001yLkfAHB0fA4AsEdU5jL1po5jNzBZkg0t72qwXY8JNShiX60AENEEijamQGkAeFyD8W6f7EOLzUjV/iNAQzn/2qFGOfcBAA5D5wCAxzrOM9TJpbc9MGCkyzfaJvvlwiMC7fLuAgC8SlEulwIlAcBi5jONxvyPBTrgwY226a8CbfLuAgAcnZ8DAF7nOE/pwX7o/HbNdmyxu7iH3tPCthw/CwwAjDmD7UspUBIALtRwvNsPg40tz2+0Xa8da1DEdgDA0fk5AODdjvPUOHDa12DGFruTu8Y6e+pksxdzFwBgroK8P1aBkgDQ6oyf5YPQt04sx3lyRm1l3hlrnoHyAICj8wGAAedIOtahXW1B09Vn6t6G4RYf3AoAHNSD/5ZXoCQAWMx08dPaq+WqsaVVALD7r+YuAIDD1ADAsM0AgLSEaEmcBQVSFAAA0mIOABh2GwAAAASpPnQJAABIS0YAwHAyYuu0AgBAWswBAMPeAgAAAABgODYmt3IJYFIiCmRWAAAAALrLL1wCiAyu1MeIcglgWGhmANKSETMAw35i67QCAEBazDEDMOwtZgCYAWAGYDg2JrcyAzApEQUyKwAAAADMACQGVYszAPYDKPaM97l/93WATmes1dcl7gF4eYb2dHp8PLFdfAsgMYh4W1EFWgQAi9EuXue+Wu5YzU/e9SVmACynzm2Pvd9yvLcdq+W4BBAZii0CgP00ZY7FjLZqHu/6EgDwlBwN2j/GyYntAgAydgKH2pgCLQKAxWiuxXKHN3etllsCACyn5liOTmwTABCpPgAQHzwAwLjJuAQwrg17llEAAIjPYQYCAMCwH7kHwEFfJW8CZAZg2LjdVmYAOiV43QUFAAAAoJvZYAYgMuKZAYgPHmYAxk3GDMC4NuxZRgEAID6HMQMw7kVmAJgBCF5TAwDGgwcAGNeGPcsoAAAAAMwAJMYWMwDxwQMAjJsNABjXhj3LKAAAxOcwZgDGvcgMADMAzACMx0dwDwAQlIedCygAAAAAzAAkBhYzAPHBwwzAuNkAgHFt2LOMAgBAfA5jBmDci8wAMAPADMB4fAT3AABBedi5gAIAAADADEBiYDEDEB88zACMmw0AGNeGPcsoAADE5zBmAMa9yAwAMwDMAIzHR3APABCUh50LKAAAAADMACQGFjMA8cHDDMC42QCAcW3Ys4wCAEB8DmMGYNyLzAAwA8AMwHh8BPcAAEF52LmAAgAAAMAMQGJgMQMQHzzMAIybDQAY14Y9yygAAMTnMGYAxr3IDAAzAMwAjMdHcA8AEJSHnQsoAAAAAMwAJAYWMwDxwcMMwLjZAIBxbdizjAIAQHwOYwZg3IvMADADwAzAeHwE9wAAQXnYuYACAAAAwAxAYmC1OANwG0nHZPj7LQfodMZafV1iBuCEDO3pNPloYruukOih1bcBAKtqsL4JBVoEAIvRLl7nvlruWM1P3vVjA51jOc57nNVyllPntsfebzl+9bjedX4OONCpQ7taBACvGZYqtwQALFXXmOMCAEMRwrbaFWgRAGLicqmySwDAUnX1HhcAiIxWACCeNAGAcZMxAzCuDXuWUQAAiM9hNqACAMN+5B4Ax/SLiTR3ebfjPF7y22Q5AGC85wGAcW3Ys4wCAAAA0OV/ZgAiY4wZgPjgAQDGTQYAjGvDnmUUAADicxgzAONeZAbA8cmcGYBhA9m0Wkejrb1yD8Bwn7K1bgUAgLScwyWAYV8DAI5BDAAYNg8AkJaMLImzoECKAgBAWswBAMNuAwAAgOCn+NAlgLs4tKt1ZuDyw/EQtZVLAFFyUTiDAiUBwGKm1nieqpflqrHFctzU+2vczz0AYz06sr3kPQD/3KjJnjOipW2+eaNtsmD+wUC7vLsAAK9SlMulQEkAuFDD8X7TQAc8r9F2vSbQJu8uZgAcnZ/jEsDjHOepkTIfFHCSXUevsc5Tdfq0pCMC7fLuAgC8SlEulwIlAcBi5jONxvzlAh3wB4226dGBNnl3AQCOzs8BAD/rOM/UwLXp/adLuuKEk97TYLseO9Em724AwKsU5XIpUBIArA2PbzDep6bKryzpjAbbdZ0MpgIAHB2fAwCsr17lONemB/nQ+Z7uMNgvN9amL0u6mKNdniIAgEclyuRUoDQAXELSVxqL+Rs5OuCZjbXp5Y42eYoAAI6OzwUAF5b0Ycf5QoPypvYZNZ/X4yBJD2+kTXYPiAFLrgUAyKUkx/EqUBoArJ43kZR6P9Wm8ld3nj92Cmu5znJe976aXz+0NxNzQWe7pooBAI5OzwUA1hl2I43RW60Gs6mwZ0s635Rz1vb/tqRTKm7XRyTZZZicCwCQU02O5VGgBgCwev6cpNQf4tpE7rNcZD/WE7NYzrObnmu+HPBSST8U06iJsgCAY9DKCQBdf/yPvUH2LyW9QtKJhf/eJull+5/kr9ZVMOHVqPR/S3qBpDcWbpNp+npJfyfptpKOTGjP1FsAgCmF2J9bgVoAwNp1dkm/th9jFmul85jlHMs9vzPzE/KPS3rEfk603Fi6XTZG/IWkn8ptJkkAQCEAWKAvOeSGFdhFALBrwHeQ9Mj9BGnJ8QP7l7bs8lZtf1Y3q6N9crI6W92tDa0uNQFAqxpS714BAAAA6N3AWpQCuwIAF5V0X0nvdcTKJqZ3c5zjpP02WdtaWgCAlnqr/roCAI6ktsQlgPqtQQ2nFNh2ALiUpCdJOs0RIzkG5RLHsLY9UdIPT3V2JfsBgEo6YkuqAQA4khsAsCVuz9yMbQUA8/v9JX3NERslBu0lzvnVPdA5bv+aaGabZD0cAJBVzp0/GADgSHIAwM7HyaAA2wgAl9y/gXOJQbaFY/6bpEsP9nYdGwGAOvphW2oBAAAA2+Lljbdj2wDA7jL+giMeWhjI59TRNPjJjbvJd0IAwKcTpXwKAACOhLfUDIDdjXxDSbes4O96e9d7L+LzTLDUOfeeeGhfcbREVbpd9sAS+1rjWYI1Tt+5TQBwfUk2DT5n4Nym95oWFhO1LbUBgMWWfW3OYq10vJs2lnvOkaHT7OZQi4nSbbLz//yC31wBABxJLzcA2KD/Fsd5N51Q7dn//5T4fVN7yqHdTFXjIGI//mN3sdv3lnMu2wIA12zw8a6biA175O01chomw7FqAQCLpftJstjaRF/EnMNy0BP2H7oWK/m19x4Y9rpKHwZkY8YNYhs0UR4AcBg4JwA8rFJzrQbYtyXdY8I4q7vtE8AnHTqunqPEuj0o5AdWKz5zfRsAwD7ptPoLb5vwkA1wOWbGZlrtzLfXAAD2U9pvaiDe/2t/BvBM8SZW7iXJct8mfJV6DntK4UMn2hGzGwBwdHguALAnVKV2/KbfZ0az6aepxQaQTzXULpvhyHVJoHUAMB1Mj017q7XzvTajZ6biaWp/aQA46/4n5Fb60D6YeJ7d+rgAABCDSURBVADuNg18MFvVPPYxx2O+AgAcCTAHANgUeWu/omUD+7nHnLO//W8c+q0at4Z1expcjqV1ALh7g31Xyj93zWGYDMcoDQB3atAzT53Q/TwNzoLZr5rm+EEgAMBh6BwAcG/HeUolt9B5bxcIHvsFrRYfEvPmQJtidrUMADaN+8VGPRny61L77JsBF4gxx0JlSwPAWxv0zNf3HgNtg/zY8usNtsl8bpcs5i4AgKPzcwDASxznWSp5zTluiJ7tZsY5xy71XrvZ0b6tMHdpGQDsOmIp/Vs97x/ONUyG95cEgHM1Nk2+6jO7o39seVqjsfCisQZFbAcAHJ2fAwDsB0lWDdnKuv108dhyx0bbZNpfZqxREdtbBQBL5Hz6j4/H/5Zk2pVcSgKAxUwreWu9nparxhb7tb318i38bw+tmrsAAI7OzwEA73acp0bTvTrgsGMbbZPpfIVAu7y7WgUAu6wz12v2mOC/lnRzSVfdByobIGr7s7rdYu9Z/3avyqkZ2m0/LV1yKQkAFjNzfVPq/ZarxhbLcaXqNee87xprUMR2AMDR+QDAsKMAgLTEYUm85DL3E8+LJV28ZAMSz20P3pp7Kc5+VrjkAgCkxRwAMOxaAAAACNIvMwDDgWNbW5wBOHLmj/w8rqKvxI33zPge++qjPSQm9ZOXfZMnxweC8RqG9wAAaX0HAAz7CgBwJIMcAc8lgLTATU3UU+/b1UsA13H4fUw7g0H7Hnjri7VhzvMP7DcTSi0AQFoeAQCGHQsAOBIiADBsHi4BpCWjkpcA7ubw+xAA2BPSrjhsgya3HjXjqW+hwWRpMQCAtJgL9Rn3AMRr+s2ljb7E8a3SQ8ltahsAMNwbAECan0oCwF8mxkDoUtCwO+rfmjoL8MiCTQMA0mIOABg2LTMAjoRYEgD+UdLzM/y93tHOIRAKJf5UAPhwhvZ0mtgTsYbqPbVtVy8BPCNRr98fzh9Nbz0uUYunF2x1iwBgMdrF69xXyx1TsT20fwkAsJw6tz32/lcltolvAUQGYoszAPY1phyLPQhjKDCmti0BAE/J0aD9Y5yc2K5dBYATEvW6VcY+q+VQ9pW+Kf8P7X9hwQa0CAAWo7kWyx1DfTK1bQkACD1cKKa9Rye2CQCIUVkSABAfPADAuMla/BaAPdhpKlkO7b/RuAzN7vmlRC1CD8daWgwAIM2/AMCwM7kE4EgCJS8BMAMwbNxuKzMAnRK+VwCg1wkA6LXwrKU+CIgZgLC6zACE9cm2lxmAeHpmBmDcfswAjGvTwh4AIK6XAICD+ZNLAHH+KV4aADho4KGp3vVtAMC4bQGAcW1a2AMAxPUSAHAwfwIAcf4pXhoAOGjg9cF+6H8AYNy2AMC4Ni3sAQDiegkAOJg/AYA4/xQvDQAcNPDQgL++DQAYty0AMK5NC3sAgLheAgAO5k8AIM4/xUsDAAcNvD7YD/0PAIzbFgAY16aFPQBAXC8BAAfzJwAQ55/ipQGAgwYeGvDXtwEA47YFAMa1aWEPABDXSwDAwfwJAMT5p3hpAOCggdcH+6H/AYBx2wIA49q0sAcAiOslAOBg/gQA4vxTvDQAcNDAQwP++jYAYNy2AMC4Ni3sAQDiegkAOJg/AYA4/xQvDQAcNPD6YD/0PwAwblsAYFybFvYAAHG9BAAczJ8AQJx/ipcGAA4aeGjAX98GAIzbFgAY16aFPQBAXC8BAAfzJwAQ55/ipQGAgwZeH+yH/gcAxm0LAIxr08IeACCulwCAg/kTAIjzT/HSAMBBAw8N+OvbAIBx2wIA49q0sAcAiOslAOBg/gQA4vxTvDQAcNDA64P90P8AwLhtAYBxbVrYAwDE9RIAcDB/AgBx/ileGgA4aOChAX99GwAwblsAYFybFvYAAHG9BAAczJ8AQJx/ipcGAA4aeH2wH/ofABi3LQAwrk0LewCAuF4CAA7mTwAgzj/FS7cIAP8u6cQMfx/QQfMODfZD25YAgM9naE+nydcT22XJbO4CAMxVsOz7AYA4/VMBwGK0i9e5r5Y7hvLU1LZjA021HDf1/qH9llPntsfebzl+6PhT294VaJN31/clntvG0uaWFgFgygRL718CAJaus+f4AEBc0rlRc9E+XWEAYFqj1RKpAOCJx6XLLAEAS9d56vgAwKo7HesAQFzSNwMCAOPGYgZgXJsW9gAAcb0EAMTnz6lBfM5+ACDOvwIA4g0MAIybDAAY16aFPQBAXC8BAPH5c84AP/VeACDOvwBAwvUeAGDcZADAuDYt7AEA4noJAAAAOijhHoC42NG7EwbfTuySrwDAeEcDAOPatLAHAIjrJQAAAOjGIgAgLnYAgMoAyJLZ3AUAmKtg2fcDAHH6AwAAAAAQFzNnln5rZQNg15FTry89swWHV3690TZZmy91uDnRWwCAaMmqegMAENcdP9JwvN8+0FTLcVN5sMb9bwm0ybuLrwE6Ot9Emrsc7zhPjSZ7fKDhP9tom2z66shAu7y7AACvUnWWAwDi+uXskr7VaMz/dKCpT2i0Tc8PtMm7CwBwdH4OALi74zw1AsBNA046h6SvNNiu0H0NgeYe2gUAHJKkqQ0AQHx3vbbBeD9FksHL2HKzBttkY0Xo2QZjbV3fDgA4Oj8HAJxH0mcc56oJAt4vaartf9ZYm0zfXA+1AQDW00lb/wMA8f11kwbj/eETzbQc98HG2vVZSeedaJdnNwDg6PipQdAjtJUx0jzDcb4aIMCmyUPTZl2bzzfjUZYl2vmsruIZXgGADCIWPAQAkCb+sxvJYZZf3uscKO1ypuW8Ejkp9pynS/qVtK479C4AwNHpuQDA1L+TpG84zhlripzlbVo/xmA/LMkeSpGzDksc6zmS7LJFrgUAyKVkmeMAAGm6Www9t4F4f6ekS0Y08VclfbXydp0m6Y4RbZoqCgA4OjwnAFiH2Ndp/r7C6+dflPRUSTagxy6WFO4tyS4bLDF4px7TaPmNkiy4cy8AQG5FN3s8ACBd7yMk3Xw/tizGUuNzife9T9LvTVz3H2u5fTvoaZIsFy5Rt9RjflmSzV5efqziidsBAEdH5waArq/sTvTLSjqmgr9LSzpbV7GZrxeWdLUK2nSUpPPPbEvo7QBASJ369wEAefrIYsxirXQes5xjuSfHYrnQcmLpNtn5bYxYagwCAAoCQA6jcoxyCgAA5bTPcWYAIIeKHKNlBQAAAKBl/xatOwBQVP7ZJwcAZkvIARpXAAAAABq3cLnqAwDltM9xZgAgh4oco2UFAAAAoGX/Fq07AFBU/tknBwBmS8gBGlcAAAAAGrdwueoDAOW0z3FmACCHihyjZQUAAACgZf8WrTsAUFT+2ScHAGZLyAEaVwAAAAAat3C56gMA5bTPcWYAIIeKHKNlBQAAAKBl/xatOwBQVP7ZJwcAZkvIARpXAAAAABq3cLnqAwDltM9xZgAgh4oco2UFAAAAoGX/Fq07AFBU/tknBwBmS8gBGlcAAAAAGrdwueoDAOW0z3FmACCHihyjZQUAAACgZf8WrTsAUFT+2ScHAGZLyAEaVwAAAAAat3C56gMA5bTPcWYAIIeKHKNlBQAAAKBl/xatOwBQVP7ZJwcAZkvIARpXAAAAABq3cLnqAwDltM9xZgAgh4oco2UFAAAAoGX/Fq07AFBU/tknBwBmS8gBGlcAAAAAGrdwueoDAOW0z3FmACCHihyjZQUAAACgZf8WrTsAUFT+2ScHAGZLyAEaVwAAAAAat3C56gMA5bTPcWYAIIeKHKNlBQAAAKBl/xatOwBQVP7ZJwcAZkvIARpXAAAAABq3cLnqAwDltM9xZgAgh4oco2UFAAAAoGX/Fq07AFBU/tknBwBmS8gBGlcAAAAAGrdwueoDAOW0z3FmACCHihyjZQUAAACgZf8WrTsAUFT+2ScHAGZLyAEaVwAAAAAat3C56gMA5bTPcWYAIIeKHKNlBQAAAKBl/xatOwBQVP7ZJwcAZkvIARpXAAAAABq3cLnqAwDltM9xZgAgh4oco2UFAAAAoGX/Fq07AFBU/tknBwBmS8gBGlcAAAAAGrdwueoDAOW0z3FmACCHihyjZQUAAACgZf8WrTsAUFT+2ScHAGZLyAEaVwAAAAAat3C56gMA5bTPcWYAIIeKHKNlBQAAAKBl/xatOwBQVP7ZJwcAZkvIARpXAAAAABq3cLnqAwDltM9xZgAgh4oco2UFAAAAoGX/Fq07AFBU/tknBwBmS8gBGlcAAAAAGrdwueoDAOW0z3FmACCHihyjZQUAAACgZf8WrTsAUFT+2ScHAGZLyAEaVwAAAAAat3C56gMA5bTPcWYAIIeKHKNlBQAAAKBl/xatOwBQVP7ZJwcAZkvIARpXAAAAABq3cLnqAwDltM9xZgAgh4oco2UFAAAAoGX/Fq07AFBU/tknBwBmS8gBGlcAAAAAGrdwueoDAOW0z3FmACCHihyjZQUAAACgZf8WrTsAUFT+2ScHAGZLyAEaVwAAAAAat3C56gMA5bTPcWYAIIeKHKNlBQAAAKBl/xatOwBQVP7ZJwcAZkvIARpXAAAAABq3cLnqAwDltM9xZgAgh4oco2UFAAAAoGX/Fq07AFBU/tknBwBmS8gBGlcAAAAAGrdwueoDAOW0z3FmACCHihyjZQUAAACgZf8WrTsAUFT+2ScHAGZLyAEaV6BZADi7pEtJOibi71uOwf47A2WuFXGOmPpQNq7/atPrnwa8MuSf9W33Keinf02s8z0K1nmpfr9noham4VJ1mjqueWfdT57/zatTx2b/7mlkY5vHP+tlbCyN8YuN1TZmz15+UtKLJZ2aWPH1hvB/mgHQDd3wAB7AA3jA6wEbs0+QdM0UCjhC0kMlncHAn0Rs3k6iHAGNB/AAHsADS3nAxvA/jIWA+zPwM/DjATyAB/AAHtgKD9zXCwGXk/RNOn0rOn0pquS4fGLBA3gAD7TjARvTf8wDAY9l8GfwxwN4AA/gATywVR54tAcA3k+nb1WnQ+ntUDp9RV/hATywlAdO9gAAd/xjwKUMyHHxFh7AA3igjAdsbJ9cvsgMADMAeAAP4AE8gAe2ygNfmBz9Jb2RTt+qToe2y9A2uqM7HsADNXngDR4A+F0AAADAA3gAD+ABPLBVHrCncU4u55L0CTp+qzq+JgqlLnwqwgN4AA9s1gMfk3TOydF/v4A9PvCrQAAQgAfwAB7AA3igaQ98RdI1vIN/V+5qkv6Djm+646HszVI2eqM3HsADNXngvXu/CXB0N6jHvp5N0i0kPV2S/SrXifyhAR7AA3gAD+CBaj1gY7WN2TeXdNbYQZ/yKIACKIACKIACKIACKIACKIACKIACKIACKIACKIACKIACKIACKIACKIACKIACKIACKIACKIACKIACKIACKIACKIACKIACKIACKIACKIACKIACKIACKIACKIACKIACKIACKIACKIACKIACKIACKIACKIACKIACKIACKIACKIACKIACKIACKIACKIACKIACKIACKIACKIACKIACKIACKIACKIACKIACKIACKIACKIACKIACKIACKIACKIACKIACKIACKIACKIACKIACKIACKIACKIACKIACKIACKIACKIACKIACKIACKIACKIACKIACKIACKIACKIACKIACKIACKIACKIACKNCGAv8fgK73oukknyEAAAAASUVORK5CYII=;" parent="1" vertex="1">
          <mxGeometry x="-545" y="610" width="70" height="70" as="geometry" />
        </mxCell>
        <mxCell id="7F3EquHxu8-Q1DY4XxR6-77" value="&lt;span style=&quot;font-size: 24px;&quot;&gt;empresa&lt;/span&gt;" style="text;html=1;align=center;verticalAlign=middle;resizable=0;points=[];autosize=1;strokeColor=none;fillColor=none;" parent="1" vertex="1">
          <mxGeometry x="-570" y="675" width="120" height="40" as="geometry" />
        </mxCell>
        <mxCell id="7F3EquHxu8-Q1DY4XxR6-80" value="" style="shape=image;verticalLabelPosition=bottom;labelBackgroundColor=default;verticalAlign=top;aspect=fixed;imageAspect=0;image=data:image/png,iVBORw0KGgoAAAANSUhEUgAAAgAAAAIACAYAAAD0eNT6AAAAAXNSR0IArs4c6QAAIABJREFUeAHsvQl4XEeVNqyEkAQGQoDAENZvgGGA4WedGfiAGQLDbDABPmb6Lt19b8ub7HiJ7The1PLSUstOyEoctqxAEsm2LMuWJXXfliW37SSO4zgrsZN4U1fbWchCFpI4sWOfn2pL0ZKW1Mvt7qq6r5/Hj3q7daveOnXet86tOlVVhX9AAAgAASAABIAAEAACQAAIAAEgAASAABAAAkAACAABIAAEgAAQAAJAAAgAASAABIAAEAACQAAIAAEgAASAABAAAkAACAABIAAEgAAQAAJAAAgAASAABIAAEAACQAAIAAEgAASAABAAAkAACAABIAAEgAAQAAJAAAgAASAABIAAEAACQAAIAAEgAASAABAAAkAACAABIAAEgAAQAAJAAAgAASAABIAAEAACQAAIAAEgAASAABAAAkAACAABIAAEgAAQAAJAAAgAASAABIAAEAACQAAIAAEgAASAABAAAkCgVAiE4qnFVpxdh/+FY8AxLFX/oFwgAASAABAAAq4j4Guht9kOe9l2GOF/URi8wrF0vYNQIBAAAkAACACBUiBgbUp9DsRfFPG/KZyqE32fLUUfoUwgAASAABAAAq4jYDspPwSAOwIgFE+brncQCgQCQAAIAAEgUAoE7Hj6cggAdwSAnWCXlaKPUCYQAAJAAAgAAdcRsB3WAwHgkgBw2CbXOwgFAgEgAASAABAoBQK2w56BAHBNADxbij5CmUAACAABIAAEXEXA2nTg4yB/18g/sxhwQuLxj7naSSgMCAABIAAEgIDbCAQT6Z9AALgrAGwn/WO3+wnlAQEgAASAABBwFYGQw+ohAFwWAHEWcbWTUBgQAAJAAAgAAbcRCMXZRggAlwWAw9rd7ieUBwSAABAAAkDAVQRshx2CAHBdAKRd7SQUBgSAABAAAkDATQTsnsPvB/m7Tv6ZhYBmxxPnuNlXKAsIAAEgAASAgGsIBBPs3yAASiMAbId937WOQkFAAAgAASAABNxEwHLYAgiAEgmAeGq+m32FsoAAEAACQAAIuIZAKJ5aBQFQIgHgpJpd6ygUBASAABAAAkDATQRshz0KAVAqAcAecbOvUBYQAAJAAAgAAVcQsBJP/ZXtsOMQACUTAMd9yaff5UpnoRAgAASAABAAAm4hEEykvgnyLxn5Z3YC2PHU/3Wrv1AOEAACQAAIAAFXELCc1AwIgFILgPR0VzoLhQABIAAEgAAQcAuBUCJ9IwRAiQWAw25wq79QDhAAAkAACAABVxAIOexeCICSC4BdrnQWCgECQAAIAAEg4AYCvpbdp9sOew0CoOQC4HWOtRt9hjKAABAAAkAACBSNQHV335dB/iUn/8xCwKBz8EtFdxgKAAJAAAgAASDgBgIhJz0BAqA8AsCKp6vd6DOUAQSAABAAAkCgaATsOFsJAVAmAZBg1xTdYSgACAABIAAEgIAbCNgOux0CoDwCIOSwbW70GcoAAkAACAABIFAcAkSn2A57EQKgPAKAYx2J0KnFdRquBgJAAAgAASBQJALV3Yf+FuRfNvLvXwh46NNFdhsuBwJAAAgAASBQHAIhh2kQAOUVAFac+YrrNVwNBIAAEAACQKBIBOw4uwQCoMwCIMFWFNltuBwIAAEgAASAQHEI2A5zIADKLACcVLy4XsPVQAAIAAEgAASKRCDksKcgAMorAGyH/bHIbsPlQAAIAAEgAAQKR2Bid/rDIP+yk3//QsDUuYX3HK4EAkAACAABIFAEAiEn9UMIgMoIACue+kERXYdLgQAQAAJAAAgUjoDtpJZAAFRGAITiqcWF9xyuBAJAAAgAASBQBAJ2It0GAVAZAWA76XVFdB0uBQJAAAgAASBQOAK2w/ogAColANjBwnsOVwIBIAAEgAAQKBCB6mTf2bbDTkAAVEwAnPB3svcW2H24DAgAASAABIBAYQjYTuq7IP+KkX9mJ0B1vO+8wnoPVwEBIAAEgAAQyAOBiT3sk6EEqwklWIvtsGchACorAGyHvWQ7bJPtsIWhBPtaHl2JnwIBIAAE1EGA70nHjMjd/gw6qXPtOAuGHPZb22FpEH7FCT8z8x+jH9K2k7o5lEgFqrv6PuSuNXi7tFA3+xb3Md5GAa0HAgIi0J+QZm/mmXScrazpeOKdAlZT/CoRncJnkiGH1dsOu38MohmPiPC9I4RYuI/3ZSY6QHSK+AYoXg2rk31n2vH05bbDjtsO2wsRIF4foUYeRoDPdGyH7RlBVget2KHveBiWnJt+XpJOs+Ls21aCXYNZvhCkXSrx9EfbYbdYCXb+rNi+M3I2EA//MOgc/JLtpB8Y4Vv22h2HPuJhWNB0ICAGAkNm/tmc5ht2gl3GFbwYtRWnFhyTkJP6n/5n+fw5cjb88Jm6uLzE+96Kp36K8fHWcelr2X16yEk12g47NsrYQCTgrbDhEyBQPgRGmfm/hbRCDttdHU//Y/lqJuadfC30tsxMP86usx324iiO7S344XfKi6NXMmIgwc6v2bXr7WJab/lqZSXSXwg57N4c7B6RgPJ1C+4EBAYRGGfmn43EjtlOusFzDo7olKCT/mc7kfql7aSezsGpZcMOn6kbCRjRt6mnua1woVjlsTUD/FEYT69sO+z1PMYJIgGDbhmvgEDpEch15j/KIP5D0El9tfS1rOwd+jFaaDts/yg4jHD8ys9y0d78RQzf9XGptenAxytrzaW/eyDGPm85bGeBYwWRgNJ3Ee4ABKqqiiT/ARI4yh2batGASIROtR32/f7n+ryNA+3FX2BRjA3w1e+brDjz8VmySn6Ijxme18J22CtFjheIAJUMA20RD4ECwv7jOL3UjupE32fFa2l+NfJ3HfwEf7xhJ9jhIp3YOHhBUHge3wQ7bCXSUW5z+VmpeL+u7j70t3ac3eFin+JxgHjdjBqpgIBLM/9sBHeEZ1HjC+Rkw4nv7ebbusZYqZytvfgM0QA3bIBHBTp4xEm2ccPXNvTP+v/sIvkPYIpIgHQGgQoLjUAJyX9g0PK/2+2uw58RGoiqqiq+PYmHYu1E+q4SOK+heOA1hEKuNnAfJ1Rfy6F3iD5+MtGyOOst8diBCBDdEFA/ORAoE/mfdHQJ9iqPBvDngqKhYyX2f5DXzXbYoRI7r1ydPn4HgTDSBniioUtFTZITcpjdf3bCyHqX4j1EgGhOFPWRC4Gykv9wZ357KJb+lAhoTUg8/rH+DH3FLlIqhZNDmcPtBnicxINvo7tFlDHE/UgozjZWQDhDBIjgRFEH+RCoIPkPOPEXeVizUnuhq+N9/6ef+PkahYE64S+wkMkG+E6UWyr5aC3zuMxhz1VwDEEEyEc/qHElERCA/Ic6WScQO/zRcuHBZ03WyUx9o6UgHVo3vIYgkMEGjvOtqXyvfbnGUeaRWSLdVkHiH9ovEAHl6njcR24E3N/q58rs+TnbSflLiSzfjmg7bE3/iWNDnQdeg+RVsYGMECj11tuQwzTbYc8IQv4DfYctgqV0oChbfgQEm/kPDNyhfzuDTupcN5HmC6Yw43dFpA3tJ7wWWzRlhICVSP2Nm2OpOtl3dv9YErX/EQlws8NRljoISED+/U4l9TQ/Ra9Y5Cc5h96XWTF9cueBqA4L9RKbSGXvn9c5YfNwfbHjyU6k/kuSRFgQAcV2Nq5XCwF5yH9wpppJt9tz+P359kRNxxPv7N/O97xgIUrZyQT1l1es8IQ8lwZi+87KezxtOvAewWf92ewSIiDfjsbv1URA0Gf+2QZtts8et+KpH+TUMzz72Ml9yI+D+AeFFLAAFkNs4Ak+RnLdeWPF0/8hcV4MrAnIyXHiR8oiIOPMf4izelMQ8GiAv5O9d7SO4qcPupxz/M17Z6sPPgOpSm0DcXZPMJH65mjjiUfR+rfInpC6nQ5DJGC0TsbnaiOgCvkPOqA0C8XZvw7tNbvn8Pv7HdUbg78DOQEL2EAONsDJ/RbuJ4aOqVA3+5btsH05XC+LSIYIGNrBeK0+AuqR/5sO/QR/HsmjAbbDZlsOe0EhRyWLQ0U95V0LkK3vXrbjLMJX+GcWzTqMH0KU7XcyfwYRoD7toYUcAcmf+efqZHgq1Fx/i98BK9jA+Dag+pjCmgBQpNoIKDzzhwMf34EDI2AEGxjbBhAJUJsCvds6kD8iAoiKwAZgA+PaAESAd2lSzZaD/Mcd9JgZjT0zAj7Ax0s2ABGgJhV6r1Ugf5A/Zn2wAdhA3jYAEeA9ulSrxSD/vAe9l2Y5aCtm9bCBsW0AIkAtSvROa0D+IH/M+mADsIGibQAiwDu0qUZLQf5FD3rMjMaeGQEf4OMlG4AIUIMa1W8FyB/kj1kfbAA24LoNQASoT59ytxDk7/qg99IsB23FrB42MLYNQATITZHq1h7kD/LHrA82ABsouQ1ABKhLo3K2DORf8kGPmVGWmZHVlSJr3V4K3vIwBa+/n/zX7CT/ZXeS2biNzGWbyQxvIv1ih/TZXaRPbyf9gv7/0zaQPmndm/+1KesHv7uw8+Tv58TIWJAgY2F3piz/JbeT/8odFPjlLgre9ABZTbvJat1LdudB9E2WvoEQKKlPgAiQkyrVqzXIv6QD3dPkYnUeJGvVnpPkfuVdZC5LkjEvTpywteAa8vmaxPgfWEP6tA1kzHfIrN9yUihcfz8FVz0CgQBxUKoxDBGgHp3K1SKQP8jflZleLJUhy8Cv7yU+0+Yzb07yPl+zGARfrNDgAmFmR0bA+K+9h4K37Sa7q69UxIByvSM6IALkokx1agvyB/kXRP6c7Jv2UOCau8lc3EPa1A3k0xUh+nyEgt6cabuxqJv8V95FwdseJjuWAnl7h7zd6muIAHVoVY6WgPxB/jmTf8dBCtz4QOa5PJ8F+4xVaszq8yH7XH9rribjwk7yL99GgRseIKv9gFskgXLUFhYQAXJQp/y1BPmD/Mck/66+zCI5M7qV9OkbvTm7z5Xwx/1dM2k1G8iMJDOY4rEBxt4YYw8iQH56FbsFIH84oGwOiK+G9//87pPP7v2rMcMfl9gLXLxorMrsUOA7HTLrCNSe1SJqkX//QgSITaHy1g7kD/J/k/zjLPPMms/ytSltIPxSEf445WqT2siMbKbg7x4i28H6gTftM3/iVElsQATIS7Ni1hzkD/LnBMNnnXyVPiceYbbgjUOSnqlnsIWM2k0UvPlBiAFvCwAuZiACxKRS+WoF8vc2+Qeb92T2tmuhtSB9ScSGVt2a6bPgrQ+THfe2/Xo4KgARIB/dilVjkL9Hnef6/eS/YnsmuY1nZtCSkHu+/cEzHvp/dgdZbftUCnOjLblFOSACxKJUeWoD8vca+acoeOMDpM+LY+W+imJAbybjYiezvdCOY72AhyIDEAHy0K4YNQX5e4f8LT7bv+xO0iauQ4hfReLP0ib+OIcv4LTWPoaZdG4zadlxgggQg1rFrwXI3xvkz58P84NuPJmFLwsp5htaV+P3zZnzC/hhSh6aEXu1rRAB4tNvZWsI8led/FOZg3X46XhqEFiB++khAN7S//ykRH5OAdIRK+0DIAIqS7Hi3h3kr+7A58fmcud+8oAdkCbEz+g2kFk0eOVdOMVQ3UcDEAHi0nBlagbyV5P8+XG6fDW/Zre8ZcYHEhydBIFNE2lWC5mX3kFWx0GvhsxVbjdEQGWoVry7gvzVI/8M8V95F2HvPki+WDHDhQBP/mRDCKgmCCACxKPj8tYI5K8Y+Xf1kf9yzPiLJT1c/1bhxKNI/NhiHEiklM+ACCgv5YpzN5C/SgM5RYFrdxLPAAfyeit5ARP3MOE25r96BxYLqrNGACJAHFouT01A/uqQP8/9rk/bAOLHyv6y2oA+uY0Cv75XtbC4V9sDEVAe6q38XUD+apC/1byH9NmdZXX6mEm7N5NWBUt9Toys1Y94lThVajdEQOXpubQ1APnLT/5W+wEylyWRwAczfnHEn95M5pJesjbsV4kQvdgWiIDSUnDlSgf5y07+KfJfszOzPUuV2SPaoVZEQQuuIf9VWB8geVZFiIDK0XTp7hzqZt+yHXZccuP0oiqn4G27SZ/eLs6MD7Nv9MUYNsCzCgab9nhyrCrgX49Xx/vOKx0ToeSKIRBy0lcoYKDecSx8W98ltyPcPwbZIIogaBSBPxZYlkRGQcl2C1gJdk3FCAo3Li0Cs2L7zrAd9geIAPEfBwR/9xBpk9sw0wT5S20DPLUw36kCnyO+z7Hi7IAv+fS7SstCKL2iCASd1Fdthx3FgBRzQFobD5JR10M+TdCZHQhZakKuSMREayJzcQ/xBazwO2L6Hf54OOik/7mi5ISblweBkJNqxEAUbyAGb36ItAlI5lMRkoKwKbmw4ampgzchGiCo7720POyDu1QcgZpdu95uO2yXoIbovVlCVx+Z0a3k8zWX3AmDXBFZqagN8GjAsiTxEyrhf4SZhOypTvadWXFiQgXKh0DQOfgl22GvYxBWdhAGV+0hbSoy+VWUlDD7L7vw1GvWU7AZOwUE8L/HquPpfywf8+BOwiBgO6klAhigN2cCcZY5qtenY9YP8vdoVMJYRQF+rkC8siLc0z4wziLCEBIqUl4EzkvSabbD7vb0AKjANh2+GMqY55R91gWi9SjRCh7hMC6Kkd2OLIIV8MP3+1p2n15e1sHdhEKgOtH3WTvBXq2A8Xly5h+8dTfxrVEgY5AxbGDQBvgpg8FbHvakT6iQ732tuuvQ/ycUGaEylUHAjqfmV8gIvTPgEfKH6BF8Jl5xQcIfCazc6R2fUIHo44CftxJsUWXYBncVDgFfC73NdtidA8aBv+4+k7Q6D5KxsBsEWEYC1MxVpNlr39Antx3RL2h/Xrtg43PGrI7HjQs7DxlzY4/pc2N73vL/wk6mz+w4zH+rT9vwojal7VVfaO0bPmMV+q6MfWcs7sUugVKKg0T6Lu7zhSMiVKhyCFR3H/pb22GvgPxdJv/WvaRPwyp/N2eXmn/NCb2m7dUMmc9P7DBqu9fpi3suM+q3TPE3bP5a9dXJs90eSWYkeU6gMfkNs37LBGNpz6XGou42Y37iHp2Lhpr1L/M6udlGr5elT99I1rq9iAa4LQQS7NVg/ODfuT0+UJ4CCITi7EIIAPcEQCadr9WC2WOhs0dzFelT1/+Zz9TN8KY1RmTLhWZk2xdFHWr2Jdu/4q/fPNeo7W42L4rt5nXnkQivk3mh7desFuJjCD7JPZ9kOWyOqOMH9aowApEInWo56SQGXPEDLvDzHTjEJx/i15uIh9z1ubHdRl3PjcHl234YiSRPq/CQKPr2vsju03lbzMU9v+Ft448kkPBpcPHfuOJAb6bAL3dBBLgRCUiktnAfX7RRowB1EbASqb+xHfYSREChIiBFZsMWzPrGI3+tmXjoXJ+fuMtcurnWuvzOD6o7qoa3bELj1o8ZS5KLedu1KetfgSAYRxBoTeS/9A7kCyhOBPx5Yg/75HBLxDsgkAWBUILVQAAUIAC6+shYkAD5j0L+mt1yXJ8be5Q/Q+ckmMX0PPmRvuLuz5hLeq/m2GjWmuPjzopHwVf164xwD9kxpBAuxDdbTnqaJwcXGl0AAkSn2A5zCjE0r15jbdhP+swOkP8IcuIhb2O+kzQbksEqhB/HHYz8sYcZ6Z1szI/fpU1a95rqpJ5v+4zZXThVMN9IQJwlqohOGdf48AMgMIDAxO70h22H/cmrhJ5Pu63WvaRNagP595O/NrntNWN+dzIQvf2/B+wJfwtDIBBN/re5ILFVm7D2aL5kqerv+TkCfMzlM0a9+tu/LPp7wdp04OOFWR+u8jQCdoKFvDpwcm23tfpR4lnMVHW2ubZLs1qOG/Pi9/kbe32eHjQlbLwR2TpRvyj+gC+ILYf82OzgmkchAsaLBiRYqIQmiaJVR8B2WHuuZOi13wVv202+oIe3+fGFfDM7njQW96youa7jnaqPBVHaF4jsOEsP967UZ3Q859PGWUA34pFMroJOht9pobUUXPUIRMDoIqBdFJtFPSRFoLqr70O2w571GrmP116+P9nnX+3JmT9fqMafUfPEOJKatTLV9i+/47vGfOdun1cTEQVbiAvx8carB79/lvtuZQwdDakcAlY8bXhwAI3qVAI3PkBeTA+rTVn/qlHXcx2fgVbOGnHnbAjwbZRmuGeVNnHd6zLM3t2soxZYTcHf/2HU8epJ35VI69nsBJ8BgYIQCCVYiycH0ojwWvAm75G/fkH7n/zLNoexir+goVPeiyJ0qrG0dxk/y8BNkhW+LHM1BW5+ECLgpL9aU16jw92UR8DseOKckMOe8rIICN70oHdm/loTabM6nshs31PeutVsoFm/ZZYxY+OzwpO3W+sU+GmCHhcB3EdzX62mRaNVFUUgmEj/xKsCIHizd8hfm7HxjyD+ig41V28eqE+G9Ontz3hCCJhefxyQ/rGrxoPCgMBQBGyH3eI1ERC8+SFPzPz5qnK+1Wxof+O1Ogjww5T0qRteUl0IZNYEeHBhoOWw36tjrWiJkAj4O9l77QQ77BURELztYdIUX+2fSdyztHeZkAaHSrmOgLm0t1Gb1KZ2lkG+O8BbWwQPVSf7XD8G23XjQ4HyI2AnUv9lO+yE6iKAJ/lReZ9/Jjd/eNPv+Yl18lslWpAPAudF+s40anvW+gLqJhXieQKsFk8kCzphxdP/kU//47dAoCgEbIfdoLIAyKT3VTXDn95E+sXO/XZj70eKMgJcLD0C+uLeTxnzYg/6dDUTCvGMgaqnDQ457NfSGyIaIBcCgdi+s2yHpVQUAfxgH22ymrn9+fYwI7Ltf+WyNtS21AgE6pM6P55ZxfUBmbMD2g+oukXw4MT2R99davtA+UDgLQhYidT3lHsU0NVH+oyN6mX48685YYR7bsJe/reYMT7oR4A/CuKPBTQFswryUwQVPEr4uBU79B0YMBCoGAIhJ/0LdaIAKTIWJJQjf76f3xdJfrliRoIbS4WA3rDlH/WZG59SLRpghHvIjjOVIgE/l8qwUFn1EOArT22Hva6CCDCjW5Uif56z31zaCyeh3rArS4uMup4bff7VJ1QSAv5L71BFALyG0H9ZhgFuMhYCdjx9kQrk71+5UynyN6a3P2tfsv0rY/UdvgMC4yHAI0c8MZQyIkBrIv+196ghAhJs1nj9h++BQMkQsBL7P2g57AXZBUAm0Y/erIYAMFYRf46LZ/0lM3vvFRyhU/WFm9b7DEXGiN5M/DRP2f2W7bA/Ie2v94ajMC0OJdI3yj6IMtv9rBYlyF+b1HbEjCZ/IoyBoCJKIcDTQ+sTW4+qEA3QrBay1u2VXgRgC6BSQ0yexgSd1Fdthx2XWgDwFf8XtCtB/vrszoP8SFh5LAg1lRGB4HLnXG5rKogAfdoGsrv6ZBcBx63u9D/IaEuos6wIEJ1iO2y71OTvMDJru+Unfx7yr9t0i6ymhHrLiYBR293sU+CxmbG4V3YBQCGHbasiOkVOS0KtpUMg5DBbdvL3X7FdfvIPtR4zl24xpTMgVFgJBPSlyak8nbTs0YDAyp3SiwArnjaUMCo0QmwErMRTf2U77AmZBQBfACT77IVn9DNXbP+s2NaC2qmOAN8lIP0Jg8YqCt66W3YRkK5O9p2pur2hfRVGwEqk62Qm/0yaX8lz/BtzYwcCK3ecVWFTwO2BQAaBHy24493G7K4DMkcC+JkBdvt+qUVAKJG6GCYJBEqGwCTn0Ptshz0vrQCIMzLmxSUO/TeTviixsWQdjIKBQKEI8K2CCxKbfZq8hwpx3yB5psBnazYdeE+hXYjrgMCYCISc9BXSkr/DSOrn/kYz6eHelWN2EL4EAhVGwFjce5XPWCWtyPZfvUPqKIDtpJZX2ARwexURCMQOf9ROsFdlFQD8GZ+sz/21wJoT5pLeOSraFdqkHgL++s1zfbIeKGSsImv1IzKLgJeDTupc9awKLaooAlIn/ek8SLqkx/tq9to3/JGtP61o5+PmQCBPBHjSIH4WhYzrAnh+AKsrJbEISP0qz+7Cz4HA6AgE4wf/znbYMVln/+bSzVKGJLUJrcf8y+/47ug9g2+AgLgImCu2fUebIGfmQLNhi8QCgB0NOoc+La5loGZSIRBKsBZZyT9484Mk48IknnLVWnH716UyFFQWCIxAgNuwnCKgmbjvkNXvWXF224iuwFsgkD8C1qbU52RN+WttPEiahFv+tMltr/mX3/nl/HsLVwAB8RAwlmz9ijah9XXZHgdooVay2g/IKgLesLsOf0Y8a0CNpELATrBbZVXBRrhHutC/NqntNST4kWqIoLI5IOBv2Pw1GUWA3KmC0zfl0DX4CRDIjkAolv6UrM/+Azc8IB35Z05aiyQx889ujvhUcgTsS7Z/RbrTBLUmmY8OPurvOvgJyc0G1a8UArbDbpBx9m91HiRt4jqpBIDG8/o3Jr9dqb7GfYFAORDoXxNwTKbHAXwHkaynBoac9C/K0a+4h2IIWJsOfNx22OsyCgC+glcmB8O3+mmNvf+imAmhOUAgKwL+yNYfyLZF0N+4Tda1AEcmdqc/nLUj8CEQGA0B20lfKyP5B5v2SJXwhyf5wT7/0awQn6uKgNGw2e/zrz4hjVDXm8lq3iOlCLDiqatUtSO0qwQIWIn9H7QddkQ+AZAifcZGeWb/ejMFlvbMK0EXokggIDwCRv2WuZrRLM141S/YSHZcygRBL9s9h98vvEGggmIgYMdZRD7yZ8TzeEszo/A1k3/xZihzMUwetagQAkZt769kytMh61kBoTirrVAX47YyITArtu8M22FPyiYA+H5dzWqRRgDgVD+ZRgXqWkoEjPlOUhrhHmwhe6OEuQES7HDNrl1vL2U/omwFEAg5zJaN/Hl9zWXypPs15nTtVcBU0AQg4A4CETrVmNN1QBYRYEaSUq4FCMXTpjsdhlKURcCOs3tkEwD89C5ZTvrTp7W/GIjsOEtZA0LDgEABCFRfnTxbr1n/shQigC8IXCXhgsA4u6eArsElXkEglEj/i2zkz+trzI1JEfrnh/v4VvTs1uQJAAAgAElEQVR83iv2hHYCgXwQ8EWSX+ZbYmUQAfrsLimjAMFE6pv59Al+6yEEbCe9TjYBELjuPinI32esIrP+doTgPDSe0NT8ETDre6bKEs0L3viAjCJgTf69giuUR4CnjLQd9oZUAiCeIm3KeikEgFG36RbljQgNBAIuIGCGe1pkiAJoPENgTLptgccmJB7/mAvdhCJUQsBKpKNSkb/DyL9ypxzkPzvWp5KtoC1AoNQI6Bd2pmQQAf6f3y1fFCDBlpW6/1C+RAj4WuhttsMOySQArK4UaRNahRcA2qS2I2YkeY5E5oCqAoGKIzChcevH9AmtR0UXAfy4ce6LZPKdtpNmkQidWvFORgXEQMBOsP+Wy4AZ+a+8S3jyzzz3jyZ/IkYvoxZAQC4EzIZk0CdBpkD/lTskEwCMqp1D/ymXNaC2JUPAdtgGqQRAx0Hy2eIn/TFqe9aWrNNQMBDwAAL6ou4u4aMAobXETyCVyofGGXyTB8bPuE2s7ur7kO2wozIZr/+yO4Wf/eszNj5ThTDbuPaHHwCBsRCIRJKnaRe0Py+6CPBfvl0uAeCwo9z3j4U9vvMAAjxHtEzkz5W2Jvjsnx91qi9PfsED5oMmAoGSI8CPyvb51wh9ciBPQ253yBYFSM0veefhBgIjQHSK7bD9MgkA/1XiP/s3l/b+XOBeR9WAgHQIGOGem0SPApg/u0O2KMCjVUSnSGcMqLA7CASd9D/LRP58z63oK//1mRufcqd3UAoQAAJDETBmbHxWZBGQiQJIthagOtb3jaEY47WHELCd1K9kEgCBa+4W+9m/f/UJf8Pmr3nIhNBUIFA2BIzI1m/6zNVCPwoI/FyuHQFWgl1Ttg7EjcRB4LwknWY77I/SCACe9W9Sm9ACgIcpxelh1AQIqIeAsWhTu9BRgEltZDtS5QV4kueBUc9S0KIxEbDi6f+QhvwdRkHBc/7r0za8iFX/Y5ocvgQCRSPgi+w+XfRTA7mvksm32g77ftEdgwLkQsBy2O9lMlJ9Vqe4s3+9ifyNvT65LAC1BQJyIpBJEORrFtYf6DM7JBMAaUQu5RwKhdW6Otl3puWwF2QRAMFVe4Qd7DwcqV8Uv7ewnsBVQAAIFIKAPif2mMiPAoK3PCyTCHh+VmzfGYX0A66REAErnvqpLOTP62nW9QgrADS75bjd2PsRCc0AVQYC0iLgW9HzeS0gbm4AY0FCJgFAtpP+sbTGgIrnh4DtsNWyCABr/X7iOfVFVft6eNPv80MfvwYCQMANBIza7nWi+gWf1kxW616JRECq2Y0+QRmCI8BDPbbDXpRFAPh/doew5K9NXv/af61E6Exwk0f1FEWg5rqOd2oCnxjov+R2aQQAfyTsa9l9uqKmgmYNIMBPgZKF/O04I23iOmEFgLF085IBXPEXCACB8iNgLum9WtQoAD8q2I5LtSUQuwHKb8LlvWPISf9CFgEQvOlBYclfn9HxXHl7DncDAkDgLQhE6FSRtwUGbnhAmiiAHWcr34IvPlAIgZO5/9OyCAC+kEZUdW9Etk5UyDLQFCAgLQLmkt45wvqJix15BIDDUtIaASo+PgJBJ/VVWcjfbt9PmiHmXl9jZgfy/Y9vbvgFECgbAvoFG/8kpAjQm8lq2yeNCAg6B79Utk7DjcqLgB1nEVkEAD9fW8gBrTVRoD4ZKm/P4W5AAAiMhUCgITlNSH/hayL/ZXdKIwBsJ4V1TWMZmszf2Q67TxYBoNdsEFIAaLM6npDZBlB3IKAqAvr09udFFAH8DBO+oFkG32s5bKeq9uHpdlV39X3IdtgJKYxQ4Mx/Rv3tlqcNCY0HAoIiIPJagOBt0mQGPDEh9uQHBO1iVKtQBGwn5ZeB/Hkd/Y3bhJz9Y+V/odaH64BAeRDQpm54ScQogNmwRYoIQIYjEmm9PL2Fu5QNAdtJ3ySFABB477+5dHNt2ToMNwICQCBvBMylvVeIKABO5gSQ4zGA7bDr8wYeF4iNgO2wPhkEAD9EQ8QBrE9edwTH/Ypt46gdEODHBYuaHVCiA4L6YEkKIRCKpT8lA/nzOprLkkIKAKOu5zqFTAJNAQLKImCGN60RcRJh1svzGGBiD/uksgbitYaFEqxGCgHAw//VrcIJAM1aczwQ2XGW1+wG7QUCMiJgXX7nB33+1SdEEwFaqJVsR47UwJbDpsjY96hzFgRCCdYigwDgK2VFG7S8PvrFzp1ZYMVHQAAICIqAMS/+gIi+JPi7h2RZDLha0K5FtXJFYJJz6H2hOPtX22HPyCAA/MsFXP2vNVOgMfmNXDHH74AAEKg8Amb9lvN9WpNwEwqJHgM8w7mDc0jlexM1GBeBCYnHP2Yl2PmWw5aGnNR622EpGUh/aB1FTP6jz+x4clzw8QMgAASEQ0DExEDa5DZZIgBD65ninMK5hXNMIHb4o8J1tlcqFInQqcH4wb+zE2nddtilIYd1yzLDH0r2I18HWx4TTq3zEKKxuGeFV2wL7QQCKiGgh3tXCvkYoOWxoeQq6evU03acJTgHZbio6/BnODepZD8Vb8t5STot5LC/DznMthLsGtthm2yHPTeSPFV4779CvNz/mtVyvOa6jndW3BBQASAABPJGwH/J7e8VcTGg/+odkpL+uHkM/mw7bJftsFtsh8224uzb1cm+M/PuOC9e4Es+/a5Qgn3tTbKPsztshx1RgdxzaYMxNyZcBEC/KH6vF20RbQYCqiCgz409KloUQJ8XV1UAZGvXsZDDdg8VBZzrVLGvgtphdjxxTjDB/s1y2IJQPLXKdtijtsOO50KUSv4mliKfuVo4ARCoTyIlZkEWLu5FV82ld0QW0acbFtHX3P7Py10epnMjETpdXARGr1kkQmdFF9PneDs4TqP/Up5vjKXJGaIJAO7rrC45tgOWiG841z1iO6lmO56abzvs+3bP4ffLY1V51NTfdfATtpP+cf9RvO22w9IlAjWb+pLis8BvHxKO/LXJba/l0c34qeAIRGvpR41h6o6G6Wg0TFTi/8caw7QvGqb2xlpa0FhH/yDq81EuVqJhmhGto13RMJ0YgsvRDF619CPBu3bs6kXoVH1C61HRREDw5gel8M3l5ao0sx22wU6wZaF4+kd8YfvYnSvYtxO70x/mqyT7yb7DdtgfywvguM9ohDQ6U8Dtf/qCxGbBzAvVKQCBSxfSe6J11DWE2EpN/qOVf7ihjn62opY+W0AzSnLJilr6TDRMe8bDpiFMnRzHklSiDIUa8+N3iSYApDocyKkcr1gOe8GOszv4Gjj+eJyviRNOTHPFYjvsZZB9YYaiz9goXAQguHzbD8vgm3CLEiIQidA7+2e2o5FyJT4/3hCmNv74oYRNH7fo6GL61F9m/s+MR/5vfl9Huzie4xYs4A/4Ed6iCQB92gYhJ2OScBhfbLhQGFOzHXaDJMAJZ3RW+wHyac1CCYDMwT/CWBcqUigCjWG64U0CK33YP18xcaIxTDdFInROoe0r9LoWH70tWkcP5I1NHUl6Shyd4gutPSaUCNCaye44KJw/lobH4mxlofbv+nUQAIXN/LmxBW58QCjy504C4X/Xh0jZC+SL2aJheiNvkiu/UHimsY7OLydADWGyC8TlDY5rOevq1r2M+Yl7hBIAvqaM75OGcCv4GCArRhAAhZNuVkAr1MEipv81G5JBtxyPTOWsnEVnRGvpp9EwXRUNU0s0TE3RMDU01NK3ZGoHr2tDHUULJLl8Z/Ju/P5EQy1dzmfm5cC5MUw9hWLDcS1HHd2+h740OVU0AWCu2IYIQKG8AwGghgDQL+wUKgKg2S3HqzyY0aqxlkLROnpyVGKoo12NdfRPbjvmUpUXDdOWUdtS/ll+TiKhIUytXISVChNeLlXRKdEwHSkCm62lrF+pyvZFdp/uC64R6oRAY3YXBAAEgBpEXlBUge//94u1/58nDimVExKx3H5C+E2OhPB6Yx0FRGzHyDpFw7Q3xzblRM7lKotvvSulCFhRS+8vsi37R2Ity3v9wk4mVBTAXE12zNP5AAoXQIgAyC8cgrftFmr2z52DsbTnUlkcmhv1/AsZLMuTEI5FF9N5bty7lGVEw5TOs10iCYH1pXoc0FhHHykSl8Ol7LdSlm3U9VwnlADwNRH3gQVNngqdOatyHQSA/ALAf9UOsQSA1kwTGrfKlXyiCI8ZXUx/Fw3TsQIIYf91NfT2Im5d8kslFwBcjDSWAiQvCwB9efILPp9YO478V90FAVCIKIEAkF8AGOEeoQSAXrP+5VI4XVHL5NvQCiD/zEy5IUxCL5RUQAAcjy6if3fbdrwsADiW+uS2IyJFAczwJggACAD5ybyQMBZPhiHSYOQZw9x2uKKWF4nQ2dEwvVKoAIiG6XZR28brpYAA4ELrcZ6f302cvS4AjHnxB0XyOUgIVCD3IQJQIHCFqK1SXMMXAOpihePMpZtr3XS2IpcVDdO8Isg/EwVYHqYviNpGRQQAx/kqNzH2ugAwl/ZeIZIA0IxmLAQshF8gAOQWAMGmPULN/n16E1mX3/lBN52tqGXxlf8NYXqsWAHQUEvXiNpGhQTAMX46n1s4e14ArNj+WZ/WJJTvCa56BI8B8hUBEAByC4DAtTuFGoR6TdurbjlZ0cuJLqL/LJb8+69/XtT88AoJAOIpjd2yKa8LAI6jNqntNZGiAIFf7YIAgACQm9DzXQNg1m8RSwDMjT/slpMVvRx+TK1LAoB4AiER21u0AKilhzIHCfFjcnP5H6b7o2F6okTph19fHqZz3cAZAqCqSp8T2yeSAPA3IiNgvvxhIwIgt2Aw5saEEgBmXY9rsyw3HHWpyli2kD7uMkltL1Vdiym3WAHQWEcFbQeNROhd0Vr634YwxdwSWf3lzCsGj4FrIQCqqoxFPatFEgDGvDgiAIgAyE3o+So4fdI6oQSAV47/baij5S4TEy0P05cHCEaUv5USAEPbzxMmFVuPN/uqjh4YWnahryEAqqoC9cmQSAJAm9AKAQAB4CEB0NUn1hHA5iqKRJKnFepUZbkuEqHTo2F66k1ScS8n/i9Ew6BY4i00AjASh8h8+lA0TPe6gTkn75Hl5/seAqCq6kcL7ni3zxBoB5LWRFYnjgbOaxKJRwDyCgZrlVg7APSp6/+cryOV8fc8j78bRJSljBcuv5j+SiRMRBEAHBP+/D4apkNZcMtsp8z188ZasorFGALgJIJ80a9IUQBrNXYCQADkGwaR9PeB39wnVPjfvCi2u1jHKsP10TDdkSvZ5Pu7hjBNFAkDkQQAx6Wxjn6cL6Yjf98Ypl8XizEEwEkEjTldB0QSAIEbHsBjgHz4DBEAeSMA/p/dKZYAqN20pljHKvr1y8P0xZGE4vL7u0XCQDQBwLGJhumuojCvpWSxGEMAnETQWNQdE0kA+K/eAQEAASAvqecTvjGXbhZLANRvmVWsYxX9+miYcj3yN6+w9FBCWx6mr4qCg6ACYMZQvAp4/Xix+EIAnETQvzQZEUkAmA1bIAAgALwhAPi2F6EGX2TbF4t1rCJf/7MF9O5omF4qgHDyEgNuhKjdwlFIAbCYPlVkHxwtFh8IgJMIGpGt3xTJBxkLEhAAEADeEAD6VIEOATJXnyjWqYp+fWMdXVgk8eQqBP7MxYYIeIgoAPgRytEwHS+mL1bOojOKwRcC4CR6fNePSDsB9OntEAAQAN4QAL7AGmEiAF5IAfyXxDQPF0M6eV1bS1OKISi3rhVRAPC2FRuJuWQRvbcYjCAABtHTJrS+LkoUQLNaIAAgANQXAHy/qyiDjtfDmN2VHnQJ6r2KLqbv5UXgxecGuF8EFEUUAFfNpXcU2xc8ilAMvhAAg+jp09ufEckXIRdAHvyHXQB5gJWPsirxb4NrHhVLAMxP7Bh0Ceq9ioZpbbGkk+/1DYvoa5VGUkQB0LCQvpQvliN+f6RYXCEABhE05nX9QSgBsG4vogC58g8EgKQC4PcPiyUAarvXDboEtV71J6A5OoJEcn2eX/jv6uj6SiMpogBorKXFxfRFY5gOFIsrBMAggsbCTZ0iCQB+RHo+u6k8/VsIADkFQOA6sZIAGUt7Lh10CWq9ioYpUgzhFHHtnyMROquSaIomAHjovjFM+4rAlPgBQ8ViCgEwiKC/rvfXQgmAmx+EAEAEQE5iz1WNBlbuFCoCYNZvmTDoEtR5FYnQadEwHS6GcIq5tqGOplUSTdEEgBs7MRpq6cpiMYUAGETQXLZ5gUgCIPDLXRAAEABqCwDzMrGyAForbv/6oEtQ51VjHfmKIXAXrn2wkmiKJAB4gqRomF4pFlOeTrhYTCEABhE0o8mfCCUAkA0wdwGERwByCgWe8UqoQRfZUdFQ9aA7cvdVY5g2F0s4xV7fWEf/5G6rci9NFAHQUEtfj9bRk8ViGQ3TG5EInZ07Atl/CQEwiIu+4u7PiOSLzBW3506Auc6UVf0dBICkAmBxjzACQPvLMcCD7kCdV9HF9LlomE64QDqFLwQMEzWG6aZKoVppARCJ0JmNtbQgGqYjrvRDLfW6gSUEwBAUI3SqTxPnWGAzshkCIFfBAgEgpwAwFnaLIwDstW8McQfKvIyGaaULpJNyoYxXLl1I76kEsOUWAC0+eltkAX24oZa+01BHP3Pj+N+h+DeEqdoNHCEAhqPo8685IUoUwKzthgCAAJCT2HNdBGjMc4QRAPrkdUXvqx7uTir/LhKhd0XD9MJQ8ijkdUOYtGiY7i3k2hHXzKgEKsUKgBFtKCoS4kJZz7uVYhkCYLg1ahNaj4kiAIz5DgQABIDaAkCf3SWOAJjW/sJwdyD/O776vmjCqaMn+bY1V8qqpYcqgapiAqDBLQwhAIYjyScBwgiAeXEIAAgAxQXAzI3iCIDpG58Z7g7kfxeto/uKFgBhyhBOfzSh6FMEG2rp/5YbWYUEwAsraun9buEHATAcSX3ahheFEQBzYxAAEACKC4Bp4pwEqM/seHK4O5D7XWMdfdsF8n+jsY4+MYBEtI6uL7rMOvrdQHnl+quKAOD5A9zEDAJgOJr69I3CnAegz+qEAIAAUFwATGkTJwJwYScb7g7kfhetpeaiyTpM64eisDxMX3ahzFcjEXrf0HJL/VoRAXAvX1zoJlYQAMPRNGZ2PCVKBECfvhECAAJAcQEwWRwBYMzp2jvcHcj7bkUtfSAapteKJutF9O8jUYjW0a5iy3V7JjuyjiPfKyAAXubbOUe2q9j3EADDEdRndT4uigDQprVDAEAAQACUa0Aac+OPDHcH8r6LhqmuWJKOhml/JEKnjkQhWktTXCh7D1XRKSPLLtV7yQXAiYYw+UuBDQTAcFT1WR3pcvmb8e6j16yHAIAAUFsAaBPXCfMIQBUBwMPEjWHqc4Gk5w13jyff9S8GfLHY8vkahWzll+IzmQVAYy2FS4EJLxMCYDiy+uyuvvGIuVzfa5PaIAAgANQWAPokcQSAPjf26HB3IOc7niO+WHKOhunVsVabN4bp1y7c49ZyISyrAHDjwJ+xMIYAGI6OMTsmjgCYuA4CAAJAbQEgVgQg9thwdyDnu8YwOS6Q8x8a6qhm1P+1dLUL9zgylshwE30JBQBP3RxxE4NsZUEADEdFn9lxuFwz/PHuo09BBCDXhHI2UgHLKRSEigDMkV8ARBfTp6JhOu4COZcr293c4S64NO8kEwAv8syLpUFieKkQAMPx0GduFGcXQM0GRAAQAZCT2HNVbtqU9cKsAeDP/4a7A/ne8ZCxROTPRcaj5VgMKJEA2BFZRJ8ul+VBAAxH2pix8dnxZubl+h67APLgPkQA8gArV1VVht9xIy/XgBrvPnwL0HB3INe7q+bSO6Jhek4yAUD8wJxSIy2BAHiWP27JtuuilNhAAAxHV7+g/fnx/ES5vtdnIA9ArhNJPAIoA1nn3Bl51EWf2SGOAJA8FXBDmCbKRv6Z+tZS83A37P47gQXAM/xZfyRCZ7vf6vFLhAAYjpE2dcNL5SL48e7DfWMpfK6SZSICIGcEQKzDgDa8ONwdyPUuGqZ7pBQAYXqNJy4qJdqCCYBXo2Fqb6yj/1k5i84oZbvHKxsCYDhCek3bq+MRc7m+N2Z3QQDkOpmEAJBTABjz4sJEALQpba8OdwfyvGuso3+SlPwHFhvOLyXaFRIA/Bjmw5nMiSfTMi+JLqbzIhE6s5RtzadsCIDhaPlCOA5YyggBBICkAmBhtzgCINR6bLg7kOddY5h+K7kAyJp10K0eKFYANNbRx9yqi0jlQAAM7w3Nv+ZEuWb4493HCPcgAoAIgJzEnquKNJZsFkYA+IxVNNwdyPHukkX03miYXpFcAFB0MX2/VIhDAGRHFgJgEJdAZMdZ45FyOb83I0kIAAgAtQWA2bhNHAHgayIzkjxn0CXI8aqxli6WnvzDxB8FrC0V4hAA2ZGFABjExb5k+1fKSfDj3ctcsQ0CAAJAbQHgv3y7UAIg0Jj8xqBLEP8V30PfEKbHFBEAxyIL6MOlQB0CIDuqEACDuPgjW386HimX83vuG3ONpHr+d1gDIKdQCKzcKZYAqE+GBl2C+K/qw/QfipD/wGLAulKgDgGQHVUIgEFczCW9c8pJ8OPdi/tGzxM7IgByEnuuhhu47j6hBIC+uOeyQZcg/quGMG1QTAAwfpqh28hDAGRHFAJgEBc93LtyPFIu5/eB6++HAIAAUFsABH//B6EEgLGou23QJYj9iq9Mj4bpDcUEAEVr6QduIw8BkB1RCIBBXIyFiUQ5CX68ewVv2w0BAAGgtgCw1j4mlADQ5zk7B12C2K8a6iiqHPmfXAzY7jbyEADZEYUAGMTFmBt/ZDxSLuf3Vts+CAAIAMUFQFeKfFqTMCJAv7CTDboEcV9dV0Nvj4bpcUUFwBuNdfQJN9GHAMiOJgTAIC7G9HZhDgLy+ZrJjqUgACAA1BYAfK2AZrWIIwBq1r886BLEfdVYR7oL5M8z1V1agv8PFlu3hjqqdxN9CIDsaEIADOKiTWg9Ws4Z/lj30uwWkH+u5M9/h10A8goFfdoGYQQAzwRWFaFTB92CmK+iYdpaNMnW0jWlaF1jHf2/YusWDdMTPMrhVv0gALIjCQFwEpdIJHmaT28Wxw9N3QABAAEgL6nnuguA/864KCbMwOOqnCcEye4uxfg0upg+Fw3TiWJJtmEJ/X0pWhSJ0GmZHPgnn+cPbO/L/28t/cSt+kEAZEcSAuAkLjz/x1gz8nJ/p1/sQABAAHhDAJhLBUoH7Gsi/9LNc7O7SzE+jYbpF8WSf7SWekvZGlcWKNZR3K06QgBkRxIC4CQuxtLeZeUm+bHuZ9ZvgQCAAPCGAPBfIVY2QKO2u+Tn02d3x+N/GonQu6JhetEFAfC/49+t8F+4tEXxRGQRfbrwWgxeCQEwiMXQVxAAJ9EwFnXHxiLkcn/nv2oHBAAEgDcEQPD6+4V6BKDPje0e6iRFet1QR9OKJn+Xn6+Phk9DmDpdqOuK0crP53MIgOxoQQCcxMWYHesrN8mPdb/gjQ9AAEAAeEMAWKsfFUsATF3/5+zusvKfRuvoPhdINVKOljTW0fku1PXplbPojGLrCwGQHUEIgJO4aJPajoxFyOX+jvvEfNZRef632AUgr1iwMrkABFqBa64mX2T36dldZuU+bayjb7tAqPzAnY+WoxU8pW80TKli69wQJq3Y+kIAZEcQAqCqyhdJvkukHQCZHABdfRAAiADIS+r5KlJt4jqhogDB5dt+mN1lVu7TaJiaiiXTaJjWlbMFf6nvsqLr7MKCRQiA7L0OAVBVJdopgNqkNpB/PuTPf4sIgNxiQbStgObint9kd5mV+TQSoXOiYXqtaDJdTN8vZwuWh+ncaJiOFlnvEytq6TPF1BsCIDt6EABVVUZt9+/KHeIf637YAlgAl0EAFABaviqrhL83o1uFigCIthAwGqbaIkmUGsO0j6rolOxUULpPXTqx8IpiaggBkB09CICqKn1ObN9YhFzu7/zLtyECkC/XQADILQACv9wllgCY3HYku8ss/6eRCJ0aDdPBogVAHc0pf+2rqurD9F/F1j0apmcjETqz0PpDAGRHDgKgqkqkFMBcbHBfmO8jVM//HgJAbgFgrdojlADgC3EmNG79WHa3Wd5PXVpN/2okQu8rb81P3s0tAdMQpmCh9YcAyI6c1wWAb0XP58s9wx/vftwXep7QEQGQm9DzNuBYijRDnJ0AfJD6l20OZ3eb5f20IUyxomfQdXRjeWs9/G6NtRQuug1hun14qbm/gwDIjpXXBYCxtOfS8Qi5rN/rOAUwb+7gYgERAPkFg0iHAvFBr89P3JXdbZbvU34sbjRMbxRLno119A/lq/Vb7xSZTx9yYTEgLQ/TF95a+vifQABkx8jrAkC/OL6rrATvG/voc/2CjZj95zv7hwCQn/y56jPqeoR6DKBNWf9KdrdZvk9dmjnvLF+NR79TNExrixUyDXX0s9HvMPo3EADZsfG6AOBjXCQBwM9FKWgGXAhpqnQNIgDyi4DANXcLJQD4OgB9xd1FbT/L7nZz/zQapm1Fk2aYqnO/Y+l+GV1M3y+2LdEw7SmkhhAA2VHzsgAwI9u+6NPGnpGXWxwErt0JAVCIMIEAkF8ABIVbCNhExuLeq7K7zvJ8WixxRcP0p0iE3lme2o59F74FMRqmvUWKgKM8w+DYd3rrt8XiyA83emup8n/iaQFQ13NDuQl+vPsFVz0CAQABID+ZFxTGiqdI868WKgpgzI09Vkk3Hw3T48UQZkMtXVnJ+o+8dzRM84tpD7/2qrn0jpHljve+WOHBEzGNdw8Zv19RS+8vsj/2y9huXmf9wk42HiGX9Xv/arLjKQgACACPCgCHkT67UygBoNlrjkciydMq5eSiYbqrCAd9IrqY/rZSdc923xW19IEiMxq+kK3c8T6LhmlLETgeqUQCpfHa5Mb3/VGZI0Vgs8WNepS7DH7Why+45kRZCX6cBYDGhZ0g/0LIn1+DRwBqiAazcZtQAoA7CKN+y5RyO6iB+2S2ZK0AACAASURBVEXD1Fioc24MkzNQjkh/o2FaVWibonXUUUhbomFqKOKeiULuKcs1jWHqLhSbhjqql6WdQ+vJx7RI5M/rYq5ABsCCIscQAGqQP+/84E0PiCcA5scrth0wsog+Xej2ufow/etQpyfK68Y6+qdCCaexjsxC2hFdTJ8rdDtlYy1ZhdxTlmt4+wrsjzdW1NJnZWnn0Hoa853togmA4G8fQgQAEQB1yLwQNWd1HiSxjuZsIm3SuteGOo9yv+bP8fN10Dz/frnrmc/9GsLUlm+bomG6l2cVzOc+Q3/bGKbryn3PofcX9XXm2OY6ui9fbBrD9GtR2zRevURL/8t9Hvd9hfhMXCPYIwArka6zHfYiOqYwMaPP7BAuCmDWbzl/PKdSqu+vq6G3R2tpU84OupYejkTo7FLVx41yeVriaJj259ymMD0bXUyfKubefDdENEz35HHPp6OL6W+Kuacs10YW0SejYXo6D2zuKWQxpgh4mA3JoGizf30Wnv8XwZfPW05qngi2NawOE7vTH7YS7Hw7ziK2wzpshz1RRCM9ow7N5QKuA1jgFJyGdphRFPgmEqHT+YwrGqbjYzlpPrO+dCG9p8DblPWy/uyA4y5ybAjTY26FmiMROqshTBvHwjDzXS09xB+/lBWQCt+s/3HTH8bDhkeXOI4Vrm7Bt9fnOTtFEwDc54Ebcpow/smOszusBLsm5DA75LC/LyYqWLARFXqhv5O914qzb9sOm2077JaQw3bbDjuBzh/s/MBvHxIuAsBDhlVFhJ8LtZeR1y0P05f7Q9mpIWLg8Wgt3VYfpu+O/L3o7zMHBdXSpGgd7cpCPI9GwzSvmFMAR2t/tJb+O1pHib8cs/z6kPueiIZpZ0MdTeNRl9GuVflz3m7efo5DNEwcD+r//zrHa3mYfih1+yN0qi/Uekw0AYDn/4P+fwgX8glzB59A84n0xB72Saltb7TKB2L7zhoqCmyH7bId9voQILylDrv6SDPFygfAHYYR2TpxtD6sxOf82S2PDFTi3qW4J98iyBcINtbRN5aH6dxS3GNkmVxc8EcLfJHgzxbQu0d+7+X3HI/M4sm/PHophQirBLZmpHeyaOTPc5/YMU/v/3+DT4RDCdYyQPYTYk9+oBL2Icw9azqeeGd1rO8boUT6Atth1/eLgte8IgqMeXHhogD6vNj9whgIKgIEgEDeCBjz4g+KJgD0ix0vTfCOWA7bacXZdXacTbWdQ//kazmUd2KvvDtehQvOS9Jp/JkHf/ZhO+zS/nUFz6ooCgI/3yGcAOCJQ6qvTgq9uE4FO0cbgEApEPBFtr/P5xcr+Q8XI/wMFBV9uO2wl958Xp9gNTzKPSu274xS9K2ny8yy2PBJ2Q3KWreXRDuogw9WPdy70tPGhsYDAUkRMBf3/Ea02T+vj9W6VwUBIPfiPEltetRqc1FgO+z7Mi821KduEC4KoM/oeG5U0PEFEAACwiKgT2t/QTQBoNVskJH8vbE4T1hLLrBik5xD7wvF2b/aDntGhgiBiGmBeVTCv/wO6VbbF2gyuAwIKIGAGU3+p4gRRe7jZPDFfAu7lUh9j+9iU8IgvNwI22FrZDC64K0PCxcB4DMIY75zt5ftB20HArIhIOLe/0z4v2m3FALActjvZetz1HcUBE6uvsy671IsY4wz0ia0CicCtMCaE+bPd/z1KPDiYyAABARCwIwkzxHt5D9O/trEdWL52zHy8FsOU/o8DIHMtfRVCcXSn5IhAsDraDZsEU4AZKIAi3pWl76ncAcgAASKRcCo7V7Hx6xo/83oVmkEgN1x6CPF9gOuFwgB22F9MogAUR8D6BNbj0YiydME6lJUBQgAgREI+CK7Txfu4J9+MRK87WEpBABP0jMCVryVHYFQIn2jDALAFvQxQCYKsLR3mex2gPoDAZURMJf2XiHazJ/Xhz/a5L5NEh+Mrc+qDZJQPG1KYXwCPwbQpm14STW7QHuAgEoI6FPX/1lEASDR6n8KxdM/Uskm0Jaqqiqz5+Bfy3IIUbB5j3DP7wacilm/ZRYMCggAAfEQMJYmZwyMU9H+Blc/Ksfs32HHajYdkOJ0UfEsUPAa9Z8vIIUh6tPESwrEnYoxY+OzgnczqgcEPImAfsHGP4lG/Lw++oyNUvjcTIQ4kdriSePxQqMthy2V5TGA/6q7hI0CBOqTIS/YC9oIBGRBwF+/ea6I5M/rFLh6hzQCwHJS82Tpc9QzTwSqu/u+LIsAsDbsJ81oFlIE6NPbn8kTevwcCACBEiKgTdsgXNrfjCDRm8lu3y+NALC7Dn+mhN2EoiuNgCzbAblQMeY7QgoAPrDNSHJOpfsS9wcCQKCqyr9sc1jU2T/3YbJMurD9zwOjyXbS18pikIHr7xdWAOjT1v+5iugUD5gMmggEBEaATtFrxFz5z0VJ8OYHpREAdpxdInBHo2puIBDqTv+7LALAjqeETA08MNswl/Y2utEnKAMIAIHCEPAv6b18YDyK9leb1CbP3n+HUaibfauwXsBV0iDga9l9uu2wF2URAf7L7hQ2CqBNanvtvEjfmdJ0PioKBBRCoPrq5Nn6hNajohH/QH38V2yXZ/bvsD9GInSqQuaBpoyGQCieWiWLAOALaHzGKmFFgBne1DoazvgcCACB0iFgLOxODJCtcH+NVWS1H5BIAKRvKl1PoWShEAgm0j+RRgDwxYDhHmEFgC+w5sT/i9yOlbNCWTgqozoC/xPp+aLPXH1COOLvz/vPfZZMPtZ22PdVtxm0rx+BWbF9Z9gOe14WA7WadosrAHiij4viD8G4gAAQKB8C+uzYflHJn9cr2LRHJgHwx/OShIPOyme+lb+T7aRulkUA8HrqMzeKKwL0JgrUJ/XK9ypqAATUR8CIbJ3o84mZI4STvzG7Syby5wsVcfiP+sNmeAuDCfZvMgmAwHX3iSsA+GlfUza8zI8iHY4y3gEBIOAmAnzRrV7T9qrIs//AjQ9IJQCqY33fcLOPUJYECPha6G0hhz0ljQjgxwRPWS+0CDBqe9ZK0PWoIhCQFgFjYaJbZPLXajZItfXPdlgK+UykHQ7FVVympEBcqARW7hRaAGj+NSf0hi3/WFyv4GogAASyIWDWb/k3kXcEcWESuHanVLN/K8FWZMMan3kAgWAi9U1pIgAOI6srRVpordAiQJ+58SkPmA6aCATKi0CETtUvaH9e6Nl/dWvGR8nkU+34oS+WtyNxN3EQIDrFdthemQzWf/l2oQUAd1BGXc+N4nQyagIE5EfAqNt0i8jkn5n9S3TqX7/Pv19+y0ALikLASrBFMgkAu/Mg+ewWsUWAf82JQGMSC2uKskxcDAROImCu2PYdn3+NsHv+OfnzyKTd1SdV+N+Op6fDxjyOgNlz8K9thx2VSQTIEAXQL2j/UxVSa3p8dKH5xSLAV/1rUze8JPrs33/VDrnIP8Fe9Xey9xbbP7heAQTsRLpNJgHAlbboawG4w9IXblqvgHmgCUCgYggYC5zbRSd/LdQq3+zfYbdUrFNxY7EQCDmpH0olABxG/qvuEvsxAA8LGs1kNm4NidXbqA0QkAMBY2nPDJ8mbsKfAWEi3eyfn/yXSP+LHFaAWpYcAZ4TwHZYWioRkIkCtIovAia0Hg0ud84teSfiBkBAIQT8jb2f0Ca0HhsgWVH/6pPWkR1LyRX+d1KPYe+/QoPFjaaEHFYvlQCQIC/AgNPSZ3Wk3egjlAEEPIEA3/I3q/PxgfEj8t/Ar3ZJRv6M7HhqvifsCI3MHQFr04GP2w47JpUIiKdIn7pB+CgAd2BGbXdz7r2BXwIB7yJgLEz0ikz6A3XTL2iXLesfFyuvWYn9H/SudaHloyJgx9laqQSAwyh480NSCACf3kzG0uSMUcHHF0AACFQZS5MLZXjuz0VA4OYH5Zv9O6mbYWZAICsCVpx9WzYBwOtrzI1JIQI0u+W40bD9K1nBx4dAwOMImMuS3/YFxN7vPzD75z5HRl9Z3d33ZY+bGZo/FgJ2nN0jm2EHm/eQLLMGne9pjiTfNVYf4Dsg4DUEzEjyHNFP+Rsgfx7Ns1Y/Ip0AsJx00mt2hfbmiYAdZ0HZBACvr7mkV4ooAHcixpxYH5IE5WmY+LmyCNTU7Hq7MavziTcJ1tck9Fg267dIR/7cR4bi6R8pa0RomDsI1Oza9XY7wQ7LJgKs9gOkWYKnCB7i2PQFic3u9BhKAQJyI6DPi90vC/nzNOTWxoMyCoCDfLu33JaC2pcFAdtJLZFNAPD6in5c8DAnpzWRubjnN2XpUNwECAiKgFnbc9uwcTFEJIv4eeAX98hI/hSKswsFNQFUSzQEJsSe/ICdYK/KJwJSpM/YKHT4cJhTM5rJX795rmj9j/oAgXIgYCzuWSHL2h0+bvWZHTJu++OC5fmJ7Y++uxx9insogoCVYNfIJwAYBZvkWRCYEQP+NSfMhmRQEbNBM4BATgjoS5NTfeYqecS63kzBVXuknP1biXQ0p07Bj4DAAAKB2OGP8qQRMooAvkhn2Exb8LCiZq057o9u/sEA9vgLBFRGwFia1DVJtvsN+BFz+TYpyd922Ms8oquyPaFtJULAirPrZBQAdudB4jm6BwavDH+1UOsxa8XtXy9RV6JYICAEAmb9lvO54JVhTA7UUZvcJuNpfycFSzx9uRAdj0rIh8DEHvZJ6dIDOyxj+IHfPkQ+TeztRAMO5s2/odZjRmTrN+WzFNQYCIyPgH/5Hd/V7LVvvGnvgkfmMvXUmjLZRqWcCDnsyMTu9IfH7xn8AgiMgoDlsN9LavxS5QYYcIr6xNaj/obNXxulO/AxEJASAR7dkuF0v4FxOPCX5xeR1f/ZTvpaKY0FlRYHgepE32dthx2XchB0HCStWvwjgweczcBfbcK614PL7/qqOFaAmgCBwhEwGzZ/R5vQenTAvmX5q01oJbtDyj3/XLQc9Xcd/EThvYYrgUA/ArbDVkspAPhhQTc9IN+jAL7laGLrUTwOwBCUHYHg8m0/lC7sn3k00UzB3z0k8eyf3SC77aD+giBgdx3+jKxrAbhwMSNJqRYEDsyQ+OFBZjT5E0HMANUAAnkhYC7dYsq24G9g7JmNW2Um/yP8ePe8Ogs/BgJjIWA77HpZowBWV4q0qRukFAH8dDQjsnXiWH2D74CAaAgE6pMhWU72GyD9gb/6tA1kx1LyCgCs/BdtOMhfH7vj0EfkzA54clcAT+LhMyRKPDJ0hbR/9QmzPjlPfitCC7yAQCbDn0xJfoaONWMVWZIm/OETNMthL9g9h9/vBTtDG8uMgOWwn8kaBeD19l+xXc4oAHdQehOZ4Z5by9zluB0QyAsBbqPcVgdm07L99V+9Q96Zf2YLdDqcV4fhx0AgVwSqk31n2w57TloREGdkXBST1jnxvAbG/O4kjhLO1WLxu3Ih4IvsPt24KHaPbIQ/tL7GgoTk5M/+iJz/5bJ4j97HSrBF0goAHiLjxwZPkG9r4DBHNafrQPXVybM9aoJotmAImJHkOfrMjieH2qhsr7VJbTJv+TspXOLp6YKZBqqjGgI1HU+8006wwzKLgOCtu0kzmuWNBPiaSJuy4WW9Ycs/qmZfaI9cCGiNvf+i17S9KhvhD6svf+7ftFv22f++ml273i6X9aC2UiJgx1lQZgHA686f9Q1zAkMXAknyWrPXHPc3JGdKaUSotPQIGEuSi2Vd6T907Mv/3J+RlWDnS29QaIAkCBCdYjvsTtlFgFnbLb0I8OnNfHFgiySWg2qqgECETjUWJnp9PrmjaFwEGHU9ss/8yY6zhApmhTZIhEAowb4mbYrg/gODMqcGTpM0P8CIKIU+s+PwhMatH5PIhFBVCRHwN/Z+Qp+58amhM2hZX+vTNxLPESL5ROaotSn1OQlNCVWWHQHbYTdIPnjIattHWmit/JEAvi5gQusxM9I7WXa7Qv3FRIDblow5/bMJFM1uIattr+zkT1Y8dZWY1oJaKY+Aldj/wUziiYEZtaR/g7c8LP2iwDednNFM+qLurkgkeZryBogGlgWB8yJ9ZxoLnNt9mvwhfz5O+ALg4K0PS0/+tsP+yLdml8UIcBMgkA2BUCI9V/YoAK+//9p7lIgCDAgB/YKNL5qXbf9Otj7DZ0AgVwT4SX56zfqXBuxK+r9aEwWu3akC+fPZ/6Rc+xG/AwIlQaA/OdDrKogAM7pVKRHg8685YS7edHNJOh6Fqo0AX+hXt+kWzb/mhPSkP2S9jP+S25Ugf9thL/taDr1DbSNE64RHwE6kfqkC+WfawDMF1m5SSwTwo4UvaH8+EL3z34U3JlRQCAT8y+/4rj6j4zmViJ+3xVjYzVfMqyIAeDsuFcJgUAlvImAlUt+zHXZCGQHA1zDEUqTP6VJOBPCDkIxF3TGestWb1opWj4dA5ln/ou42n6wH+QyZ6Y8UL/qsThVW/I8UL8eDTvqfx+tXfA8EXEcgENt3lu2wlFLk37+I0dp4kPQaNbYHvsUR1qx/2azfMsF1g0CBUiPAj5zWJ687MtJeVHiv16zPpABX0VfZTuoxnp1VauND5eVDwHbSN6k5oE6GCDPbAyU/M2BU580PFZrTdUBfnvyCfJaHGruJgC+S/LI+N7ZHhaQ+2exdq24lq1X+7X5j+Vorwa5x0yZQFhAYE4GQk/rhWAapynfW6kfIF2xR73FAf6hUC6w5YdR2r6u5rgMziDEtXr0v+WFSxsJEwmeuVmqR31ARwPN7WC2Pjgybq/j+eHW87zz1rBQtEg6BSc6h99kOe1wVkh+vHcGmPeQLrFFWBHCHyZO7mEt6r8Yxw8INt5JUyL+k93KeNGooWar2WguuoeCqPSqS/Wht6sNRwCUZLih0KAK2k24ajzRV+z6TKMi/WmkRwAlA5+sDlvTOGdrfeK0OAv5lm8O8j1Uj+7e0x7+a+JhVzQ/l0J7r1bFWtEQ4BGwn/eMcjFDJgRf83UOkmeqLAO5MtQvaX/DXb5krnAGiQgUhoC/unaVN3fDCW4hyjFXz0v7WXE2B3z6kpA/Kxfda8dQPCjISXAQExkKAp/21ndTTuRihqr8J3vwg8e100jrHPB2+Pr39eSOy5cKx7ALfiYuAsTQ5Q7+g/U9esVefuZq4UFfV/+TUrgQ77O9k7xXXKlEzKRGw42xtTgYo6XkAubaNOxifBx4HDCUNbcr6V4y6nuv4PnEpjddDleZnQPiX9Ub1qRvUSd+bi3Dl5O/hmf8I/3WLh0weTS01AqFEKjDCwDytsjOPAzwmArggyCwWDG9aY11+5wdLbXMoPz8EeJ+Y4Z4WfULr0aHizROv+TN/r8/8R0y8gon0T/KzIPwaCGRBYGJ3+sO2w56DABieQpQvMlJ9d8Co5OFffcKYF3/ArN9yfhaTwUdlRMCMJv9Tn+fs9AXUytk/qu2NiAZkVvv//g+enpBk880hhz01IfbkB8poiriVigjYCdaVzcDwGaPMFkGF8wTk4oQz6wSW9F7L95WraP8itskX2f4+c3HPb7RpG17waU2eWZMy0h41u4WsZk9t9ctP6MTZWhHtF3WSBAF+3CSIfvjMfyQePFmQpmrGwBGzrZEOeNh7/+oT+tzYo3zhGfIJlGCAR+hUM9I72ZgXf5AncBqGfT79pMhv9UnryFr7WH6EOCJMPnIsq/g+FE+bJbBGFKk6Av6ug5+wHfaiioPC7TZZbXtJn6rm2QGFEA1PMmPMj99l1N9uqT5OSt0+syEZNOY7d6ueuCcfO+PndPBU3W6PY0XLey7opM4ttZ2ifJUQIDrFdliPogOiJI4jc4DQhZ2eDceO6sBDXAwk7tGXJqfiJMLxnQTHKDPTn+9s54suR8VVkZl8vu3jp/rZGw+UZAwr7O86xrc8/AII9CNgJ9gshQdD6ZxHLJU5czxfp+aZ3/OzBy7sPGSGe271N2z+GgbcSQTMFds/ayzuvYofyqPZa457xh7yFDHGggTZXX2lG78qPyJIpCZivAGBcREIOoc+bTvsZQiAsZ/9j45PiszoVkQCxnPuWhPpk9uO8N0EPDc9J8FxjVORH/hW9HzeXJa8hEdGeI4FLy/ky0nsaE1krthGdrzQMYnrLIe9YG068HFFhhCaUQoEIhE61Y6zO0YnNwykXLHxX3sPaUYzhMB4QmDge62JtEltr+lzYvuMRT2rzfotE3yR5LtKYeflLJOftOiPbP2pUdv9O942bULr6zmR3gAuXv+rNxMfS7mOO/xuTB+9qYrolHLaP+4lEQKhROpiDKAxB1BejihziJCt7nHCJScyvZkyWQjndB0wFnXH/EuTEbMx+W0RdxnwDHyBxuQ3jKWbl/C66rO7+vTJ6474dIjAQu2Eb/NDgh/3/FHGt8fT0yWiJFS1XAgEYuzztsOOQAC4O+CsdXtJn4YdAoWSQNbrjGbSJq57XZ/e/owxr+sPxsJNnf663l8bS3ov1uu3/djtxwk8EuGLJL9sRpM/4Wcj6OHelcbCRII/szemtz+rT2w9CqJ3Nx+BfsFG4mMH/shdf8Qf74Zi6U+Vi1dwHwkQOC9Jp1kO24nB5vpgO+nAOg+SsagbjwPKGs5uJp9/zQm+fU6bsv5VfVr7C9oFG58zZnY8xRcijvyvz+x8kn+f+T9lw8uZZ/Oh1mOaH3vus4qwEvalUdeDxX6lXZB4O3/cKwE1oYrlQMB2UktA/iUi/yEDmT/L9NJpguUmDtzP3Vl42fHkz/svuxOz/iE+o1R+2XJS88rBLbiH4AgEnYNfsh32eqkMDeUOFxbBW3cjc2AJZ49lJy20xZXIljZxHQVvfRjkXwby7/fJr1mJ9BcEpydUr5QI+Fp2n247qQdB0sNJutR4WO0HyLgo5orjBOFJPuuFgCC+v58n0ir1uEP5w/1cyGH31uza9fZScgzKFhgB20ktx6AYPijKhkeckf/nd5NmroYQAAl60waMVeS/8i4Qf/lm/W/BOhRPLRaYolC1UiEQdFJftR12tGyEV0EjF7mNwVV7iOc2x0weM3kv2YA2ZT0FcZLfWwi5Ar7qWCjBkJWzVEQrYrmzYvvOsB32cAWMTQSDF68OXX392QOxZ9xLJOjJtvKsfkt6yepEyF8U/xty2O7qZN+ZInIV6lQCBKx46ipRjA/1GHwEEbjxAdKqWxENwCMBJW2AH+GLxD6D410k3xdyUo0loBoUKRoCoW72Ldthb4hkfKjLoFPgM6OTZwkgGuDJGbKK4qd/1m93YNYvsK87ZiUOfV00vkJ9XETASjz1V7bD9glshOKF5yu0diH424d4tjslZ4Igdu+sd9AmtVHg5gcxrivkR/L09Y/4Wg69w0XKQVEiIWA7qV/laRAYuBUcuJloQP0W8mmIBkA0SCYa9GYyG7cho18F/Udhvj51pUichbq4hICVSH3PdtiJwoxiMESN68uPhdW8h/SZHYgGqBgeV7BN+syNZK3ag8mDdOSf8W3H+WNil2gHxYiCgJXY/0Gs/C8/ebsmmHjegJU7SbNwuiCiAWJGA7ht8twWtpMC+ctJ/rzf9lR39X1IFN5CPVxEACJAYgEw4FA2HiBz6WY8FlBw5iytsOHh/votxDNcuiZ4B+wdf8uJKcjfRb4VsiiIAAVEgMMouPrRTApVaUkDBK7EIx19dhcFVz1STpLCvUojikD+QjJ2CSoFEaCGCOCzreBND5I2FZkEIYTK+1iA2xzPW4EZvxK+BORfAp4VukiIACUGbr8DTp1cH4AkQkrMqkUWM3xrauCXu/CcvzSz8EoIKpC/0ExdwspBBKgkAhjZsdTJA4ZCyCYoMonKWLfMAr/L7iSrCwv8FIp6gPxLyK9SFA0RoJgI4DOTrj7yX7GdfDZ2DMhItiLVWQutJf/l25G7X50Z/0CUAeQvBUOXoZIQAQqKAIdlnDZ33hoiAng0kOeiS21CK/mv3oFEPuoRPxcAIP8y8KpUt4AIUFMEZMKV/NEAzyEwZT2IME8iFGk2Xo66aJPbKHDtzszjJIVC3QOzXvwF+UvFy2WtLESAwiKAz2TijILX309861Y5yAT3KO/K/GLw5pkmA7++l+w4nvErLHww8y8ro0p4M4gAxUVAf0gzeNvuzLnsmrkaYsCjUQHNaCajdhMFm5G2V2HSH4h6gPwl5OOKVBkiwBsigDs9a8P+zCIvflZ7MTNIXCvRbH/SOvL/7I5M33uA+AYI0Mt/Qf4VYVKJbwoR4B0RcJIEUhS88YFMdkE+MwShy0PoufRVZra/sPvk0bxxr9m2p9sL8peYhytadYgAbzoOntPdf9UO0i9ohxCQ/PGAPm0D+a+8C7N9NVfzjxfVAPlXlEEVuDlEgDdFwEBomB/raka3Eh4RyBMR0Ce3kbliG1mrHx2PIPC9usIA5K8A/wrRBIgAb4uAATEQvHV3RgzwdLC5hJ3xm/KJBr5vn5/IF7ztYZC6uqSea9+C/IVgToUqAREAETAgBPhfLgb8y7eRNq2dfFr5iA6ioh9rrSmDvf+SOyjYhFX8Q23T469B/grxrlBNgQiACMjmXK22vRS45m4yLnbIh22FJYuOaP7VpM+LZzL0Wev25jobxO+8ExEA+QvFmApWBiIAIiCbCHjzs1iKeI4B/2V3nkw4ZKwqGSEqHw3QmjMLMfkajODNDyI7n3eIvBDRBvJXkG+FbBJEAETAm4Q/nlPu6stsPTOXbyNjboy0ABIPjSpc+Ax/TozMFbdT8KYHyeo4WAgR4JrxbFK970H+QjKlwpWCCIAIyFkEDHO4KbJWP0KBlTvJWNx7cg2BF6MExirSp2/MZGP0//xuCq7iz/GRhrcwm/L0WAT5K8yzQjcNIsDTjse9mWaMi4JHKfCrXeRv3EbGvDhpk9rIpyuQkEhvzrSFP7s3G7aQ/xe7KLjqEeTcHyYKMY4KFD4gf6EZ0gOVgwiA8yrQeY0vIPh6gjWPUuCGB8h/1V1kRjaTMc8hfXo78XPqfT5BBILdknlWr1/skLksSf4rtlPg+vvIankUz+1B9OPbeWEYgfw9pfgJhAAADB5JREFUwK9SNBEiACKgZCJgLOfIIwdteyl4y8MZkRD4xT2ZrHc8CY65bDMZi7ozqY356YeZ/xdsPEnUk9syiY14cqNh/6dtyHxvXNiZWa9gLEhkDssxlmwmvoaBE7v/2nsy9wre+jBZax8ju6uvVA4e5Y7V997+DuQvBTN6qJIQARABFREB3iYCiATv9T/I30O8KlVTIQIgAiACYAOwgZLZAMhfKkb0YGUhAko2+DHb895sD32OPh+wAZC/B/lUyiZDBEAEYBYIG4ANuGYDIH8pmdDDlYYIcG3wD8wA8BezQdiA92wA5O9hHpW66WbPwb+2HfYwZgIQA7AB2ABsIG8bAPlLzYCofBVEQN6DHrM8783y0Ofo85E2APIHf6qBAEQARABmf7AB2EDONgDyV4P60IoBBCACch78I2cCeI/ZIWzAOzYA8h8gDfxVCwGIAIgAzAJhA7CBUW0A5K8W5aE1IxEIOqlzbYc9orgTeFnx9mFG6p0ZqSh9rfSYshLsoQmxJz8w0l/iPRBQDgGFIwHHbIdd6ms59I6Qw2zbYX+EEBh1tiMKsaAeYouZ52yHza5O9p1px1nEdtgbCo4pzPyVYzk0aEwEFBQB+4NO+p+HNro62Xc2FwS2w15X0GmBOMUmTtn755gVZ9fZPYffP3RMWYlDX1csggjyH9rBeO0dBBQRASe4o7IST/3VaD0XjB/8O8tJxSECEA2ADeRgA3HWayXSXxhtPPEIW7+wPi45niD/0ToZn3sDAZnXBFhxdmDkrH+sXgs5qf+xHdYnudOSfWaJ+osbudhvO+kfjzWGhn5XHe87T9bxhGf+Q3sSrz2NgISRgMys35d8+l35dlzNrl1vDyVYje2wJyEEcpgNiktWEBLu9c0ztsMWzortOyPv8dTxxDutBLvGdtgJicYTZv75djR+rzYCEomAJ+wE++9ie4M/MuBOz3LYCxI5LpCee6QHLB32Zx7KD8T2nVXseAp1p//ddlhagrEE8i+2s3G9mgiILgJCCdYyyTn0PjfR54uc+p9nHpHAeYG0IADcsIHX+boZPt7dHEs1mw68J7NwUNw+Avm72eEoSz0EBF0T4Mqsf6zeqo73/Z+Qw35rO+wohAAeDShqA3w3zA3WpgMfH2ssFPtdMJH+SchhT4mEIZ75F9uruN4zCIgUCeCzfrPjiXPKBb6/6+AnMs80E+xVkRwY6gJRUoQNcOK/JRRLf6ps46iTvddOsFuLqLMbkY6BMjDzL1fH4z5qICCACPiTHWfBSqHZ336eQ+AVQZzYgDPDX3FDzKL1zcsZMdtx6COVGkdWnPlsh/FFhpXCBuRfqc7HfeVGoGIiIMG6JnanPywCejz60J8B7fkKOrFKOU/ct3LEVQz2L3Hir+7q+5AQY6jn4F+HnNT6CowfkL8IBoA6yItAOUUAX5HPt+iJiBZfKc1Tosq677kCzrcYAsO1BQgPnheD72zxd7L3ijiG+qMBfyqTLYL8RTQC1Ek+BMoiAuIsEYgd/qjo6EQidKqVYOfbDttUJkcGMiyADD3VN3F2ByfX85J0mujjp3+RcWeJ+wfkL7ohoH5yIVBCEcCfsc+uIjpFLkSqquxY6iv9256whRAkXW6h9jpfIMtz88s2bvhY70/GxfMQuI0byF86g0CF///27ifEkqOOA7gxkCAkIYeoBxE8hATUg39AkOSkwXgQQw5DXHZf9SZe3UvIHz2YhCCoYECIFw8KHgLJHELC6nT1ENmDiheNiG4wbsh29WxWDZGAGBI22UzozUxclnF2+nVVv3nZz2F4w7zu6p7P7/Xrb1d3dS+FQO4hgrPYHeuH3y3FP7/LSvYuVZ2+E2J6ocAXWu4vSO3l3+lMaNo+P4vpvlnzwkd2+UguxVv9qIQQ029ybTOG+i1F2a3kMgtk6Ql4d4jd/X13+jJb7LTuVZM+v9UrYPTAUu9osx+ZjgkJr/dH+yGmW5axp2yn7eS9v/2vN2Ds9uLI/z1UvxAoKDAqBDTd7/un8xVcvX3RdH9XtK1uzmdzHeFoZ1/tlMfs0Pc0bxXT8f6ivgsfybsvPuCZV2Jkb4Cdf+Z6aI7ArgJzhIAz/XC6ldXNy3dt+H34ZhXTp7aGEjpFoFfgYjv/rh/CN6vTze/DTWHXf6m/iPFc4InpjQFh185/V1VvEigksPcQ0P758PrJzxRajaVq9twpgnefnuZphMLAdhh4pT9tdG6nv4QXw+beAGdN9+kqpj/uIQTY+efG1x6BIQIXuTDwTGjSg/0jeIe0eSlM2x/tHI4bX916/sAi75S2vRPyOm0g+Vd/X/7+vP6l2Ct2sW18ZfX4FVVsvxdienOnIOCCv4sJep/ARAL/pyfgr/3R7kSrsNSL6S+G7K22ThP8YacvPH9b/vP//Y16zt2aN6ZblmHM/n7YqELc+EKI6bkLPv+O/PdDcawDgW2B83oC3gp1+v6RtRNXbr/ndZhAf5FkqNt7t4ZIvXXBl58j9WmP1Md4v9kPdQ11d/ehuHH9sE+BqbcFVlY3PhRi+0iI6awj/20VrwT2mUAfApbyxiT7zPH81elHE4TY3RZi9+gOR0Jjdk7mLRMk/hJi+nF/t8i7nv7b1efX0u/jBKr1dNOda//48LhWzE2AAIElFegfklTFFGYx/SLEdFrvwIJPDTTpVH8dR9W0B/fLw3eW9KNttQkQIEBgrwKzpv2SALDgAFC3X9xrvUxHgAABAgSyCBw+dvLaENPbQsDCQsDZlWMvX5WlmBohQIAAAQJDBDyeeGE7//4aiueG1Mq0BAgQIEAgm0Bouif1ACwqBHSPZSukhggQIECAwBCBENvvCgCLCQBV094zpFamJUCAAAEC2QRCk74mACwoANTpy9kKqSECBAgQIDBEIBzd+JgAsJgAcODo6euG1Mq0BAgQIEAgq0AV0z+FgKlDQJeyFlFjBAgQIEBgqECoUyMATB0A0lND62R6AgQIECCQVSDE9AMBYOIA0KQHsxZRYwQIECBAYKhAaLo7BIBpA0BVd18fWifTEyBAgACBrALhV6duEACmDQB3Ni99PGsRNUaAAAECBIYKPPTQ5gdDTP8RAiYLAa8MrZHpCRAgQIBAEYFQp98KANMEgCqm9SJF1CgBAgQIEBgqEGL3qAAwTQCYxfTDofUxPQECBAgQKCIQmvYuAWCiAFB33yhSRI0SIECAAIGhAmGt/awAME0AOFS/eOPQ+pieAAECBAgUEVhZPX5FiOkNIaB4CPhvf9FlkSJqlAABAgQIzCMQYnpWACgeAH43T23MQ4AAAQIEigmE2P1MACgbAKrY/aRYATVMgAABAgTmEQix/ZYAUDYAzOr2m/PUxjwECBAgQKCYQLWebhIAygaAQ7H9XLECapgAAQIECMwjsHLs5atCTGeFgGIh4MyRtRNXzlMb8xAgQIAAgaICIbbPCwDFAsCfihZP4wQIECBAYF6BENPjAkCpAND+fN66mI8AAQIECBQVCDHdLwAUCgBNOlK0eBonQIAAAQLzClTr3VcEgDIBYFanm+eti/kIECBAgEBRgQNHT18nABQJAG8fXDtxTdHiaZwAAQIECIwRCE06JQRkDwF/H1MT8xIgQIAAgeICIaajAkD2APBE8cJZAAECBAgQGCMQYvewAJA3AMya9O0xNTEvAQIECBAoLhDq9nYBIHMAqLtbixfOAggQIECAwBiBw/XJTwgAeQPAgWde/OiYmpiXAAECBAiUF9jcvCzE9G8hIFsIeKl80SyBAAECBAhkEAh1+rUAkC0A/DJDSTRBgAABAgTKC1Sx+5EAkCsAdA+Xr5glECBAgACBDAJV0x4UADIFgLq9PUNJNEGAAAECBMoLHFxLnxQA8gSA/qLK8hWzBAIECBAgkEFgZXXz8hDTa0LA6BDw6gc2Ny/LUBJNECBAgACBaQRmMT0wq9NP/YwwcAOgaT6slkKAAAECBAgQIECAAAECBAgQIECAAAECBAgQIECAAAECBAgQIECAAAECBAgQIECAAAECBAgQIECAAAECBAgQIECAAAECBAgQIECAAAECBAgQIECAAAECBAgQIECAAAECBAgQIECAAAECBAgQIECAAAECBAgQIECAAAECBAgQIECAAAECBAgQIECAAAECBAgQIECAAAECBAgQuFQF3gERDK0rkN1C3QAAAABJRU5ErkJggg==;" parent="1" vertex="1">
          <mxGeometry x="-25" y="570" width="71.39" height="71.39" as="geometry" />
        </mxCell>
        <mxCell id="7F3EquHxu8-Q1DY4XxR6-81" value="" style="shape=image;verticalLabelPosition=bottom;labelBackgroundColor=default;verticalAlign=top;aspect=fixed;imageAspect=0;image=data:image/png,iVBORw0KGgoAAAANSUhEUgAAAgAAAAIACAYAAAD0eNT6AAAAAXNSR0IArs4c6QAAIABJREFUeAHsvQl4XEeVNqyEkAQGQoDAENZvgGGA4WedGfiAGQLDbDABPmb6Lt19b8ub7HiJ7The1PLSUstOyEoctqxAEsm2LMuWJXXfliW37SSO4zgrsZN4U1fbWchCFpI4sWOfn2pL0ZKW1Mvt7qq6r5/Hj3q7daveOnXet86tOlVVhX9AAAgAASAABIAAEAACQAAIAAEgAASAABAAAkAACAABIAAEgAAQAAJAAAgAASAABIAAEAACQAAIAAEgAASAABAAAkAACAABIAAEgAAQAAJAAAgAASAABIAAEAACQAAIAAEgAASAABAAAkAACAABIAAEgAAQAAJAAAgAASAABIAAEAACQAAIAAEgAASAABAAAkAACAABIAAEgAAQAAJAAAgAASAABIAAEAACQAAIAAEgAASAABAAAkAACAABIAAEgAAQAAJAAAgAASAABIAAEAACQAAIAAEgAASAABAAAkCgVAiE4qnFVpxdh/+FY8AxLFX/oFwgAASAABAAAq4j4Guht9kOe9l2GOF/URi8wrF0vYNQIBAAAkAACACBUiBgbUp9DsRfFPG/KZyqE32fLUUfoUwgAASAABAAAq4jYDspPwSAOwIgFE+brncQCgQCQAAIAAEgUAoE7Hj6cggAdwSAnWCXlaKPUCYQAAJAAAgAAdcRsB3WAwHgkgBw2CbXOwgFAgEgAASAABAoBQK2w56BAHBNADxbij5CmUAACAABIAAEXEXA2nTg4yB/18g/sxhwQuLxj7naSSgMCAABIAAEgIDbCAQT6Z9AALgrAGwn/WO3+wnlAQEgAASAABBwFYGQw+ohAFwWAHEWcbWTUBgQAAJAAAgAAbcRCMXZRggAlwWAw9rd7ieUBwSAABAAAkDAVQRshx2CAHBdAKRd7SQUBgSAABAAAkDATQTsnsPvB/m7Tv6ZhYBmxxPnuNlXKAsIAAEgAASAgGsIBBPs3yAASiMAbId937WOQkFAAAgAASAABNxEwHLYAgiAEgmAeGq+m32FsoAAEAACQAAIuIZAKJ5aBQFQIgHgpJpd6ygUBASAABAAAkDATQRshz0KAVAqAcAecbOvUBYQAAJAAAgAAVcQsBJP/ZXtsOMQACUTAMd9yaff5UpnoRAgAASAABAAAm4hEEykvgnyLxn5Z3YC2PHU/3Wrv1AOEAACQAAIAAFXELCc1AwIgFILgPR0VzoLhQABIAAEgAAQcAuBUCJ9IwRAiQWAw25wq79QDhAAAkAACAABVxAIOexeCICSC4BdrnQWCgECQAAIAAEg4AYCvpbdp9sOew0CoOQC4HWOtRt9hjKAABAAAkAACBSNQHV335dB/iUn/8xCwKBz8EtFdxgKAAJAAAgAASDgBgIhJz0BAqA8AsCKp6vd6DOUAQSAABAAAkCgaATsOFsJAVAmAZBg1xTdYSgACAABIAAEgIAbCNgOux0CoDwCIOSwbW70GcoAAkAACAABIFAcAkSn2A57EQKgPAKAYx2J0KnFdRquBgJAAAgAASBQJALV3Yf+FuRfNvLvXwh46NNFdhsuBwJAAAgAASBQHAIhh2kQAOUVAFac+YrrNVwNBIAAEAACQKBIBOw4uwQCoMwCIMFWFNltuBwIAAEgAASAQHEI2A5zIADKLACcVLy4XsPVQAAIAAEgAASKRCDksKcgAMorAGyH/bHIbsPlQAAIAAEgAAQKR2Bid/rDIP+yk3//QsDUuYX3HK4EAkAACAABIFAEAiEn9UMIgMoIACue+kERXYdLgQAQAAJAAAgUjoDtpJZAAFRGAITiqcWF9xyuBAJAAAgAASBQBAJ2It0GAVAZAWA76XVFdB0uBQJAAAgAASBQOAK2w/ogAColANjBwnsOVwIBIAAEgAAQKBCB6mTf2bbDTkAAVEwAnPB3svcW2H24DAgAASAABIBAYQjYTuq7IP+KkX9mJ0B1vO+8wnoPVwEBIAAEgAAQyAOBiT3sk6EEqwklWIvtsGchACorAGyHvWQ7bJPtsIWhBPtaHl2JnwIBIAAE1EGA70nHjMjd/gw6qXPtOAuGHPZb22FpEH7FCT8z8x+jH9K2k7o5lEgFqrv6PuSuNXi7tFA3+xb3Md5GAa0HAgIi0J+QZm/mmXScrazpeOKdAlZT/CoRncJnkiGH1dsOu38MohmPiPC9I4RYuI/3ZSY6QHSK+AYoXg2rk31n2vH05bbDjtsO2wsRIF4foUYeRoDPdGyH7RlBVget2KHveBiWnJt+XpJOs+Ls21aCXYNZvhCkXSrx9EfbYbdYCXb+rNi+M3I2EA//MOgc/JLtpB8Y4Vv22h2HPuJhWNB0ICAGAkNm/tmc5ht2gl3GFbwYtRWnFhyTkJP6n/5n+fw5cjb88Jm6uLzE+96Kp36K8fHWcelr2X16yEk12g47NsrYQCTgrbDhEyBQPgRGmfm/hbRCDttdHU//Y/lqJuadfC30tsxMP86usx324iiO7S344XfKi6NXMmIgwc6v2bXr7WJab/lqZSXSXwg57N4c7B6RgPJ1C+4EBAYRGGfmn43EjtlOusFzDo7olKCT/mc7kfql7aSezsGpZcMOn6kbCRjRt6mnua1woVjlsTUD/FEYT69sO+z1PMYJIgGDbhmvgEDpEch15j/KIP5D0El9tfS1rOwd+jFaaDts/yg4jHD8ys9y0d78RQzf9XGptenAxytrzaW/eyDGPm85bGeBYwWRgNJ3Ee4ABKqqiiT/ARI4yh2batGASIROtR32/f7n+ryNA+3FX2BRjA3w1e+brDjz8VmySn6Ijxme18J22CtFjheIAJUMA20RD4ECwv7jOL3UjupE32fFa2l+NfJ3HfwEf7xhJ9jhIp3YOHhBUHge3wQ7bCXSUW5z+VmpeL+u7j70t3ac3eFin+JxgHjdjBqpgIBLM/9sBHeEZ1HjC+Rkw4nv7ebbusZYqZytvfgM0QA3bIBHBTp4xEm2ccPXNvTP+v/sIvkPYIpIgHQGgQoLjUAJyX9g0PK/2+2uw58RGoiqqiq+PYmHYu1E+q4SOK+heOA1hEKuNnAfJ1Rfy6F3iD5+MtGyOOst8diBCBDdEFA/ORAoE/mfdHQJ9iqPBvDngqKhYyX2f5DXzXbYoRI7r1ydPn4HgTDSBniioUtFTZITcpjdf3bCyHqX4j1EgGhOFPWRC4Gykv9wZ357KJb+lAhoTUg8/rH+DH3FLlIqhZNDmcPtBnicxINvo7tFlDHE/UgozjZWQDhDBIjgRFEH+RCoIPkPOPEXeVizUnuhq+N9/6ef+PkahYE64S+wkMkG+E6UWyr5aC3zuMxhz1VwDEEEyEc/qHElERCA/Ic6WScQO/zRcuHBZ03WyUx9o6UgHVo3vIYgkMEGjvOtqXyvfbnGUeaRWSLdVkHiH9ovEAHl6njcR24E3N/q58rs+TnbSflLiSzfjmg7bE3/iWNDnQdeg+RVsYGMECj11tuQwzTbYc8IQv4DfYctgqV0oChbfgQEm/kPDNyhfzuDTupcN5HmC6Yw43dFpA3tJ7wWWzRlhICVSP2Nm2OpOtl3dv9YErX/EQlws8NRljoISED+/U4l9TQ/Ra9Y5Cc5h96XWTF9cueBqA4L9RKbSGXvn9c5YfNwfbHjyU6k/kuSRFgQAcV2Nq5XCwF5yH9wpppJt9tz+P359kRNxxPv7N/O97xgIUrZyQT1l1es8IQ8lwZi+87KezxtOvAewWf92ewSIiDfjsbv1URA0Gf+2QZtts8et+KpH+TUMzz72Ml9yI+D+AeFFLAAFkNs4Ak+RnLdeWPF0/8hcV4MrAnIyXHiR8oiIOPMf4izelMQ8GiAv5O9d7SO4qcPupxz/M17Z6sPPgOpSm0DcXZPMJH65mjjiUfR+rfInpC6nQ5DJGC0TsbnaiOgCvkPOqA0C8XZvw7tNbvn8Pv7HdUbg78DOQEL2EAONsDJ/RbuJ4aOqVA3+5btsH05XC+LSIYIGNrBeK0+AuqR/5sO/QR/HsmjAbbDZlsOe0EhRyWLQ0U95V0LkK3vXrbjLMJX+GcWzTqMH0KU7XcyfwYRoD7toYUcAcmf+efqZHgq1Fx/i98BK9jA+Dag+pjCmgBQpNoIKDzzhwMf34EDI2AEGxjbBhAJUJsCvds6kD8iAoiKwAZgA+PaAESAd2lSzZaD/Mcd9JgZjT0zAj7Ax0s2ABGgJhV6r1Ugf5A/Zn2wAdhA3jYAEeA9ulSrxSD/vAe9l2Y5aCtm9bCBsW0AIkAtSvROa0D+IH/M+mADsIGibQAiwDu0qUZLQf5FD3rMjMaeGQEf4OMlG4AIUIMa1W8FyB/kj1kfbAA24LoNQASoT59ytxDk7/qg99IsB23FrB42MLYNQATITZHq1h7kD/LHrA82ABsouQ1ABKhLo3K2DORf8kGPmVGWmZHVlSJr3V4K3vIwBa+/n/zX7CT/ZXeS2biNzGWbyQxvIv1ih/TZXaRPbyf9gv7/0zaQPmndm/+1KesHv7uw8+Tv58TIWJAgY2F3piz/JbeT/8odFPjlLgre9ABZTbvJat1LdudB9E2WvoEQKKlPgAiQkyrVqzXIv6QD3dPkYnUeJGvVnpPkfuVdZC5LkjEvTpywteAa8vmaxPgfWEP6tA1kzHfIrN9yUihcfz8FVz0CgQBxUKoxDBGgHp3K1SKQP8jflZleLJUhy8Cv7yU+0+Yzb07yPl+zGARfrNDgAmFmR0bA+K+9h4K37Sa7q69UxIByvSM6IALkokx1agvyB/kXRP6c7Jv2UOCau8lc3EPa1A3k0xUh+nyEgt6cabuxqJv8V95FwdseJjuWAnl7h7zd6muIAHVoVY6WgPxB/jmTf8dBCtz4QOa5PJ8F+4xVaszq8yH7XH9rribjwk7yL99GgRseIKv9gFskgXLUFhYQAXJQp/y1BPmD/Mck/66+zCI5M7qV9OkbvTm7z5Xwx/1dM2k1G8iMJDOY4rEBxt4YYw8iQH56FbsFIH84oGwOiK+G9//87pPP7v2rMcMfl9gLXLxorMrsUOA7HTLrCNSe1SJqkX//QgSITaHy1g7kD/J/k/zjLPPMms/ytSltIPxSEf445WqT2siMbKbg7x4i28H6gTftM3/iVElsQATIS7Ni1hzkD/LnBMNnnXyVPiceYbbgjUOSnqlnsIWM2k0UvPlBiAFvCwAuZiACxKRS+WoF8vc2+Qeb92T2tmuhtSB9ScSGVt2a6bPgrQ+THfe2/Xo4KgARIB/dilVjkL9Hnef6/eS/YnsmuY1nZtCSkHu+/cEzHvp/dgdZbftUCnOjLblFOSACxKJUeWoD8vca+acoeOMDpM+LY+W+imJAbybjYiezvdCOY72AhyIDEAHy0K4YNQX5e4f8LT7bv+xO0iauQ4hfReLP0ib+OIcv4LTWPoaZdG4zadlxgggQg1rFrwXI3xvkz58P84NuPJmFLwsp5htaV+P3zZnzC/hhSh6aEXu1rRAB4tNvZWsI8led/FOZg3X46XhqEFiB++khAN7S//ykRH5OAdIRK+0DIAIqS7Hi3h3kr+7A58fmcud+8oAdkCbEz+g2kFk0eOVdOMVQ3UcDEAHi0nBlagbyV5P8+XG6fDW/Zre8ZcYHEhydBIFNE2lWC5mX3kFWx0GvhsxVbjdEQGWoVry7gvzVI/8M8V95F2HvPki+WDHDhQBP/mRDCKgmCCACxKPj8tYI5K8Y+Xf1kf9yzPiLJT1c/1bhxKNI/NhiHEiklM+ACCgv5YpzN5C/SgM5RYFrdxLPAAfyeit5ARP3MOE25r96BxYLqrNGACJAHFouT01A/uqQP8/9rk/bAOLHyv6y2oA+uY0Cv75XtbC4V9sDEVAe6q38XUD+apC/1byH9NmdZXX6mEm7N5NWBUt9Toys1Y94lThVajdEQOXpubQ1APnLT/5W+wEylyWRwAczfnHEn95M5pJesjbsV4kQvdgWiIDSUnDlSgf5y07+KfJfszOzPUuV2SPaoVZEQQuuIf9VWB8geVZFiIDK0XTp7hzqZt+yHXZccuP0oiqn4G27SZ/eLs6MD7Nv9MUYNsCzCgab9nhyrCrgX49Xx/vOKx0ToeSKIRBy0lcoYKDecSx8W98ltyPcPwbZIIogaBSBPxZYlkRGQcl2C1gJdk3FCAo3Li0Cs2L7zrAd9geIAPEfBwR/9xBpk9sw0wT5S20DPLUw36kCnyO+z7Hi7IAv+fS7SstCKL2iCASd1Fdthx3FgBRzQFobD5JR10M+TdCZHQhZakKuSMREayJzcQ/xBazwO2L6Hf54OOik/7mi5ISblweBkJNqxEAUbyAGb36ItAlI5lMRkoKwKbmw4ampgzchGiCo7720POyDu1QcgZpdu95uO2yXoIbovVlCVx+Z0a3k8zWX3AmDXBFZqagN8GjAsiTxEyrhf4SZhOypTvadWXFiQgXKh0DQOfgl22GvYxBWdhAGV+0hbSoy+VWUlDD7L7vw1GvWU7AZOwUE8L/HquPpfywf8+BOwiBgO6klAhigN2cCcZY5qtenY9YP8vdoVMJYRQF+rkC8siLc0z4wziLCEBIqUl4EzkvSabbD7vb0AKjANh2+GMqY55R91gWi9SjRCh7hMC6Kkd2OLIIV8MP3+1p2n15e1sHdhEKgOtH3WTvBXq2A8Xly5h+8dTfxrVEgY5AxbGDQBvgpg8FbHvakT6iQ732tuuvQ/ycUGaEylUHAjqfmV8gIvTPgEfKH6BF8Jl5xQcIfCazc6R2fUIHo44CftxJsUWXYBncVDgFfC73NdtidA8aBv+4+k7Q6D5KxsBsEWEYC1MxVpNlr39Antx3RL2h/Xrtg43PGrI7HjQs7DxlzY4/pc2N73vL/wk6mz+w4zH+rT9vwojal7VVfaO0bPmMV+q6MfWcs7sUugVKKg0T6Lu7zhSMiVKhyCFR3H/pb22GvgPxdJv/WvaRPwyp/N2eXmn/NCb2m7dUMmc9P7DBqu9fpi3suM+q3TPE3bP5a9dXJs90eSWYkeU6gMfkNs37LBGNpz6XGou42Y37iHp2Lhpr1L/M6udlGr5elT99I1rq9iAa4LQQS7NVg/ODfuT0+UJ4CCITi7EIIAPcEQCadr9WC2WOhs0dzFelT1/+Zz9TN8KY1RmTLhWZk2xdFHWr2Jdu/4q/fPNeo7W42L4rt5nXnkQivk3mh7desFuJjCD7JPZ9kOWyOqOMH9aowApEInWo56SQGXPEDLvDzHTjEJx/i15uIh9z1ubHdRl3PjcHl234YiSRPq/CQKPr2vsju03lbzMU9v+Ft448kkPBpcPHfuOJAb6bAL3dBBLgRCUiktnAfX7RRowB1EbASqb+xHfYSREChIiBFZsMWzPrGI3+tmXjoXJ+fuMtcurnWuvzOD6o7qoa3bELj1o8ZS5KLedu1KetfgSAYRxBoTeS/9A7kCyhOBPx5Yg/75HBLxDsgkAWBUILVQAAUIAC6+shYkAD5j0L+mt1yXJ8be5Q/Q+ckmMX0PPmRvuLuz5hLeq/m2GjWmuPjzopHwVf164xwD9kxpBAuxDdbTnqaJwcXGl0AAkSn2A5zCjE0r15jbdhP+swOkP8IcuIhb2O+kzQbksEqhB/HHYz8sYcZ6Z1szI/fpU1a95rqpJ5v+4zZXThVMN9IQJwlqohOGdf48AMgMIDAxO70h22H/cmrhJ5Pu63WvaRNagP595O/NrntNWN+dzIQvf2/B+wJfwtDIBBN/re5ILFVm7D2aL5kqerv+TkCfMzlM0a9+tu/LPp7wdp04OOFWR+u8jQCdoKFvDpwcm23tfpR4lnMVHW2ubZLs1qOG/Pi9/kbe32eHjQlbLwR2TpRvyj+gC+ILYf82OzgmkchAsaLBiRYqIQmiaJVR8B2WHuuZOi13wVv202+oIe3+fGFfDM7njQW96youa7jnaqPBVHaF4jsOEsP967UZ3Q859PGWUA34pFMroJOht9pobUUXPUIRMDoIqBdFJtFPSRFoLqr70O2w571GrmP116+P9nnX+3JmT9fqMafUfPEOJKatTLV9i+/47vGfOdun1cTEQVbiAvx8carB79/lvtuZQwdDakcAlY8bXhwAI3qVAI3PkBeTA+rTVn/qlHXcx2fgVbOGnHnbAjwbZRmuGeVNnHd6zLM3t2soxZYTcHf/2HU8epJ35VI69nsBJ8BgYIQCCVYiycH0ojwWvAm75G/fkH7n/zLNoexir+goVPeiyJ0qrG0dxk/y8BNkhW+LHM1BW5+ECLgpL9aU16jw92UR8DseOKckMOe8rIICN70oHdm/loTabM6nshs31PeutVsoFm/ZZYxY+OzwpO3W+sU+GmCHhcB3EdzX62mRaNVFUUgmEj/xKsCIHizd8hfm7HxjyD+ig41V28eqE+G9Ontz3hCCJhefxyQ/rGrxoPCgMBQBGyH3eI1ERC8+SFPzPz5qnK+1Wxof+O1Ogjww5T0qRteUl0IZNYEeHBhoOWw36tjrWiJkAj4O9l77QQ77BURELztYdIUX+2fSdyztHeZkAaHSrmOgLm0t1Gb1KZ2lkG+O8BbWwQPVSf7XD8G23XjQ4HyI2AnUv9lO+yE6iKAJ/lReZ9/Jjd/eNPv+Yl18lslWpAPAudF+s40anvW+gLqJhXieQKsFk8kCzphxdP/kU//47dAoCgEbIfdoLIAyKT3VTXDn95E+sXO/XZj70eKMgJcLD0C+uLeTxnzYg/6dDUTCvGMgaqnDQ457NfSGyIaIBcCgdi+s2yHpVQUAfxgH22ymrn9+fYwI7Ltf+WyNtS21AgE6pM6P55ZxfUBmbMD2g+oukXw4MT2R99davtA+UDgLQhYidT3lHsU0NVH+oyN6mX48685YYR7bsJe/reYMT7oR4A/CuKPBTQFswryUwQVPEr4uBU79B0YMBCoGAIhJ/0LdaIAKTIWJJQjf76f3xdJfrliRoIbS4WA3rDlH/WZG59SLRpghHvIjjOVIgE/l8qwUFn1EOArT22Hva6CCDCjW5Uif56z31zaCyeh3rArS4uMup4bff7VJ1QSAv5L71BFALyG0H9ZhgFuMhYCdjx9kQrk71+5UynyN6a3P2tfsv0rY/UdvgMC4yHAI0c8MZQyIkBrIv+196ghAhJs1nj9h++BQMkQsBL7P2g57AXZBUAm0Y/erIYAMFYRf46LZ/0lM3vvFRyhU/WFm9b7DEXGiN5M/DRP2f2W7bA/Ie2v94ajMC0OJdI3yj6IMtv9rBYlyF+b1HbEjCZ/IoyBoCJKIcDTQ+sTW4+qEA3QrBay1u2VXgRgC6BSQ0yexgSd1Fdthx2XWgDwFf8XtCtB/vrszoP8SFh5LAg1lRGB4HLnXG5rKogAfdoGsrv6ZBcBx63u9D/IaEuos6wIEJ1iO2y71OTvMDJru+Unfx7yr9t0i6ymhHrLiYBR293sU+CxmbG4V3YBQCGHbasiOkVOS0KtpUMg5DBbdvL3X7FdfvIPtR4zl24xpTMgVFgJBPSlyak8nbTs0YDAyp3SiwArnjaUMCo0QmwErMRTf2U77AmZBQBfACT77IVn9DNXbP+s2NaC2qmOAN8lIP0Jg8YqCt66W3YRkK5O9p2pur2hfRVGwEqk62Qm/0yaX8lz/BtzYwcCK3ecVWFTwO2BQAaBHy24493G7K4DMkcC+JkBdvt+qUVAKJG6GCYJBEqGwCTn0Ptshz0vrQCIMzLmxSUO/TeTviixsWQdjIKBQKEI8K2CCxKbfZq8hwpx3yB5psBnazYdeE+hXYjrgMCYCISc9BXSkr/DSOrn/kYz6eHelWN2EL4EAhVGwFjce5XPWCWtyPZfvUPqKIDtpJZX2ARwexURCMQOf9ROsFdlFQD8GZ+sz/21wJoT5pLeOSraFdqkHgL++s1zfbIeKGSsImv1IzKLgJeDTupc9awKLaooAlIn/ek8SLqkx/tq9to3/JGtP61o5+PmQCBPBHjSIH4WhYzrAnh+AKsrJbEISP0qz+7Cz4HA6AgE4wf/znbYMVln/+bSzVKGJLUJrcf8y+/47ug9g2+AgLgImCu2fUebIGfmQLNhi8QCgB0NOoc+La5loGZSIRBKsBZZyT9484Mk48IknnLVWnH716UyFFQWCIxAgNuwnCKgmbjvkNXvWXF224iuwFsgkD8C1qbU52RN+WttPEiahFv+tMltr/mX3/nl/HsLVwAB8RAwlmz9ijah9XXZHgdooVay2g/IKgLesLsOf0Y8a0CNpELATrBbZVXBRrhHutC/NqntNST4kWqIoLI5IOBv2Pw1GUWA3KmC0zfl0DX4CRDIjkAolv6UrM/+Azc8IB35Z05aiyQx889ujvhUcgTsS7Z/RbrTBLUmmY8OPurvOvgJyc0G1a8UArbDbpBx9m91HiRt4jqpBIDG8/o3Jr9dqb7GfYFAORDoXxNwTKbHAXwHkaynBoac9C/K0a+4h2IIWJsOfNx22OsyCgC+glcmB8O3+mmNvf+imAmhOUAgKwL+yNYfyLZF0N+4Tda1AEcmdqc/nLUj8CEQGA0B20lfKyP5B5v2SJXwhyf5wT7/0awQn6uKgNGw2e/zrz4hjVDXm8lq3iOlCLDiqatUtSO0qwQIWIn9H7QddkQ+AZAifcZGeWb/ejMFlvbMK0EXokggIDwCRv2WuZrRLM141S/YSHZcygRBL9s9h98vvEGggmIgYMdZRD7yZ8TzeEszo/A1k3/xZihzMUwetagQAkZt769kytMh61kBoTirrVAX47YyITArtu8M22FPyiYA+H5dzWqRRgDgVD+ZRgXqWkoEjPlOUhrhHmwhe6OEuQES7HDNrl1vL2U/omwFEAg5zJaN/Hl9zWXypPs15nTtVcBU0AQg4A4CETrVmNN1QBYRYEaSUq4FCMXTpjsdhlKURcCOs3tkEwD89C5ZTvrTp7W/GIjsOEtZA0LDgEABCFRfnTxbr1n/shQigC8IXCXhgsA4u6eArsElXkEglEj/i2zkz+trzI1JEfrnh/v4VvTs1uQJAAAgAElEQVR83iv2hHYCgXwQ8EWSX+ZbYmUQAfrsLimjAMFE6pv59Al+6yEEbCe9TjYBELjuPinI32esIrP+doTgPDSe0NT8ETDre6bKEs0L3viAjCJgTf69giuUR4CnjLQd9oZUAiCeIm3KeikEgFG36RbljQgNBAIuIGCGe1pkiAJoPENgTLptgccmJB7/mAvdhCJUQsBKpKNSkb/DyL9ypxzkPzvWp5KtoC1AoNQI6Bd2pmQQAf6f3y1fFCDBlpW6/1C+RAj4WuhttsMOySQArK4UaRNahRcA2qS2I2YkeY5E5oCqAoGKIzChcevH9AmtR0UXAfy4ce6LZPKdtpNmkQidWvFORgXEQMBOsP+Wy4AZ+a+8S3jyzzz3jyZ/IkYvoxZAQC4EzIZk0CdBpkD/lTskEwCMqp1D/ymXNaC2JUPAdtgGqQRAx0Hy2eIn/TFqe9aWrNNQMBDwAAL6ou4u4aMAobXETyCVyofGGXyTB8bPuE2s7ur7kO2wozIZr/+yO4Wf/eszNj5ThTDbuPaHHwCBsRCIRJKnaRe0Py+6CPBfvl0uAeCwo9z3j4U9vvMAAjxHtEzkz5W2Jvjsnx91qi9PfsED5oMmAoGSI8CPyvb51wh9ciBPQ253yBYFSM0veefhBgIjQHSK7bD9MgkA/1XiP/s3l/b+XOBeR9WAgHQIGOGem0SPApg/u0O2KMCjVUSnSGcMqLA7CASd9D/LRP58z63oK//1mRufcqd3UAoQAAJDETBmbHxWZBGQiQJIthagOtb3jaEY47WHELCd1K9kEgCBa+4W+9m/f/UJf8Pmr3nIhNBUIFA2BIzI1m/6zNVCPwoI/FyuHQFWgl1Ttg7EjcRB4LwknWY77I/SCACe9W9Sm9ACgIcpxelh1AQIqIeAsWhTu9BRgEltZDtS5QV4kueBUc9S0KIxEbDi6f+QhvwdRkHBc/7r0za8iFX/Y5ocvgQCRSPgi+w+XfRTA7mvksm32g77ftEdgwLkQsBy2O9lMlJ9Vqe4s3+9ifyNvT65LAC1BQJyIpBJEORrFtYf6DM7JBMAaUQu5RwKhdW6Otl3puWwF2QRAMFVe4Qd7DwcqV8Uv7ewnsBVQAAIFIKAPif2mMiPAoK3PCyTCHh+VmzfGYX0A66REAErnvqpLOTP62nW9QgrADS75bjd2PsRCc0AVQYC0iLgW9HzeS0gbm4AY0FCJgFAtpP+sbTGgIrnh4DtsNWyCABr/X7iOfVFVft6eNPv80MfvwYCQMANBIza7nWi+gWf1kxW616JRECq2Y0+QRmCI8BDPbbDXpRFAPh/doew5K9NXv/af61E6Exwk0f1FEWg5rqOd2oCnxjov+R2aQQAfyTsa9l9uqKmgmYNIMBPgZKF/O04I23iOmEFgLF085IBXPEXCACB8iNgLum9WtQoAD8q2I5LtSUQuwHKb8LlvWPISf9CFgEQvOlBYclfn9HxXHl7DncDAkDgLQhE6FSRtwUGbnhAmiiAHWcr34IvPlAIgZO5/9OyCAC+kEZUdW9Etk5UyDLQFCAgLQLmkt45wvqJix15BIDDUtIaASo+PgJBJ/VVWcjfbt9PmiHmXl9jZgfy/Y9vbvgFECgbAvoFG/8kpAjQm8lq2yeNCAg6B79Utk7DjcqLgB1nEVkEAD9fW8gBrTVRoD4ZKm/P4W5AAAiMhUCgITlNSH/hayL/ZXdKIwBsJ4V1TWMZmszf2Q67TxYBoNdsEFIAaLM6npDZBlB3IKAqAvr09udFFAH8DBO+oFkG32s5bKeq9uHpdlV39X3IdtgJKYxQ4Mx/Rv3tlqcNCY0HAoIiIPJagOBt0mQGPDEh9uQHBO1iVKtQBGwn5ZeB/Hkd/Y3bhJz9Y+V/odaH64BAeRDQpm54ScQogNmwRYoIQIYjEmm9PL2Fu5QNAdtJ3ySFABB477+5dHNt2ToMNwICQCBvBMylvVeIKABO5gSQ4zGA7bDr8wYeF4iNgO2wPhkEAD9EQ8QBrE9edwTH/Ypt46gdEODHBYuaHVCiA4L6YEkKIRCKpT8lA/nzOprLkkIKAKOu5zqFTAJNAQLKImCGN60RcRJh1svzGGBiD/uksgbitYaFEqxGCgHAw//VrcIJAM1aczwQ2XGW1+wG7QUCMiJgXX7nB33+1SdEEwFaqJVsR47UwJbDpsjY96hzFgRCCdYigwDgK2VFG7S8PvrFzp1ZYMVHQAAICIqAMS/+gIi+JPi7h2RZDLha0K5FtXJFYJJz6H2hOPtX22HPyCAA/MsFXP2vNVOgMfmNXDHH74AAEKg8Amb9lvN9WpNwEwqJHgM8w7mDc0jlexM1GBeBCYnHP2Yl2PmWw5aGnNR622EpGUh/aB1FTP6jz+x4clzw8QMgAASEQ0DExEDa5DZZIgBD65ninMK5hXNMIHb4o8J1tlcqFInQqcH4wb+zE2nddtilIYd1yzLDH0r2I18HWx4TTq3zEKKxuGeFV2wL7QQCKiGgh3tXCvkYoOWxoeQq6evU03acJTgHZbio6/BnODepZD8Vb8t5STot5LC/DznMthLsGtthm2yHPTeSPFV4779CvNz/mtVyvOa6jndW3BBQASAABPJGwH/J7e8VcTGg/+odkpL+uHkM/mw7bJftsFtsh8224uzb1cm+M/PuOC9e4Es+/a5Qgn3tTbKPsztshx1RgdxzaYMxNyZcBEC/KH6vF20RbQYCqiCgz409KloUQJ8XV1UAZGvXsZDDdg8VBZzrVLGvgtphdjxxTjDB/s1y2IJQPLXKdtijtsOO50KUSv4mliKfuVo4ARCoTyIlZkEWLu5FV82ld0QW0acbFtHX3P7Py10epnMjETpdXARGr1kkQmdFF9PneDs4TqP/Up5vjKXJGaIJAO7rrC45tgOWiG841z1iO6lmO56abzvs+3bP4ffLY1V51NTfdfATtpP+cf9RvO22w9IlAjWb+pLis8BvHxKO/LXJba/l0c34qeAIRGvpR41h6o6G6Wg0TFTi/8caw7QvGqb2xlpa0FhH/yDq81EuVqJhmhGto13RMJ0YgsvRDF619CPBu3bs6kXoVH1C61HRREDw5gel8M3l5ao0sx22wU6wZaF4+kd8YfvYnSvYtxO70x/mqyT7yb7DdtgfywvguM9ohDQ6U8Dtf/qCxGbBzAvVKQCBSxfSe6J11DWE2EpN/qOVf7ihjn62opY+W0AzSnLJilr6TDRMe8bDpiFMnRzHklSiDIUa8+N3iSYApDocyKkcr1gOe8GOszv4Gjj+eJyviRNOTHPFYjvsZZB9YYaiz9goXAQguHzbD8vgm3CLEiIQidA7+2e2o5FyJT4/3hCmNv74oYRNH7fo6GL61F9m/s+MR/5vfl9Huzie4xYs4A/4Ed6iCQB92gYhJ2OScBhfbLhQGFOzHXaDJMAJZ3RW+wHyac1CCYDMwT/CWBcqUigCjWG64U0CK33YP18xcaIxTDdFInROoe0r9LoWH70tWkcP5I1NHUl6Shyd4gutPSaUCNCaye44KJw/lobH4mxlofbv+nUQAIXN/LmxBW58QCjy504C4X/Xh0jZC+SL2aJheiNvkiu/UHimsY7OLydADWGyC8TlDY5rOevq1r2M+Yl7hBIAvqaM75OGcCv4GCArRhAAhZNuVkAr1MEipv81G5JBtxyPTOWsnEVnRGvpp9EwXRUNU0s0TE3RMDU01NK3ZGoHr2tDHUULJLl8Z/Ju/P5EQy1dzmfm5cC5MUw9hWLDcS1HHd2+h740OVU0AWCu2IYIQKG8AwGghgDQL+wUKgKg2S3HqzyY0aqxlkLROnpyVGKoo12NdfRPbjvmUpUXDdOWUdtS/ll+TiKhIUytXISVChNeLlXRKdEwHSkCm62lrF+pyvZFdp/uC64R6oRAY3YXBAAEgBpEXlBUge//94u1/58nDimVExKx3H5C+E2OhPB6Yx0FRGzHyDpFw7Q3xzblRM7lKotvvSulCFhRS+8vsi37R2Ity3v9wk4mVBTAXE12zNP5AAoXQIgAyC8cgrftFmr2z52DsbTnUlkcmhv1/AsZLMuTEI5FF9N5bty7lGVEw5TOs10iCYH1pXoc0FhHHykSl8Ol7LdSlm3U9VwnlADwNRH3gQVNngqdOatyHQSA/ALAf9UOsQSA1kwTGrfKlXyiCI8ZXUx/Fw3TsQIIYf91NfT2Im5d8kslFwBcjDSWAiQvCwB9efILPp9YO478V90FAVCIKIEAkF8AGOEeoQSAXrP+5VI4XVHL5NvQCiD/zEy5IUxCL5RUQAAcjy6if3fbdrwsADiW+uS2IyJFAczwJggACAD5ybyQMBZPhiHSYOQZw9x2uKKWF4nQ2dEwvVKoAIiG6XZR28brpYAA4ELrcZ6f302cvS4AjHnxB0XyOUgIVCD3IQJQIHCFqK1SXMMXAOpihePMpZtr3XS2IpcVDdO8Isg/EwVYHqYviNpGRQQAx/kqNzH2ugAwl/ZeIZIA0IxmLAQshF8gAOQWAMGmPULN/n16E1mX3/lBN52tqGXxlf8NYXqsWAHQUEvXiNpGhQTAMX46n1s4e14ArNj+WZ/WJJTvCa56BI8B8hUBEAByC4DAtTuFGoR6TdurbjlZ0cuJLqL/LJb8+69/XtT88AoJAOIpjd2yKa8LAI6jNqntNZGiAIFf7YIAgACQm9DzXQNg1m8RSwDMjT/slpMVvRx+TK1LAoB4AiER21u0AKilhzIHCfFjcnP5H6b7o2F6okTph19fHqZz3cAZAqCqSp8T2yeSAPA3IiNgvvxhIwIgt2Aw5saEEgBmXY9rsyw3HHWpyli2kD7uMkltL1Vdiym3WAHQWEcFbQeNROhd0Vr634YwxdwSWf3lzCsGj4FrIQCqqoxFPatFEgDGvDgiAIgAyE3o+So4fdI6oQSAV47/baij5S4TEy0P05cHCEaUv5USAEPbzxMmFVuPN/uqjh4YWnahryEAqqoC9cmQSAJAm9AKAQAB4CEB0NUn1hHA5iqKRJKnFepUZbkuEqHTo2F66k1ScS8n/i9Ew6BY4i00AjASh8h8+lA0TPe6gTkn75Hl5/seAqCq6kcL7ni3zxBoB5LWRFYnjgbOaxKJRwDyCgZrlVg7APSp6/+cryOV8fc8j78bRJSljBcuv5j+SiRMRBEAHBP+/D4apkNZcMtsp8z188ZasorFGALgJIJ80a9IUQBrNXYCQADkGwaR9PeB39wnVPjfvCi2u1jHKsP10TDdkSvZ5Pu7hjBNFAkDkQQAx6Wxjn6cL6Yjf98Ypl8XizEEwEkEjTldB0QSAIEbHsBjgHz4DBEAeSMA/p/dKZYAqN20pljHKvr1y8P0xZGE4vL7u0XCQDQBwLGJhumuojCvpWSxGEMAnETQWNQdE0kA+K/eAQEAASAvqecTvjGXbhZLANRvmVWsYxX9+miYcj3yN6+w9FBCWx6mr4qCg6ACYMZQvAp4/Xix+EIAnETQvzQZEUkAmA1bIAAgALwhAPi2F6EGX2TbF4t1rCJf/7MF9O5omF4qgHDyEgNuhKjdwlFIAbCYPlVkHxwtFh8IgJMIGpGt3xTJBxkLEhAAEADeEAD6VIEOATJXnyjWqYp+fWMdXVgk8eQqBP7MxYYIeIgoAPgRytEwHS+mL1bOojOKwRcC4CR6fNePSDsB9OntEAAQAN4QAL7AGmEiAF5IAfyXxDQPF0M6eV1bS1OKISi3rhVRAPC2FRuJuWQRvbcYjCAABtHTJrS+LkoUQLNaIAAgANQXAHy/qyiDjtfDmN2VHnQJ6r2KLqbv5UXgxecGuF8EFEUUAFfNpXcU2xc8ilAMvhAAg+jp09ufEckXIRdAHvyHXQB5gJWPsirxb4NrHhVLAMxP7Bh0Ceq9ioZpbbGkk+/1DYvoa5VGUkQB0LCQvpQvliN+f6RYXCEABhE05nX9QSgBsG4vogC58g8EgKQC4PcPiyUAarvXDboEtV71J6A5OoJEcn2eX/jv6uj6SiMpogBorKXFxfRFY5gOFIsrBMAggsbCTZ0iCQB+RHo+u6k8/VsIADkFQOA6sZIAGUt7Lh10CWq9ioYpUgzhFHHtnyMROquSaIomAHjovjFM+4rAlPgBQ8ViCgEwiKC/rvfXQgmAmx+EAEAEQE5iz1WNBlbuFCoCYNZvmTDoEtR5FYnQadEwHS6GcIq5tqGOplUSTdEEgBs7MRpq6cpiMYUAGETQXLZ5gUgCIPDLXRAAEABqCwDzMrGyAForbv/6oEtQ51VjHfmKIXAXrn2wkmiKJAB4gqRomF4pFlOeTrhYTCEABhE0o8mfCCUAkA0wdwGERwByCgWe8UqoQRfZUdFQ9aA7cvdVY5g2F0s4xV7fWEf/5G6rci9NFAHQUEtfj9bRk8ViGQ3TG5EInZ07Atl/CQEwiIu+4u7PiOSLzBW3506Auc6UVf0dBICkAmBxjzACQPvLMcCD7kCdV9HF9LlomE64QDqFLwQMEzWG6aZKoVppARCJ0JmNtbQgGqYjrvRDLfW6gSUEwBAUI3SqTxPnWGAzshkCIFfBAgEgpwAwFnaLIwDstW8McQfKvIyGaaULpJNyoYxXLl1I76kEsOUWAC0+eltkAX24oZa+01BHP3Pj+N+h+DeEqdoNHCEAhqPo8685IUoUwKzthgCAAJCT2HNdBGjMc4QRAPrkdUXvqx7uTir/LhKhd0XD9MJQ8ijkdUOYtGiY7i3k2hHXzKgEKsUKgBFtKCoS4kJZz7uVYhkCYLg1ahNaj4kiAIz5DgQABIDaAkCf3SWOAJjW/sJwdyD/O776vmjCqaMn+bY1V8qqpYcqgapiAqDBLQwhAIYjyScBwgiAeXEIAAgAxQXAzI3iCIDpG58Z7g7kfxeto/uKFgBhyhBOfzSh6FMEG2rp/5YbWYUEwAsraun9buEHATAcSX3ahheFEQBzYxAAEACKC4Bp4pwEqM/seHK4O5D7XWMdfdsF8n+jsY4+MYBEtI6uL7rMOvrdQHnl+quKAOD5A9zEDAJgOJr69I3CnAegz+qEAIAAUFwATGkTJwJwYScb7g7kfhetpeaiyTpM64eisDxMX3ahzFcjEXrf0HJL/VoRAXAvX1zoJlYQAMPRNGZ2PCVKBECfvhECAAJAcQEwWRwBYMzp2jvcHcj7bkUtfSAapteKJutF9O8jUYjW0a5iy3V7JjuyjiPfKyAAXubbOUe2q9j3EADDEdRndT4uigDQprVDAEAAQACUa0Aac+OPDHcH8r6LhqmuWJKOhml/JEKnjkQhWktTXCh7D1XRKSPLLtV7yQXAiYYw+UuBDQTAcFT1WR3pcvmb8e6j16yHAIAAUFsAaBPXCfMIQBUBwMPEjWHqc4Gk5w13jyff9S8GfLHY8vkahWzll+IzmQVAYy2FS4EJLxMCYDiy+uyuvvGIuVzfa5PaIAAgANQWAPokcQSAPjf26HB3IOc7niO+WHKOhunVsVabN4bp1y7c49ZyISyrAHDjwJ+xMIYAGI6OMTsmjgCYuA4CAAJAbQEgVgQg9thwdyDnu8YwOS6Q8x8a6qhm1P+1dLUL9zgylshwE30JBQBP3RxxE4NsZUEADEdFn9lxuFwz/PHuo09BBCDXhHI2UgHLKRSEigDMkV8ARBfTp6JhOu4COZcr293c4S64NO8kEwAv8syLpUFieKkQAMPx0GduFGcXQM0GRAAQAZCT2HNVbtqU9cKsAeDP/4a7A/ne8ZCxROTPRcaj5VgMKJEA2BFZRJ8ul+VBAAxH2pix8dnxZubl+h67APLgPkQA8gArV1VVht9xIy/XgBrvPnwL0HB3INe7q+bSO6Jhek4yAUD8wJxSIy2BAHiWP27JtuuilNhAAAxHV7+g/fnx/ES5vtdnIA9ArhNJPAIoA1nn3Bl51EWf2SGOAJA8FXBDmCbKRv6Z+tZS83A37P47gQXAM/xZfyRCZ7vf6vFLhAAYjpE2dcNL5SL48e7DfWMpfK6SZSICIGcEQKzDgDa8ONwdyPUuGqZ7pBQAYXqNJy4qJdqCCYBXo2Fqb6yj/1k5i84oZbvHKxsCYDhCek3bq+MRc7m+N2Z3QQDkOpmEAJBTABjz4sJEALQpba8OdwfyvGuso3+SlPwHFhvOLyXaFRIA/Bjmw5nMiSfTMi+JLqbzIhE6s5RtzadsCIDhaPlCOA5YyggBBICkAmBhtzgCINR6bLg7kOddY5h+K7kAyJp10K0eKFYANNbRx9yqi0jlQAAM7w3Nv+ZEuWb4493HCPcgAoAIgJzEnquKNJZsFkYA+IxVNNwdyPHukkX03miYXpFcAFB0MX2/VIhDAGRHFgJgEJdAZMdZ45FyOb83I0kIAAgAtQWA2bhNHAHgayIzkjxn0CXI8aqxli6WnvzDxB8FrC0V4hAA2ZGFABjExb5k+1fKSfDj3ctcsQ0CAAJAbQHgv3y7UAIg0Jj8xqBLEP8V30PfEKbHFBEAxyIL6MOlQB0CIDuqEACDuPgjW386HimX83vuG3ONpHr+d1gDIKdQCKzcKZYAqE+GBl2C+K/qw/QfipD/wGLAulKgDgGQHVUIgEFczCW9c8pJ8OPdi/tGzxM7IgByEnuuhhu47j6hBIC+uOeyQZcg/quGMG1QTAAwfpqh28hDAGRHFAJgEBc93LtyPFIu5/eB6++HAIAAUFsABH//B6EEgLGou23QJYj9iq9Mj4bpDcUEAEVr6QduIw8BkB1RCIBBXIyFiUQ5CX68ewVv2w0BAAGgtgCw1j4mlADQ5zk7B12C2K8a6iiqHPmfXAzY7jbyEADZEYUAGMTFmBt/ZDxSLuf3Vts+CAAIAMUFQFeKfFqTMCJAv7CTDboEcV9dV0Nvj4bpcUUFwBuNdfQJN9GHAMiOJgTAIC7G9HZhDgLy+ZrJjqUgACAA1BYAfK2AZrWIIwBq1r886BLEfdVYR7oL5M8z1V1agv8PFlu3hjqqdxN9CIDsaEIADOKiTWg9Ws4Z/lj30uwWkH+u5M9/h10A8goFfdoGYQQAzwRWFaFTB92CmK+iYdpaNMnW0jWlaF1jHf2/YusWDdMTPMrhVv0gALIjCQFwEpdIJHmaT28Wxw9N3QABAAEgL6nnuguA/864KCbMwOOqnCcEye4uxfg0upg+Fw3TiWJJtmEJ/X0pWhSJ0GmZHPgnn+cPbO/L/28t/cSt+kEAZEcSAuAkLjz/x1gz8nJ/p1/sQABAAHhDAJhLBUoH7Gsi/9LNc7O7SzE+jYbpF8WSf7SWekvZGlcWKNZR3K06QgBkRxIC4CQuxtLeZeUm+bHuZ9ZvgQCAAPCGAPBfIVY2QKO2u+Tn02d3x+N/GonQu6JhetEFAfC/49+t8F+4tEXxRGQRfbrwWgxeCQEwiMXQVxAAJ9EwFnXHxiLkcn/nv2oHBAAEgDcEQPD6+4V6BKDPje0e6iRFet1QR9OKJn+Xn6+Phk9DmDpdqOuK0crP53MIgOxoQQCcxMWYHesrN8mPdb/gjQ9AAEAAeEMAWKsfFUsATF3/5+zusvKfRuvoPhdINVKOljTW0fku1PXplbPojGLrCwGQHUEIgJO4aJPajoxFyOX+jvvEfNZRef632AUgr1iwMrkABFqBa64mX2T36dldZuU+bayjb7tAqPzAnY+WoxU8pW80TKli69wQJq3Y+kIAZEcQAqCqyhdJvkukHQCZHABdfRAAiADIS+r5KlJt4jqhogDB5dt+mN1lVu7TaJiaiiXTaJjWlbMFf6nvsqLr7MKCRQiA7L0OAVBVJdopgNqkNpB/PuTPf4sIgNxiQbStgObint9kd5mV+TQSoXOiYXqtaDJdTN8vZwuWh+ncaJiOFlnvEytq6TPF1BsCIDt6EABVVUZt9+/KHeIf637YAlgAl0EAFABaviqrhL83o1uFigCIthAwGqbaIkmUGsO0j6rolOxUULpPXTqx8IpiaggBkB09CICqKn1ObN9YhFzu7/zLtyECkC/XQADILQACv9wllgCY3HYku8ss/6eRCJ0aDdPBogVAHc0pf+2rqurD9F/F1j0apmcjETqz0PpDAGRHDgKgqkqkFMBcbHBfmO8jVM//HgJAbgFgrdojlADgC3EmNG79WHa3Wd5PXVpN/2okQu8rb81P3s0tAdMQpmCh9YcAyI6c1wWAb0XP58s9wx/vftwXep7QEQGQm9DzNuBYijRDnJ0AfJD6l20OZ3eb5f20IUyxomfQdXRjeWs9/G6NtRQuug1hun14qbm/gwDIjpXXBYCxtOfS8Qi5rN/rOAUwb+7gYgERAPkFg0iHAvFBr89P3JXdbZbvU34sbjRMbxRLno119A/lq/Vb7xSZTx9yYTEgLQ/TF95a+vifQABkx8jrAkC/OL6rrATvG/voc/2CjZj95zv7hwCQn/y56jPqeoR6DKBNWf9KdrdZvk9dmjnvLF+NR79TNExrixUyDXX0s9HvMPo3EADZsfG6AOBjXCQBwM9FKWgGXAhpqnQNIgDyi4DANXcLJQD4OgB9xd1FbT/L7nZz/zQapm1Fk2aYqnO/Y+l+GV1M3y+2LdEw7SmkhhAA2VHzsgAwI9u+6NPGnpGXWxwErt0JAVCIMIEAkF8ABIVbCNhExuLeq7K7zvJ8WixxRcP0p0iE3lme2o59F74FMRqmvUWKgKM8w+DYd3rrt8XiyA83emup8n/iaQFQ13NDuQl+vPsFVz0CAQABID+ZFxTGiqdI868WKgpgzI09Vkk3Hw3T48UQZkMtXVnJ+o+8dzRM84tpD7/2qrn0jpHljve+WOHBEzGNdw8Zv19RS+8vsj/2y9huXmf9wk42HiGX9Xv/arLjKQgACACPCgCHkT67UygBoNlrjkciydMq5eSiYbqrCAd9IrqY/rZSdc923xW19IEiMxq+kK3c8T6LhmlLETgeqUQCpfHa5Mb3/VGZI0Vgs8WNepS7DH7Why+45kRZCX6cBYDGhZ0g/0LIn1+DRwBqiAazcZtQAoA7CKN+y5RyO6iB+2S2ZK0AACAASURBVEXD1Fioc24MkzNQjkh/o2FaVWibonXUUUhbomFqKOKeiULuKcs1jWHqLhSbhjqql6WdQ+vJx7RI5M/rYq5ABsCCIscQAGqQP+/84E0PiCcA5scrth0wsog+Xej2ufow/etQpyfK68Y6+qdCCaexjsxC2hFdTJ8rdDtlYy1ZhdxTlmt4+wrsjzdW1NJnZWnn0Hoa853togmA4G8fQgQAEQB1yLwQNWd1HiSxjuZsIm3SuteGOo9yv+bP8fN10Dz/frnrmc/9GsLUlm+bomG6l2cVzOc+Q3/bGKbryn3PofcX9XXm2OY6ui9fbBrD9GtR2zRevURL/8t9Hvd9hfhMXCPYIwArka6zHfYiOqYwMaPP7BAuCmDWbzl/PKdSqu+vq6G3R2tpU84OupYejkTo7FLVx41yeVriaJj259ymMD0bXUyfKubefDdENEz35HHPp6OL6W+Kuacs10YW0SejYXo6D2zuKWQxpgh4mA3JoGizf30Wnv8XwZfPW05qngi2NawOE7vTH7YS7Hw7ziK2wzpshz1RRCM9ow7N5QKuA1jgFJyGdphRFPgmEqHT+YwrGqbjYzlpPrO+dCG9p8DblPWy/uyA4y5ybAjTY26FmiMROqshTBvHwjDzXS09xB+/lBWQCt+s/3HTH8bDhkeXOI4Vrm7Bt9fnOTtFEwDc54Ebcpow/smOszusBLsm5DA75LC/LyYqWLARFXqhv5O914qzb9sOm2077JaQw3bbDjuBzh/s/MBvHxIuAsBDhlVFhJ8LtZeR1y0P05f7Q9mpIWLg8Wgt3VYfpu+O/L3o7zMHBdXSpGgd7cpCPI9GwzSvmFMAR2t/tJb+O1pHib8cs/z6kPueiIZpZ0MdTeNRl9GuVflz3m7efo5DNEwcD+r//zrHa3mYfih1+yN0qi/Uekw0AYDn/4P+fwgX8glzB59A84n0xB72Saltb7TKB2L7zhoqCmyH7bId9voQILylDrv6SDPFygfAHYYR2TpxtD6sxOf82S2PDFTi3qW4J98iyBcINtbRN5aH6dxS3GNkmVxc8EcLfJHgzxbQu0d+7+X3HI/M4sm/PHophQirBLZmpHeyaOTPc5/YMU/v/3+DT4RDCdYyQPYTYk9+oBL2Icw9azqeeGd1rO8boUT6Atth1/eLgte8IgqMeXHhogD6vNj9whgIKgIEgEDeCBjz4g+KJgD0ix0vTfCOWA7bacXZdXacTbWdQ//kazmUd2KvvDtehQvOS9Jp/JkHf/ZhO+zS/nUFz6ooCgI/3yGcAOCJQ6qvTgq9uE4FO0cbgEApEPBFtr/P5xcr+Q8XI/wMFBV9uO2wl958Xp9gNTzKPSu274xS9K2ny8yy2PBJ2Q3KWreXRDuogw9WPdy70tPGhsYDAUkRMBf3/Ea02T+vj9W6VwUBIPfiPEltetRqc1FgO+z7Mi821KduEC4KoM/oeG5U0PEFEAACwiKgT2t/QTQBoNVskJH8vbE4T1hLLrBik5xD7wvF2b/aDntGhgiBiGmBeVTCv/wO6VbbF2gyuAwIKIGAGU3+p4gRRe7jZPDFfAu7lUh9j+9iU8IgvNwI22FrZDC64K0PCxcB4DMIY75zt5ftB20HArIhIOLe/0z4v2m3FALActjvZetz1HcUBE6uvsy671IsY4wz0ia0CicCtMCaE+bPd/z1KPDiYyAABARCwIwkzxHt5D9O/trEdWL52zHy8FsOU/o8DIHMtfRVCcXSn5IhAsDraDZsEU4AZKIAi3pWl76ncAcgAASKRcCo7V7Hx6xo/83oVmkEgN1x6CPF9gOuFwgB22F9MogAUR8D6BNbj0YiydME6lJUBQgAgREI+CK7Txfu4J9+MRK87WEpBABP0jMCVryVHYFQIn2jDALAFvQxQCYKsLR3mex2gPoDAZURMJf2XiHazJ/Xhz/a5L5NEh+Mrc+qDZJQPG1KYXwCPwbQpm14STW7QHuAgEoI6FPX/1lEASDR6n8KxdM/Uskm0Jaqqiqz5+Bfy3IIUbB5j3DP7wacilm/ZRYMCggAAfEQMJYmZwyMU9H+Blc/Ksfs32HHajYdkOJ0UfEsUPAa9Z8vIIUh6tPESwrEnYoxY+OzgnczqgcEPImAfsHGP4lG/Lw++oyNUvjcTIQ4kdriSePxQqMthy2V5TGA/6q7hI0CBOqTIS/YC9oIBGRBwF+/ea6I5M/rFLh6hzQCwHJS82Tpc9QzTwSqu/u+LIsAsDbsJ81oFlIE6NPbn8kTevwcCACBEiKgTdsgXNrfjCDRm8lu3y+NALC7Dn+mhN2EoiuNgCzbAblQMeY7QgoAPrDNSHJOpfsS9wcCQKCqyr9sc1jU2T/3YbJMurD9zwOjyXbS18pikIHr7xdWAOjT1v+5iugUD5gMmggEBEaATtFrxFz5z0VJ8OYHpREAdpxdInBHo2puIBDqTv+7LALAjqeETA08MNswl/Y2utEnKAMIAIHCEPAv6b18YDyK9leb1CbP3n+HUaibfauwXsBV0iDga9l9uu2wF2URAf7L7hQ2CqBNanvtvEjfmdJ0PioKBBRCoPrq5Nn6hNajohH/QH38V2yXZ/bvsD9GInSqQuaBpoyGQCieWiWLAOALaHzGKmFFgBne1DoazvgcCACB0iFgLOxODJCtcH+NVWS1H5BIAKRvKl1PoWShEAgm0j+RRgDwxYDhHmEFgC+w5sT/i9yOlbNCWTgqozoC/xPp+aLPXH1COOLvz/vPfZZMPtZ22PdVtxm0rx+BWbF9Z9gOe14WA7WadosrAHiij4viD8G4gAAQKB8C+uzYflHJn9cr2LRHJgHwx/OShIPOyme+lb+T7aRulkUA8HrqMzeKKwL0JgrUJ/XK9ypqAATUR8CIbJ3o84mZI4STvzG7Syby5wsVcfiP+sNmeAuDCfZvMgmAwHX3iSsA+GlfUza8zI8iHY4y3gEBIOAmAnzRrV7T9qrIs//AjQ9IJQCqY33fcLOPUJYECPha6G0hhz0ljQjgxwRPWS+0CDBqe9ZK0PWoIhCQFgFjYaJbZPLXajZItfXPdlgK+UykHQ7FVVympEBcqARW7hRaAGj+NSf0hi3/WFyv4GogAASyIWDWb/k3kXcEcWESuHanVLN/K8FWZMMan3kAgWAi9U1pIgAOI6srRVpordAiQJ+58SkPmA6aCATKi0CETtUvaH9e6Nl/dWvGR8nkU+34oS+WtyNxN3EQIDrFdthemQzWf/l2oQUAd1BGXc+N4nQyagIE5EfAqNt0i8jkn5n9S3TqX7/Pv19+y0ALikLASrBFMgkAu/Mg+ewWsUWAf82JQGMSC2uKskxcDAROImCu2PYdn3+NsHv+OfnzyKTd1SdV+N+Op6fDxjyOgNlz8K9thx2VSQTIEAXQL2j/UxVSa3p8dKH5xSLAV/1rUze8JPrs33/VDrnIP8Fe9Xey9xbbP7heAQTsRLpNJgHAlbboawG4w9IXblqvgHmgCUCgYggYC5zbRSd/LdQq3+zfYbdUrFNxY7EQCDmpH0olABxG/qvuEvsxAA8LGs1kNm4NidXbqA0QkAMBY2nPDJ8mbsKfAWEi3eyfn/yXSP+LHFaAWpYcAZ4TwHZYWioRkIkCtIovAia0Hg0ud84teSfiBkBAIQT8jb2f0Ca0HhsgWVH/6pPWkR1LyRX+d1KPYe+/QoPFjaaEHFYvlQCQIC/AgNPSZ3Wk3egjlAEEPIEA3/I3q/PxgfEj8t/Ar3ZJRv6M7HhqvifsCI3MHQFr04GP2w47JpUIiKdIn7pB+CgAd2BGbXdz7r2BXwIB7yJgLEz0ikz6A3XTL2iXLesfFyuvWYn9H/SudaHloyJgx9laqQSAwyh480NSCACf3kzG0uSMUcHHF0AACFQZS5MLZXjuz0VA4OYH5Zv9O6mbYWZAICsCVpx9WzYBwOtrzI1JIQI0u+W40bD9K1nBx4dAwOMImMuS3/YFxN7vPzD75z5HRl9Z3d33ZY+bGZo/FgJ2nN0jm2EHm/eQLLMGne9pjiTfNVYf4Dsg4DUEzEjyHNFP+Rsgfx7Ns1Y/Ip0AsJx00mt2hfbmiYAdZ0HZBACvr7mkV4ooAHcixpxYH5IE5WmY+LmyCNTU7Hq7MavziTcJ1tck9Fg267dIR/7cR4bi6R8pa0RomDsI1Oza9XY7wQ7LJgKs9gOkWYKnCB7i2PQFic3u9BhKAQJyI6DPi90vC/nzNOTWxoMyCoCDfLu33JaC2pcFAdtJLZFNAPD6in5c8DAnpzWRubjnN2XpUNwECAiKgFnbc9uwcTFEJIv4eeAX98hI/hSKswsFNQFUSzQEJsSe/ICdYK/KJwJSpM/YKHT4cJhTM5rJX795rmj9j/oAgXIgYCzuWSHL2h0+bvWZHTJu++OC5fmJ7Y++uxx9insogoCVYNfIJwAYBZvkWRCYEQP+NSfMhmRQEbNBM4BATgjoS5NTfeYqecS63kzBVXuknP1biXQ0p07Bj4DAAAKB2OGP8qQRMooAvkhn2Exb8LCiZq057o9u/sEA9vgLBFRGwFia1DVJtvsN+BFz+TYpyd922Ms8oquyPaFtJULAirPrZBQAdudB4jm6BwavDH+1UOsxa8XtXy9RV6JYICAEAmb9lvO54JVhTA7UUZvcJuNpfycFSzx9uRAdj0rIh8DEHvZJ6dIDOyxj+IHfPkQ+TeztRAMO5s2/odZjRmTrN+WzFNQYCIyPgH/5Hd/V7LVvvGnvgkfmMvXUmjLZRqWcCDnsyMTu9IfH7xn8AgiMgoDlsN9LavxS5QYYcIr6xNaj/obNXxulO/AxEJASAR7dkuF0v4FxOPCX5xeR1f/ZTvpaKY0FlRYHgepE32dthx2XchB0HCStWvwjgweczcBfbcK614PL7/qqOFaAmgCBwhEwGzZ/R5vQenTAvmX5q01oJbtDyj3/XLQc9Xcd/EThvYYrgUA/ArbDVkspAPhhQTc9IN+jAL7laGLrUTwOwBCUHYHg8m0/lC7sn3k00UzB3z0k8eyf3SC77aD+giBgdx3+jKxrAbhwMSNJqRYEDsyQ+OFBZjT5E0HMANUAAnkhYC7dYsq24G9g7JmNW2Um/yP8ePe8Ogs/BgJjIWA77HpZowBWV4q0qRukFAH8dDQjsnXiWH2D74CAaAgE6pMhWU72GyD9gb/6tA1kx1LyCgCs/BdtOMhfH7vj0EfkzA54clcAT+LhMyRKPDJ0hbR/9QmzPjlPfitCC7yAQCbDn0xJfoaONWMVWZIm/OETNMthL9g9h9/vBTtDG8uMgOWwn8kaBeD19l+xXc4oAHdQehOZ4Z5by9zluB0QyAsBbqPcVgdm07L99V+9Q96Zf2YLdDqcV4fhx0AgVwSqk31n2w57TloREGdkXBST1jnxvAbG/O4kjhLO1WLxu3Ih4IvsPt24KHaPbIQ/tL7GgoTk5M/+iJz/5bJ4j97HSrBF0goAHiLjxwZPkG9r4DBHNafrQPXVybM9aoJotmAImJHkOfrMjieH2qhsr7VJbTJv+TspXOLp6YKZBqqjGgI1HU+8006wwzKLgOCtu0kzmuWNBPiaSJuy4WW9Ycs/qmZfaI9cCGiNvf+i17S9KhvhD6svf+7ftFv22f++ml273i6X9aC2UiJgx1lQZgHA686f9Q1zAkMXAknyWrPXHPc3JGdKaUSotPQIGEuSi2Vd6T907Mv/3J+RlWDnS29QaIAkCBCdYjvsTtlFgFnbLb0I8OnNfHFgiySWg2qqgECETjUWJnp9PrmjaFwEGHU9ss/8yY6zhApmhTZIhEAowb4mbYrg/gODMqcGTpM0P8CIKIU+s+PwhMatH5PIhFBVCRHwN/Z+Qp+58amhM2hZX+vTNxLPESL5ROaotSn1OQlNCVWWHQHbYTdIPnjIattHWmit/JEAvi5gQusxM9I7WXa7Qv3FRIDblow5/bMJFM1uIattr+zkT1Y8dZWY1oJaKY+Aldj/wUziiYEZtaR/g7c8LP2iwDednNFM+qLurkgkeZryBogGlgWB8yJ9ZxoLnNt9mvwhfz5O+ALg4K0PS0/+tsP+yLdml8UIcBMgkA2BUCI9V/YoAK+//9p7lIgCDAgB/YKNL5qXbf9Otj7DZ0AgVwT4SX56zfqXBuxK+r9aEwWu3akC+fPZ/6Rc+xG/AwIlQaA/OdDrKogAM7pVKRHg8685YS7edHNJOh6Fqo0AX+hXt+kWzb/mhPSkP2S9jP+S25Ugf9thL/taDr1DbSNE64RHwE6kfqkC+WfawDMF1m5SSwTwo4UvaH8+EL3z34U3JlRQCAT8y+/4rj6j4zmViJ+3xVjYzVfMqyIAeDsuFcJgUAlvImAlUt+zHXZCGQHA1zDEUqTP6VJOBPCDkIxF3TGestWb1opWj4dA5ln/ou42n6wH+QyZ6Y8UL/qsThVW/I8UL8eDTvqfx+tXfA8EXEcgENt3lu2wlFLk37+I0dp4kPQaNbYHvsUR1qx/2azfMsF1g0CBUiPAj5zWJ687MtJeVHiv16zPpABX0VfZTuoxnp1VauND5eVDwHbSN6k5oE6GCDPbAyU/M2BU580PFZrTdUBfnvyCfJaHGruJgC+S/LI+N7ZHhaQ+2exdq24lq1X+7X5j+Vorwa5x0yZQFhAYE4GQk/rhWAapynfW6kfIF2xR73FAf6hUC6w5YdR2r6u5rgMziDEtXr0v+WFSxsJEwmeuVmqR31ARwPN7WC2Pjgybq/j+eHW87zz1rBQtEg6BSc6h99kOe1wVkh+vHcGmPeQLrFFWBHCHyZO7mEt6r8Yxw8INt5JUyL+k93KeNGooWar2WguuoeCqPSqS/Wht6sNRwCUZLih0KAK2k24ajzRV+z6TKMi/WmkRwAlA5+sDlvTOGdrfeK0OAv5lm8O8j1Uj+7e0x7+a+JhVzQ/l0J7r1bFWtEQ4BGwn/eMcjFDJgRf83UOkmeqLAO5MtQvaX/DXb5krnAGiQgUhoC/unaVN3fDCW4hyjFXz0v7WXE2B3z6kpA/Kxfda8dQPCjISXAQExkKAp/21ndTTuRihqr8J3vwg8e100jrHPB2+Pr39eSOy5cKx7ALfiYuAsTQ5Q7+g/U9esVefuZq4UFfV/+TUrgQ77O9k7xXXKlEzKRGw42xtTgYo6XkAubaNOxifBx4HDCUNbcr6V4y6nuv4PnEpjddDleZnQPiX9Ub1qRvUSd+bi3Dl5O/hmf8I/3WLh0weTS01AqFEKjDCwDytsjOPAzwmArggyCwWDG9aY11+5wdLbXMoPz8EeJ+Y4Z4WfULr0aHizROv+TN/r8/8R0y8gon0T/KzIPwaCGRBYGJ3+sO2w56DABieQpQvMlJ9d8Co5OFffcKYF3/ArN9yfhaTwUdlRMCMJv9Tn+fs9AXUytk/qu2NiAZkVvv//g+enpBk880hhz01IfbkB8poiriVigjYCdaVzcDwGaPMFkGF8wTk4oQz6wSW9F7L95WraP8itskX2f4+c3HPb7RpG17waU2eWZMy0h41u4WsZk9t9ctP6MTZWhHtF3WSBAF+3CSIfvjMfyQePFmQpmrGwBGzrZEOeNh7/+oT+tzYo3zhGfIJlGCAR+hUM9I72ZgXf5AncBqGfT79pMhv9UnryFr7WH6EOCJMPnIsq/g+FE+bJbBGFKk6Av6ug5+wHfaiioPC7TZZbXtJn6rm2QGFEA1PMmPMj99l1N9uqT5OSt0+syEZNOY7d6ueuCcfO+PndPBU3W6PY0XLey7opM4ttZ2ifJUQIDrFdliPogOiJI4jc4DQhZ2eDceO6sBDXAwk7tGXJqfiJMLxnQTHKDPTn+9s54suR8VVkZl8vu3jp/rZGw+UZAwr7O86xrc8/AII9CNgJ9gshQdD6ZxHLJU5czxfp+aZ3/OzBy7sPGSGe271N2z+GgbcSQTMFds/ayzuvYofyqPZa457xh7yFDHGggTZXX2lG78qPyJIpCZivAGBcREIOoc+bTvsZQiAsZ/9j45PiszoVkQCxnPuWhPpk9uO8N0EPDc9J8FxjVORH/hW9HzeXJa8hEdGeI4FLy/ky0nsaE1krthGdrzQMYnrLIe9YG068HFFhhCaUQoEIhE61Y6zO0YnNwykXLHxX3sPaUYzhMB4QmDge62JtEltr+lzYvuMRT2rzfotE3yR5LtKYeflLJOftOiPbP2pUdv9O942bULr6zmR3gAuXv+rNxMfS7mOO/xuTB+9qYrolHLaP+4lEQKhROpiDKAxB1BejihziJCt7nHCJScyvZkyWQjndB0wFnXH/EuTEbMx+W0RdxnwDHyBxuQ3jKWbl/C66rO7+vTJ6474dIjAQu2Eb/NDgh/3/FHGt8fT0yWiJFS1XAgEYuzztsOOQAC4O+CsdXtJn4YdAoWSQNbrjGbSJq57XZ/e/owxr+sPxsJNnf663l8bS3ov1uu3/djtxwk8EuGLJL9sRpM/4Wcj6OHelcbCRII/szemtz+rT2w9CqJ3Nx+BfsFG4mMH/shdf8Qf74Zi6U+Vi1dwHwkQOC9Jp1kO24nB5vpgO+nAOg+SsagbjwPKGs5uJp9/zQm+fU6bsv5VfVr7C9oFG58zZnY8xRcijvyvz+x8kn+f+T9lw8uZZ/Oh1mOaH3vus4qwEvalUdeDxX6lXZB4O3/cKwE1oYrlQMB2UktA/iUi/yEDmT/L9NJpguUmDtzP3Vl42fHkz/svuxOz/iE+o1R+2XJS88rBLbiH4AgEnYNfsh32eqkMDeUOFxbBW3cjc2AJZ49lJy20xZXIljZxHQVvfRjkXwby7/fJr1mJ9BcEpydUr5QI+Fp2n247qQdB0sNJutR4WO0HyLgo5orjBOFJPuuFgCC+v58n0ir1uEP5w/1cyGH31uza9fZScgzKFhgB20ktx6AYPijKhkeckf/nd5NmroYQAAl60waMVeS/8i4Qf/lm/W/BOhRPLRaYolC1UiEQdFJftR12tGyEV0EjF7mNwVV7iOc2x0weM3kv2YA2ZT0FcZLfWwi5Ar7qWCjBkJWzVEQrYrmzYvvOsB32cAWMTQSDF68OXX392QOxZ9xLJOjJtvKsfkt6yepEyF8U/xty2O7qZN+ZInIV6lQCBKx46ipRjA/1GHwEEbjxAdKqWxENwCMBJW2AH+GLxD6D410k3xdyUo0loBoUKRoCoW72Ldthb4hkfKjLoFPgM6OTZwkgGuDJGbKK4qd/1m93YNYvsK87ZiUOfV00vkJ9XETASjz1V7bD9glshOKF5yu0diH424d4tjslZ4Igdu+sd9AmtVHg5gcxrivkR/L09Y/4Wg69w0XKQVEiIWA7qV/laRAYuBUcuJloQP0W8mmIBkA0SCYa9GYyG7cho18F/Udhvj51pUichbq4hICVSH3PdtiJwoxiMESN68uPhdW8h/SZHYgGqBgeV7BN+syNZK3ag8mDdOSf8W3H+WNil2gHxYiCgJXY/0Gs/C8/ebsmmHjegJU7SbNwuiCiAWJGA7ht8twWtpMC+ctJ/rzf9lR39X1IFN5CPVxEACJAYgEw4FA2HiBz6WY8FlBw5iytsOHh/votxDNcuiZ4B+wdf8uJKcjfRb4VsiiIAAVEgMMouPrRTApVaUkDBK7EIx19dhcFVz1STpLCvUojikD+QjJ2CSoFEaCGCOCzreBND5I2FZkEIYTK+1iA2xzPW4EZvxK+BORfAp4VukiIACUGbr8DTp1cH4AkQkrMqkUWM3xrauCXu/CcvzSz8EoIKpC/0ExdwspBBKgkAhjZsdTJA4ZCyCYoMonKWLfMAr/L7iSrCwv8FIp6gPxLyK9SFA0RoJgI4DOTrj7yX7GdfDZ2DMhItiLVWQutJf/l25G7X50Z/0CUAeQvBUOXoZIQAQqKAIdlnDZ33hoiAng0kOeiS21CK/mv3oFEPuoRPxcAIP8y8KpUt4AIUFMEZMKV/NEAzyEwZT2IME8iFGk2Xo66aJPbKHDtzszjJIVC3QOzXvwF+UvFy2WtLESAwiKAz2TijILX309861Y5yAT3KO/K/GLw5pkmA7++l+w4nvErLHww8y8ro0p4M4gAxUVAf0gzeNvuzLnsmrkaYsCjUQHNaCajdhMFm5G2V2HSH4h6gPwl5OOKVBkiwBsigDs9a8P+zCIvflZ7MTNIXCvRbH/SOvL/7I5M33uA+AYI0Mt/Qf4VYVKJbwoR4B0RcJIEUhS88YFMdkE+MwShy0PoufRVZra/sPvk0bxxr9m2p9sL8peYhytadYgAbzoOntPdf9UO0i9ohxCQ/PGAPm0D+a+8C7N9NVfzjxfVAPlXlEEVuDlEgDdFwEBomB/raka3Eh4RyBMR0Ce3kbliG1mrHx2PIPC9usIA5K8A/wrRBIgAb4uAATEQvHV3RgzwdLC5hJ3xm/KJBr5vn5/IF7ztYZC6uqSea9+C/IVgToUqAREAETAgBPhfLgb8y7eRNq2dfFr5iA6ioh9rrSmDvf+SOyjYhFX8Q23T469B/grxrlBNgQiACMjmXK22vRS45m4yLnbIh22FJYuOaP7VpM+LZzL0Wev25jobxO+8ExEA+QvFmApWBiIAIiCbCHjzs1iKeI4B/2V3nkw4ZKwqGSEqHw3QmjMLMfkajODNDyI7n3eIvBDRBvJXkG+FbBJEAETAm4Q/nlPu6stsPTOXbyNjboy0ABIPjSpc+Ax/TozMFbdT8KYHyeo4WAgR4JrxbFK970H+QjKlwpWCCIAIyFkEDHO4KbJWP0KBlTvJWNx7cg2BF6MExirSp2/MZGP0//xuCq7iz/GRhrcwm/L0WAT5K8yzQjcNIsDTjse9mWaMi4JHKfCrXeRv3EbGvDhpk9rIpyuQkEhvzrSFP7s3G7aQ/xe7KLjqEeTcHyYKMY4KFD4gf6EZ0gOVgwiA8yrQeY0vIPh6gjWPUuCGB8h/1V1kRjaTMc8hfXo78XPqfT5BBILdknlWr1/skLksSf4rtlPg+vvIankUz+1B9OPbeWEYgfw9pfgJhAAADB5JREFUwK9SNBEiACKgZCJgLOfIIwdteyl4y8MZkRD4xT2ZrHc8CY65bDMZi7ozqY356YeZ/xdsPEnUk9syiY14cqNh/6dtyHxvXNiZWa9gLEhkDssxlmwmvoaBE7v/2nsy9wre+jBZax8ju6uvVA4e5Y7V997+DuQvBTN6qJIQARABFREB3iYCiATv9T/I30O8KlVTIQIgAiACYAOwgZLZAMhfKkb0YGUhAko2+DHb895sD32OPh+wAZC/B/lUyiZDBEAEYBYIG4ANuGYDIH8pmdDDlYYIcG3wD8wA8BezQdiA92wA5O9hHpW66WbPwb+2HfYwZgIQA7AB2ABsIG8bAPlLzYCofBVEQN6DHrM8783y0Ofo85E2APIHf6qBAEQARABmf7AB2EDONgDyV4P60IoBBCACch78I2cCeI/ZIWzAOzYA8h8gDfxVCwGIAIgAzAJhA7CBUW0A5K8W5aE1IxEIOqlzbYc9orgTeFnx9mFG6p0ZqSh9rfSYshLsoQmxJz8w0l/iPRBQDgGFIwHHbIdd6ms59I6Qw2zbYX+EEBh1tiMKsaAeYouZ52yHza5O9p1px1nEdtgbCo4pzPyVYzk0aEwEFBQB+4NO+p+HNro62Xc2FwS2w15X0GmBOMUmTtn755gVZ9fZPYffP3RMWYlDX1csggjyH9rBeO0dBBQRASe4o7IST/3VaD0XjB/8O8tJxSECEA2ADeRgA3HWayXSXxhtPPEIW7+wPi45niD/0ToZn3sDAZnXBFhxdmDkrH+sXgs5qf+xHdYnudOSfWaJ+osbudhvO+kfjzWGhn5XHe87T9bxhGf+Q3sSrz2NgISRgMys35d8+l35dlzNrl1vDyVYje2wJyEEcpgNiktWEBLu9c0ztsMWzortOyPv8dTxxDutBLvGdtgJicYTZv75djR+rzYCEomAJ+wE++9ie4M/MuBOz3LYCxI5LpCee6QHLB32Zx7KD8T2nVXseAp1p//ddlhagrEE8i+2s3G9mgiILgJCCdYyyTn0PjfR54uc+p9nHpHAeYG0IADcsIHX+boZPt7dHEs1mw68J7NwUNw+Avm72eEoSz0EBF0T4Mqsf6zeqo73/Z+Qw35rO+wohAAeDShqA3w3zA3WpgMfH2ssFPtdMJH+SchhT4mEIZ75F9uruN4zCIgUCeCzfrPjiXPKBb6/6+AnMs80E+xVkRwY6gJRUoQNcOK/JRRLf6ps46iTvddOsFuLqLMbkY6BMjDzL1fH4z5qICCACPiTHWfBSqHZ336eQ+AVQZzYgDPDX3FDzKL1zcsZMdtx6COVGkdWnPlsh/FFhpXCBuRfqc7HfeVGoGIiIMG6JnanPywCejz60J8B7fkKOrFKOU/ct3LEVQz2L3Hir+7q+5AQY6jn4F+HnNT6CowfkL8IBoA6yItAOUUAX5HPt+iJiBZfKc1Tosq677kCzrcYAsO1BQgPnheD72zxd7L3ijiG+qMBfyqTLYL8RTQC1Ek+BMoiAuIsEYgd/qjo6EQidKqVYOfbDttUJkcGMiyADD3VN3F2ByfX85J0mujjp3+RcWeJ+wfkL7ohoH5yIVBCEcCfsc+uIjpFLkSqquxY6iv9256whRAkXW6h9jpfIMtz88s2bvhY70/GxfMQuI0byF86g0CF///27ifEkqOOA7gxkCAkIYeoBxE8hATUg39AkOSkwXgQQw5DXHZf9SZe3UvIHz2YhCCoYECIFw8KHgLJHELC6nT1ENmDiheNiG4wbsh29WxWDZGAGBI22UzozUxclnF2+nVVv3nZz2F4w7zu6p7P7/Xrb1d3dS+FQO4hgrPYHeuH3y3FP7/LSvYuVZ2+E2J6ocAXWu4vSO3l3+lMaNo+P4vpvlnzwkd2+UguxVv9qIQQ029ybTOG+i1F2a3kMgtk6Ql4d4jd/X13+jJb7LTuVZM+v9UrYPTAUu9osx+ZjgkJr/dH+yGmW5axp2yn7eS9v/2vN2Ds9uLI/z1UvxAoKDAqBDTd7/un8xVcvX3RdH9XtK1uzmdzHeFoZ1/tlMfs0Pc0bxXT8f6ivgsfybsvPuCZV2Jkb4Cdf+Z6aI7ArgJzhIAz/XC6ldXNy3dt+H34ZhXTp7aGEjpFoFfgYjv/rh/CN6vTze/DTWHXf6m/iPFc4InpjQFh185/V1VvEigksPcQ0P758PrJzxRajaVq9twpgnefnuZphMLAdhh4pT9tdG6nv4QXw+beAGdN9+kqpj/uIQTY+efG1x6BIQIXuTDwTGjSg/0jeIe0eSlM2x/tHI4bX916/sAi75S2vRPyOm0g+Vd/X/7+vP6l2Ct2sW18ZfX4FVVsvxdienOnIOCCv4sJep/ARAL/pyfgr/3R7kSrsNSL6S+G7K22ThP8YacvPH9b/vP//Y16zt2aN6ZblmHM/n7YqELc+EKI6bkLPv+O/PdDcawDgW2B83oC3gp1+v6RtRNXbr/ndZhAf5FkqNt7t4ZIvXXBl58j9WmP1Md4v9kPdQ11d/ehuHH9sE+BqbcFVlY3PhRi+0iI6awj/20VrwT2mUAfApbyxiT7zPH81elHE4TY3RZi9+gOR0Jjdk7mLRMk/hJi+nF/t8i7nv7b1efX0u/jBKr1dNOda//48LhWzE2AAIElFegfklTFFGYx/SLEdFrvwIJPDTTpVH8dR9W0B/fLw3eW9KNttQkQIEBgrwKzpv2SALDgAFC3X9xrvUxHgAABAgSyCBw+dvLaENPbQsDCQsDZlWMvX5WlmBohQIAAAQJDBDyeeGE7//4aiueG1Mq0BAgQIEAgm0Bouif1ACwqBHSPZSukhggQIECAwBCBENvvCgCLCQBV094zpFamJUCAAAEC2QRCk74mACwoANTpy9kKqSECBAgQIDBEIBzd+JgAsJgAcODo6euG1Mq0BAgQIEAgq0AV0z+FgKlDQJeyFlFjBAgQIEBgqECoUyMATB0A0lND62R6AgQIECCQVSDE9AMBYOIA0KQHsxZRYwQIECBAYKhAaLo7BIBpA0BVd18fWifTEyBAgACBrALhV6duEACmDQB3Ni99PGsRNUaAAAECBIYKPPTQ5gdDTP8RAiYLAa8MrZHpCRAgQIBAEYFQp98KANMEgCqm9SJF1CgBAgQIEBgqEGL3qAAwTQCYxfTDofUxPQECBAgQKCIQmvYuAWCiAFB33yhSRI0SIECAAIGhAmGt/awAME0AOFS/eOPQ+pieAAECBAgUEVhZPX5FiOkNIaB4CPhvf9FlkSJqlAABAgQIzCMQYnpWACgeAH43T23MQ4AAAQIEigmE2P1MACgbAKrY/aRYATVMgAABAgTmEQix/ZYAUDYAzOr2m/PUxjwECBAgQKCYQLWebhIAygaAQ7H9XLECapgAAQIECMwjsHLs5atCTGeFgGIh4MyRtRNXzlMb8xAgQIAAgaICIbbPCwDFAsCfihZP4wQIECBAYF6BENPjAkCpAND+fN66mI8AAQIECBQVCDHdLwAUCgBNOlK0eBonQIAAAQLzClTr3VcEgDIBYFanm+eti/kIECBAgEBRgQNHT18nABQJAG8fXDtxTdHiaZwAAQIECIwRCE06JQRkDwF/H1MT8xIgQIAAgeICIaajAkD2APBE8cJZAAECBAgQGCMQYvewAJA3AMya9O0xNTEvAQIECBAoLhDq9nYBIHMAqLtbixfOAggQIECAwBiBw/XJTwgAeQPAgWde/OiYmpiXAAECBAiUF9jcvCzE9G8hIFsIeKl80SyBAAECBAhkEAh1+rUAkC0A/DJDSTRBgAABAgTKC1Sx+5EAkCsAdA+Xr5glECBAgACBDAJV0x4UADIFgLq9PUNJNEGAAAECBMoLHFxLnxQA8gSA/qLK8hWzBAIECBAgkEFgZXXz8hDTa0LA6BDw6gc2Ny/LUBJNECBAgACBaQRmMT0wq9NP/YwwcAOgaT6slkKAAAECBAgQIECAAAECBAgQIECAAAECBAgQIECAAAECBAgQIECAAAECBAgQIECAAAECBAgQIECAAAECBAgQIECAAAECBAgQIECAAAECBAgQIECAAAECBAgQIECAAAECBAgQIECAAAECBAgQIECAAAECBAgQIECAAAECBAgQIECAAAECBAgQIECAAAECBAgQIECAAAECBAgQuFQF3gERDK0rkN1C3QAAAABJRU5ErkJggg==;" parent="1" vertex="1">
          <mxGeometry x="-25" y="654.31" width="71.39" height="71.39" as="geometry" />
        </mxCell>
        <mxCell id="LDEMuyIFx6sQ8Yjgb2jP-1" value="" style="shape=image;verticalLabelPosition=bottom;labelBackgroundColor=default;verticalAlign=top;aspect=fixed;imageAspect=0;image=data:image/png,iVBORw0KGgoAAAANSUhEUgAAAgAAAAIACAYAAAD0eNT6AAAAAXNSR0IArs4c6QAAIABJREFUeAHtnQe4NVWRrj9ylCCoSJCkoICKCTErMpjDqDgmGCWZUAwjonNFVBwxjIoB0Ts6hjGAoiQRdIyoiOk6iBlRskTJGeae+jn7P/vss0OHVd0rvP088O/Tu3utqreqq6p7r15LGr+tIGk3SUdKOlPSFZL+l/9ggA/gA/hAlj5wg6SzJZ0gaV9J645PDezNncDOkk7nIs/yIqeIo5DFB/CBKj5wmaQDJK2Ye8JDvwUC+0i6ieRP8scH8AF8AB+QdKyktRdSBJ9yJbAHFzwXPD6AD+AD+MCID5wiaaVcEx96SdtLst+Aqjwa4hg44QP4AD5Qlg8cQqLMl8CJJH+KH3wAH8AH8IEJPnC9pM3yTYHlarbtBINT4ZdV4WNv7I0P4APTfODQctNkvpofRAFA1Y8P4AP4AD4wwwfslXC2zAgcPcPo0ypCvuOOAR/AB/CBcnxgjczyX/Hq/JACgMofH8AH8AF8oIIPbF18xswMwP+rYHQq/HIqfGyNrfEBfGCSD+yYWf4rXh0KAC72SRc7+/ENfAAfGPYBCoDMSgYKAC7w4Qucz/gDPoAPTPIBCgAKAH4r42cTfAAfwAcK9AEKAAoALvwCL/xJdwTs524RHyjHBygAKAAoACgA8AF8AB8o0AcoACgAuPALvPC5yyvnLg9bY+tJPkABQAFAAUABgA/gA/hAgT5AAUABwIVf4IU/6Y6A/dwt4gPl+AAFAAUABQAFAD6AD+ADBfoABQAFwNQLHwfJzEFQBwIQSJZA6HleiO/JusJ4wXGQ8VzYCwEIQCB1AsT31C3oLD8O4gyY5iEAAQj0RID43hP4VLrFQVKxFHJCAAIQqEeA+F6PV3FH4yDFmRyFIQCBQggQ3wsxdFM1cZCm5DgPAhCAQNwEiO9x26d36XCQ3k2AABCAAARcCBDfXbDm0ygOko8t0QQCEIDAMAHi+zANPi8hgIMsQcIOCEAAAlkQIL5nYUY/JXAQP7a0DAEIQKBPAsT3Pukn0DcOkoCREBECEIBAAwLE9wbQSjoFBynJ2ugKAQiURID4XpK1G+iKgzSAxikQgAAEEiBAfE/ASH2KiIP0SZ++IQABCPgRIL77sc2iZRwkCzOiBAQgAIElBIjvS5CwY5gADjJMg88QgAAE8iFAfM/Hli6a4CAuWGkUAhCAQO8EiO+9myBuAXCQuO2DdBCAAASaEiC+NyVXyHk4SCGGRk0IQKA4AsT34kxeT2EcpB4vjoYABCCQCgHieyqW6klOHKQn8HQLAQhAwJkA8d0ZcOrN4yCpWxD5IQABCIwnQHwfz4W98wRwEFwBAhCAQJ4EiO952jWYVjhIMJQ0BAEIQCAqAsT3qMwRnzA4SHw2QSIIQAACIQgQ30NQzLgNHCRj46IaBCBQNAHie9Hmn608DjKbEUdAAAIQSJEA8T1Fq3UoMw7SIWy6ggAEINAhAeJ7h7BT7AoHSdFqyAwBCEBgNgHi+2xGRR+BgxRtfpSHAAQyJkB8z9i4IVTDQUJQpA0IQAAC8RE4VdL/Bvxvq/hURKI2BCgA2tDjXAhAAALxEjgqYPK/XdLq8aqKZE0IUAA0ocY5EIAABOIncGDAAuCM+NVFwroEKADqEuN4CEAAAmkQ2CZgAXBoGiojZR0CFAB1aHEsBCAAgbQIHB+gCLhe0qZpqY20VQhQAFShxDEQgAAE0iSwnaQbWhYBB6epOlLPIkABMIsQ30MAAhBIm8DukmwQX5M3Ak6WtFLa6iP9JAIUAJPIsB8CEIBAPgT2knRTzSLgGElr54MATUYJUACMEuFvCEAAAnkS2EnSaRWKgEsl7S9phTwxoNWAAAXAgAT/QgACEMifgCX1XSUdIcle7bt8fozAWZKOk7S3pHXyx4CGRoACAD+AAAQgAAEIFEiAAqBAo6MyBCAAAQhAgAIAH4AABCAAAQgUSIACoECjozIEIAABCECAAgAfgAAEIAABCBRIgAKgQKOjMgQgAAEIQIACAB+AAAQgAAEIFEiAAqBAo6MyBCAAAQhAgAIAH4AABCAAAQgUSIACoECjozIEIAABCECAAgAfgAAEIAABCBRIgAKgQKOjMgQgAAEIQIACAB+AAAQgAAEIFEiAAqBAo6MyBCAAAQhAgAIAH4AABCAAAQgUSIACoECjozIEIAABCECAAgAfgAAEIAABCBRIgAKgQKOjMgQgAAEIQIACAB+AAAQgAAEIFEiAAqBAo6MyBCAAAQhAgAIAH4AABCAAAQgUSIACoECjozIEIAABCECAAgAfgAAEIAABCBRIgAKgQKOjMgQgAAEIQIACAB+AAAQgAAEIFEiAAqBAo6MyBCBQNIHHS/qopF9LulzSDZLOlnSspH0krVM0nYKUpwAoyNioCgEIFE1gJ0k/lvS/M/67VNKrJa1QNK0ClKcAKMDIqAgBCBRPYC9JN81I/KOFwVclrV08uYwBUABkbFxUgwAEICBpd0m310z+g2LgFEkrQTFPAhQAedoVrSAAAQgYge0kXd8w+Q+KgLeCMk8CFAB52hWtIAABCBiB41omfysCrIDYFJz5EaAAyM+maAQBCEDACNwrQPIfPAV4B0jzI0ABkJ9N0QgCEICAEXhDwALgDJDmR4ACID+bohEEIAABI3BUwALAngSsAda8CFAA5GVPtIEABCAwIHBq4AJg60HD/JsHAQqAPOyIFhCAAARGCfwgcAGw1WgH/J02AQqAtO2H9BCAAAQmEeAngElk2L+MAAUAjgABCEAgTwKvD/gE4Fd5IipbKwqAsu2P9hCAQL4EQr4G+PZ8MZWrGQVAubZHcwhAIH8CXwvwFOBaSRvlj6o8DSkAyrM5GkMAAuUQuE+AqYAPLgdXWZpSAJRlb7SFAATKI/AcFgMqz+hVNKYAqEKJYyAAAQikTcCWA76x5s8BLAects1nSk8BMBMRB0AAAhDIgsBDJP2wQhFwiaT9Ja2QhdYoMZEABcBENHwBAQhAIEsCu0j6iCSb3/9ySTdI+rMkGzC4t6Q7Zak1Si0hQAGwBAk7IAABCEAAAvkToADo1sb2SG23uVdqjpR0pqQrKjyOGyzHyb8SDMplYHepZ0s6QdK+ktbt9tKlNwjkR4ACoDub7izpdBI+SRwfCOIDl0k6QNKK3V3C9ASBmQTWkrS+pNVnHhnBARQA3RhhH0k3EfiDBH6eApT7FGCc7Y+VtHY3lzG9FE5gZUkPlPSKuSR/uKTjJFkOtXEU43zTJlA6R9IvJR0zV6zabIrPlbSdpJViYEkB4G+FPSY4xziHYd/4CwkucJnmA6fEElD9wwk9dEzgfnPx+62SbGXF6wLGcvv59+j5QZebdqzT8u4oAJajcPmw/fwI22nBi+9IbvhAex84xOUKptESCdjsie+RdFbAhD/rGv+JJHtS3OkbGBQAvu59YocONMvB+L59koFhvAyvl7SZ7+VM6xkTsLEkT5P0zRazJoaID9dI+g9JdvPovlEA+CHeluQ/9nexEBcJbcSbiPu0zaF+lzMtZ0rA3syy3+X/GFm8vk3S5yVt48mdAsCP7kGROVSfgZm+Sdhd+IC9WssGgaoEHpPAm1m3SPqUpLtVVarOcRQAdWjVO9YGeHQR9OgDzvjAgg+sUe8y5egCCdx57s76C4nFZ3vT4J9D24oCIDTRhfaqzLlN4F4I3LCARQgf2HrhEuQTBJYQePLcRFIXJJb8h68Le+Nl8yVaNdxBAdAQXIXTTk3YyYYdjs8k5pR8YKsK1yaHlEdgVUlH9DzAL9R1ZE8DnhDChBQAISiOb+MoCgB+AsEHOvWB21OZgW18yGCvEwF75P+dzK5F8/XD2q7YSAHg5HGSDszM4UJVr7TDEwUvH7DV7dggMEzAZt3r8n1+L9+e1O4XJdnTjUYbBUAjbJVOstc3JhmN/bDBB8L7AK8BVgpNxRxk0/aWsOCaLZC1WhOrUgA0oVb9nOMpAiiC8IFOfMAmAuptStXqIYEjOyJgU/jaglGlFNonS6r9BgwFgK832uMnW8a0FCdET2zdlw8c7Hsp03pCBHaYW7DnkgLj7jck2YJFlTcKgMqoGh+4eyYjT/sK7PRLUTHLB+zuJ4rV1RpHCU4MRcAmzDmvwOQ/uEZsGuHKGwVAZVStDtyL5YB5ClJwUBoEJ49/bZlVlgNuFZ6yOXkVSd/jOtMrq1qUAqAqqfbH7TT37uZpOCeFAD4QxAcunfuNd/+2r0G1v6xpISICH+HaWnZt2fTBu1SxCwVAFUrhjrGFJ3adn5DCXlmyCR087opoE665+YCNpbHXuY6bX0N9nXCXJS1lQOB5xNJFueRcSevOsisFwCxCfA8BCEAAAjET2EDSxRQAiwoAuwH49CyjUQDMIsT3EIAABCAQM4HPRZL8r52fd8DmHrDlfGN4CveMaYajAJhGh+8gAAEIQCBmAk/qKdGePf9T7p6S7i9pvRFI9nOvvZFgSw7bWBUbrHplD7KeM216bAqAEavxJwQgAAEIJEHAZr/rcprfqyR9SNKODenYWwrPknRSx6+Gv2GSvBQAk8iwHwIQgEB+BOzOdDdJR0o6c/6RtQ2wtDtam1J23yqDxyLB8saO7qjt0f7bJYUceGpFRFczxf59rnCxBZGWbBQAS5CwAwIQgECWBHaWdHqFpGlT6B4wl/RWjJjC3SVdXUGXtr/Df13Sxo4cnibp/A70eM84HSgAxlFhHwQgAIG8COzTYDKyYyOeZOk/nZPmzXPTCb+iIxew8QNWaLQtVqadb08B1hrVhwJglAh/QwACEMiLwItaJBf7vTq2aZYf4jzK3kbxP7ZjF7CnLe9rYadpyX/w3ctGdaIAGCXC3xCAAATyIbB9gAXJDokIh41h+JFjorQ75Qf3qK8taT1I2KH//c3ozJkUAD1amq4hAAEIOBOwgX1tE8l1kjZxlrNq8y8MoM8kHjdJekRVQRyP+5ijjov0owBwtCJNQwACEOiRwLYBE4ndmfa92W/Yniv97de3gvP92+uC3w1ou+GC59+HdaQAGKbBZwhAAAL5EDgoYBKxVwb73uxVvOFkFvLzV/pWbqR/e+JiYxFC6mht/WX4ZwAKgBHq/AkBCEAgEwJHBU4ga/TIZXNJ1wfWZ5Bc7Xd/e60wts3mZBjIGPLfBwwUpQAYkOBfCEAAAnkRODVwAtm6Rzyhi5nhhPqqHvWa1rW9ffHrwDY0vW0CpWUbBcCABP9CAAIQyItALvH90Q5JcFAA2Mj4lSM2+7MddP/qQN9cHGSgD/9CAAIQgMAdBHKI7/Z+/M8dkuCgAHhC5M5iTwFsmuaBvCH+vXCgcw4OMtCFfyEAAQhAYIFADvHd63dwS6Q2F38K21sDFwCm+2ameA4OkoIBkRECEIBA1wRSj++2+M5FDsnPEqC9879N1wZp2N8ODgyWPflI3UEa8uQ0CEAAAtkTSD2+e06N+97ErH9O4CJg2ZwHqTtIYjZEXAhAAAKdEUg5vt9T0o2Bk97g9/OLE1ryeOAsRwdmsWxip5QdZACGfyEAAQhAYCmBlOP7iYET3iD527+2MmJq25sC8/icAUjZQVIzIPJCAAIQ6JJAqvF918DJbjj5/1KSvVmQ2vaCwExs+WEKgNS8AHkhAAEIVCSQYgFg8+D/NnCyGy4A/qEiu9gOs+WJh/Vo+/lbpmCKDhKbYZAHAhCAQIwEUozvrw2c6EYTpS0mtOfwfPgxGm6MTA8LzOV71keKDjKGDbsgAAEIQGCEQGrxfUOnBXBGiwD72xLgjiO8Yv5zp8AFwI9N2dQcJGYDIRsEIACBmAikFt8/FjjJjUv8w/tunVsE6OOS7hKT0SbIYj9dDMve9vP3rZ/UHGQCG3ZDAAIQgMAIgZTi+/0kWUJum9ianG+rAb5Oko0/iHULPQhw2XoAKTlIrIZBLghAAAIxEkgpvn+zp+Q/XDD8UdLuMRpy7s2Ftwfm8wnTMyUHidQuiAUBCEAgSgKpxPdnBU5uw0m9yeeTJN07Mot+LTCjd5t+qThIZLZAHAhAAALRE0ghvq/usNpdk6Q/es7Nkt4vab0IrGwrAl4WuADY3/RKwUEi4I8IEIAABJIjkEJ8f3PgxDaayNv+fcncgkQvlWRJuK8t9BsAxsTmFaAA6Mui9AsBCEDAmUDsBcBGkq6KvAAYFBA2OdGyFfScbTau+Q86MLJXLikAxtFmHwQgAIEMCMReAHzGIbENErbXv1+WtEWHvrGaw+P/Cwfyx+4gAzn5FwIQgAAE6hGIOb4/VNLtCRYAVljcIMlW01urnjkaHf0KB0bHDiSJ2UEGMvIvBCAAAQjUJxBrfF9h7nH6aQ6Jzeuuf1K750t6keO0wjZA0vqY1H/T/VZULNtidZCBfPwLAQhAAALNCMQa320u/qbJK8bzfibp4c1MNPUsrwGSWw96jdVBBvLl9q9VvrtJOlLSmR3Oex3jRYNMeQVBb3vaY9ezJZ0gaV9J6+YWHBz0iTG+rz1nvwsyKwDM9+3njKMl3SOQHe/mNEDSrqHlW4wOsly4zD7sLOn0DB3fO/DTPoXCOB+w96IPSHRt965CW4zx3X47H2fPXPZdI+lNkuzxfZvt006c3jssVIwOMixfLp/3mXOKm5wMmsuFgx55B0Yv+9qAJrurZFtKILb4vuX8ADovX4ip3XPnlx1eapXZex4k6TanfHGf4e5jc5Bh2XL5vIeTIWNydmQheffpA6f0PFFLrLEqtvj+lQJj4Xcl3b+Gg9jPxKc6cbJ2F22xOcgi4TL4Y/uCKt4+EwB9U4AckkG8CK1CTPHdZp7zuk5/Lenlki517KON7LbK4RGSlk2+M8PIL3TU4cWjfcfkIKOy5fD3iY7GbOOQnOsXjGDbD9vrJW2WQ9AIqEMs8d2m0f2VYyzcdZ7Z+nNz99useTaPf4zX4RXz41YmLTts8wqc5yS7Tf6zxqhvxeIgo3Ll8Pe2ToaM0bGRKc6AU5pdbIAZ2wKBWOL7yxxjoa2SN7ptIynmm68/SHrKqNBzP2O9w5HTssV/RvuMxUFG5crh74McjVlaYEdfCowqPmCv1rItEIghvttqeragThX71T3GBlbfa0HdJZ/syYD5RN12uzr+W5LsZ2Lb7OnVdU6y2muXS+7+rdMYHOQO9fP7v70T2pUj0Q+s8YE7fGBsoMsvvFTSKIb4bkvqevnmYRUorCrp9ZKudJSjjX5WxNirefYko0070861JzBjtxgcZKxgGez8oaNBpxmb7/wuJNjGz3b5LGcZxJC2KvQd3+/t+Hv83yStUwPQBpIOl2QD8kq6jm0Vw0ljDngCUMOB6h7q9SpHSc6LrmUFqxD23qruhZrx8X0XACc5JtslI9or2vEBkr7vKFcIHw7ZxhOncenbQabJlvp3RxXkZCEdlrZI+k19wKZjbTsDW+pxZ1j+PuO7DXJrasdZ5/0iwAyQT5ufWnpWXyl/f/ywM4z73KeDjJMnp30HOl4AKTslsvsFxtLZnpFTAAmgS1/x3R45/94p/lmR96gAbKwJGy/yRklXO8na5/VoYwvsbYipW18OMlWoTL40+H06AH3DvzQf4DXAxcGzr/hug+68fO+/FqsY5K9NJH12fkEfL7m7bnfRnP+TKPXlIJPkyW2/PYLp2vD0B/MSfcAmAto0twDSUp8+4vtd5ia7+btT3DMbh1ptbxzah8yt1vpjJ9m7vCYvrrpaZh8OMg58rvu2YypgCqAMAkqXwatpXwfnGkRa6NVHfP+4o7+/pQWLqqfaXPx7SrrIUY+mPl71PFt8rtLWh4NUEiyjg3bP7NFSVSfkOJ5EdOUDJ7MY0NiI2XV839HxNTtbXW/NsVr67LRpeW19iRsSKwR+Weda6NpBfEwVf6t7sRwwTwISCyRdJe+2/RzDcsATA2DX8f17jj5uN1J9bDavREqTuj26DqSuHaSObLkdu5Ok0xwvkLaBlPO5Y0/JB2zlN5vf3B7Zso0n0GV8f65jbLNJ1fq28y6S/sdRxxDX3pfGu8HkvV06yGQpyvnGnNjmp7alIe2Vpcsjd6gQTkkbFBYhfMAexZ4l6bi5FdP2rjkLXDkRZrGmXcV3m3vhL06x7La5hX0evFit3v5acX58gNfaBm2uExsguUVdMl05SF25OB4CEIAABNoR6Cq+2+C8Nslr2rk2qDC2zZYdtnUI7F37abJ3+Z2NV6i9deUgtQXjBAhAAAIQaEWgi/hu79Bf65QIr5K0USsCvifbku9fd9K9TvFw3tyCQjZosfbWhYPUFooTIAABCECgNYEu4rtNzFMnWdU59nWtCXTTgP2sa4vu1NEt5LHPb6pmFw7SVDbOgwAEIACB5gS84/vOjq84/0nSas1V7/xMm/74AEn21CJkcp/Vlk1c1HiApLeDdG4FOoQABCAAgWUEPOO7JZ3THZOdLSaU4rZhh8sO2wBJe7us8ebpII2F4kQIQAACEGhNwDO+23K8s+5Om37/rdaa99/AAyX9wJGRsf1kWzU9HaStbJwPAQhAAALNCXjF97UlXeiU3G6WdJ/mKkd1pg2QvNGJk61g2HqApJeDRGUFhIEABCBQIAGv+P4up6Rmd7UfyMhOtsJg06cgs86z5eZbb14O0lowGoAABCAAgVYEPOL7Vo7z49vEaBu00jiekx8kyX6jn5XIm3z/51ADJD0cJB4TIAkEIACBcgl4xPevOiU1S4Qvy8RUNkDyJ46cnhGKk4eDhJKNdiAAAQhAoDmB0PH9tY5J7UxJKzdXNaozbTnhJnf2Vc75dkhNQzuILQfJBgEIQAAC/RMIHd//7pjYHtc/riAS2ADJ85043SJphyBSzjcS2kEoAEJah7YgAAEINCcQOr5XuUNtcsxXmqsY3ZnvdEr+xvVDobUN7SAUAKEtRHsQgAAEmhEIHd+bJPdZ59hrcvdspl50Z23pOEDyCo8BkqEdhAIgOp9EIAhAoFACoeP7rGTe5PtDM7KNPclowqDKOft7cArtIBQAHlaiTQhAAAL1CYSO71USVZ1jLpK0Tn21ojzDxjDU0b3Osb+RZGsNBN9COwgFQHAT0SAEIACBRgRCx/c6SavKsXs00iq+k1aS9CvHAuAJXiqHdhAKAC9L0S4EIACBegRCx/cqSb3qMT+XtGI9daI9+uWOyf9rnlqHdhAKAE9r0TYEIACB6gRCx/eqyX3WcbdLemR1NaI+cj1JlzoVADdJupen9qEdhALA01q0DQEIQKA6gdDxfVZir/r9Z6qrEP2RtnZBVb3rHneYt/ahHYQCwNtitA8BCECgGoHQ8b1uAht3/DWSNq4mfvRH3VuSrV44Ts+2+/42tzDSut4EQjsIBYC3xWgfAhCAQDUCoeN726Rm57+5muhJHHWSU/I3Ti/pgkBoB6EA6MJq9AEBCEBgNoHQ8b1tAXC2pNVni53EEU91TP6/6GqAZGgHoQBIwncREgIQKIBA6PjetgB4dibM7Z383zsVADZA8lFdcQrtIBQAXVmOfiAAAQhMJxA6vrcpAL4zXdSkvn29U/I3vp/vkkRoB6EA6NJ69AUBCEBgMoHQ8b1pAXCrpPtPFjOpb+4qyWtVxOslbd4ljdAOQgHQpfXoCwIQgMBkAqHje9MC4IjJIib3zScc7/4P7ppGaAehAOjagvQHAQhAYDyB0PG9SQFgd8sbjhcvub2W3+xpRhMOs845V9KaXRMJ7SAUAF1bkP4gAAEIjCcQOr7PSmLjvn/NeNGS3Ps9p+Rv3J7bB5HQDkIB0IcV6RMCEIDAUgKh4/u4BD9t3++8VrFbqqr7HkvQ03Rt892PJK3grsGYDkI7CAXAGMjsggAEINADgdDxvW6Se1IPOnt0uYakvzgVALdJerCH0FXaDO0gFABVqHMMBCAAAX8CoeN7nQLgBH/1OuvBBufV0b3OsTaosLcttINQAPRmSjqGAAQgsIhA6PheNbHZ/PjbLpIk3T82kXStUwFwtaSN+kQT2kEoAPq0Jn1DAAIQWCAQOr5XLQDetyBC8p9sYp6qetc9ziYU6nUL7SAUAL2ak84hAAEILCcQOr5XSXAXS1pvuQRpf3iYJJuat4redY85S9JqfeMJ7SAUAH1blP4hAAEI3EEgdHyvkuT2zQT+ipJOd0r+xtEWE+p9C+0gFADTTWqveuw297vPkZLOlHSFo4NVuVhjO8YmDfnN3HrhNjDGRhD38mrMdBO2+tZGE79I0pcl/VHSddi/8t3VDZJsNTkbXGZJxn2t9FaWjuPk0PF9Vryw/laKQ/XWUthyvLP0bfr9t1pLF6iB0A5CATDZMDs7V5RNnTHm834u6ZGTkSb1zZ6SznMMKjHb0UO2y+bmZD+gq2VTk/K0BWFDx/dZdnzMQtdJf7qTpAudrtVbJO0QC53QDkIBMN6y+0i6ycmhZl2UqX9vF8wrx2NNYq8tHfpxbO92N3WspLWT8ITuhQwd36fFkqO6V8+tx8Mcr9cPuEndoOHQDkIBsNQIezg607QLMrfv9luKNok9JH+/R6kDHz8lo0fPIZ06dHwf8B7911ax2yKk4D22tZUk+7lpVMcQf18uaYMedVvSdWgHoQBYjHh7R2cK4ZAptWFPUFLzr72dAklKdutK1kMWX3r8JSl0fJ9ky7dlRPtrjtfsy2PjFNpBUgvQ3vY40dGZJl2MOe//jrfBArZvj6Uvwv4ud1LjfNzuQjcLaL8cmgod38dxP1/SWjnAkrSL4/Vqg75Xjo1TaAehAFiwsM2ENe6CYV87LvdbQBz1p5di/879/9CoPaJ74ULH93Gx6wXdq+XSo729cIbjNfsPLlK3bDS0g1AALBjkIEdnGnchlrLP5uVOYfsG9u+8ALC7LLYFAqHj+2iM+XFGr+raQONR/UL9/ZUFk8T1KbSDUAAs2PdoR4cK5ZgptnPcAuKoP12C/d0C6jS/tbkW2O4gEDq+D3O3Vex2ygT0+nNvGl3qdL3a2KV7xsoptINQACxY+odODjV8EZb4+WcLiKP9ZK/+WYAs0T5967x1tF7RvWCh4/uwbT/VvToJXJR5AAAgAElEQVRuPX7I8Vp9p5vUARoO7SAUAAtGOdXRqYYvxNI+/3QBcbSfKAD6K37sNS426e6SrnGKQbaKnbWfw7adJJtrxCOO2mRCUc9RQQHg58I2MYaHU5Xepk38ksJmi6KUbquu9beFW1ZPwTk6kPEzjv73xg7k76qLkx052eyfUW8UAH7mOdDRsboOrDH193/8TBa05a9j/84LIBvFzSY9yPEnqD/HsIpdICM/3fEatWnMbUGhqDcKAD/zbOPoXDEl5K5lua+fyYK2bDMXds2m9P54DfCOBbQ8f358ZtCrpL/GVpX0B6dr1J5EJbGGCQWArwMe7+RgpQZ6e1yXymaTo3gtKFKq/afpbRMBbZqKczjK6Tn1+Lcd5e66ac8ntJ/tWpmm/VEANCVX7TwbYOI1r/S0YJjjdzdKun817NEc5bmkaI42bqNTKvNDeDrnmpLOcbrpuFVSKk/fZjG+q6QrnTjZEt/3mCVALN9TAPhbYndJ9kioTXDj3DvWgPe3VvgejsT27r5vT4ZyWYe+jQfaTyBeseLDbQSL7NxPOnL618h0nSoOBcBUPMG+3IvlgBsHppslRbeIRg3PsFcCP+YYcLwCfirtHhP7q1Y1fKXNobYOgt19etjtCkkbthEuonMf4DhA0p6+2FOYZDYKgO5MZbNmneZ0gXpc9DG0ae/8P7w7E7n29EJJ52L/YAnKZm7bP6OpaNs635cdfetVbYWL6PzvO3J6dkR6VhKFAqASpmAHrSBpV0lHzC88YetDx5BoY5HB7jR+Lckemz8hw+Bu76jb4ik2R8TvHe/YYrFnSDlsLM1ZkmwqaFtmeZ1gV2X6DdmIc6+fGX8ryZ5i5bA93zHe2psXFt+T2igAkjIXwkIAAhBYRMDeNbd3zkMWW8NtWSGew2ZrRPzViZMNkExtgPIym1IA5ODa6AABCJRKwHPZ6VRm3axi+0Ockr8VSzbGJ8mNAiBJsyE0BCAAgWU/g1zklNhsFTubzCyHzeaHuNaJ098l3SVVSBQAqVoOuSEAgdIJvN8pqdld7bszgvtFR06vSZkTBUDK1kN2CECgVAK2xrzdpQ//Xh/qsy1ktW4mYO0tIq8Bkr9LfYAkBUAmXo4aEIBAUQROckr+VkTYvCU5bDZA0l4lDlUYjbbzpNQhUQCkbkHkhwAESiPwZMek9ssUVrGraHB7XXQ0aYf6+8SKMkR9GAVA1OZBOAhAAAKLCNg7+TaHRKhENtrOoxb1lu4fd3JcjMtmJ902XTQLklMALLDgEwQgAIHYCbzOMfl/IXbla8j3HkdO76shR9SHUgBEbR6EgwAEILCcgL1uZq+djd61h/jbllPefHlPaX/YWpKtHhqCy2gbl0haL208C9JTACyw4BMEIACBmAl83CmpWZJ7a8yK15TteEdO+9WUJerDKQCiNg/CQQACEFhGwKaatSlnR+9IQ/x9nqS1MuH8eCdGxtnyZVbLTlMAZOL1qAEBCGRN4LuOie2fMiG38vwiayGKonFtPCYTTsvVoABYjoIPEIAABKIksLtj8v9RiqvYTbDSqx052Qqe2W0UANmZFIUgAIGMCNgS0n9xSmy3SXpIJqzuLOkyJ062FPUWmXBapAYFwCIc/AEBCEAgKgJvcUpq9oj7/0alaTthPurI6e3tRIv3bAqAeG2DZBCAQNkENnFcxe5qSXfPBO92km5xKgDOz2iA5BJzUwAsQcIOCEAAAlEQ+JxTUrO7/3+JQsMwQpziyOmFYUSMsxUKgDjtglQQgEDZBHZ2XMXuLEmrZYL3Hx2T/48zGiA51twUAGOxsBMCEIBAbwRWkHS6Y2J7Wm+ahe14VUl/dOJkSwjvFFbc+FqjAIjPJkgEAQiUTeDFTknNHv3/d0Zo3+TI6T8z4jRRFQqAiWj4AgIQgEDnBNaWdIFTYrOBcjt0rpFPh3eTdJUTp2skbewjdlytUgDEZQ+kgQAEyibwb05Jze7+D88Ird2hm04e/x2UEaepqlAATMXDlxCAAAQ6I7CVJJt0xiOpXS5pg8408e3ogZJsEiMPTn+WZJMvFbFRABRhZpSEAAQSIPBVp6RmifIVCehfRUQbIHmqI6dnVhEil2MoAHKxJHpAAAIpE9jFMan9RpItlJPD9iJHTt/OAVAdHSgA6tDiWAhAAALhCdgSs//jmNh2Cy9yLy2uIekcJ0621PL9etGqx04pAHqET9cQgAAE5h/Pe/yebW3azwq5bDYnvxenj+QCqY4eFAB1aHEsBCAAgbAE1pd0qVNiu0nSvcKK21trm0m6zonTFZI27E2zHjumAOgRPl1DAALFE7BX87zuau2Vwly2ox05vSoXSHX1oACoS4zjIQABCIQhcB9JNzsltr9JWieMmL238gjHdRF+K2mV3jXsSQAKgJ7A0y0EIFA8gW84JX97ovDPmdBdUdLPHTk9MRNOjdSgAGiEjZMgAAEItCJgC/J4Pfr/hSRLnDls+zlyOi4HQG10oABoQ49zIQABCNQnYKvY/cEpsdkqdo+sL1KUZ9hPGBc5cbIBkttEqXWHQlEAdAibriAAAQjMjWZ/g1NSsycKn8uI8L87cnp3Rpwaq0IB0BgdJ0IAAhCoTeCukq50Smz2mtw9aksU5wn3lHSjE6eLJa0bp9rdSkUB0C1vm8faZuU6UtKZkuz9U6/fAWkXtjn5gC2Sc7akE+aWy9034QD+H47X/P/pNpy59vZ1R057u0qeUOMUAN0Za2dJpzs6dU7BHl0oXmb5wGWSDkhssNsDJNmUs7N0a/L9uZLW7C6cufa0qxMj4/rLxHzGFTQFgCve5Y3vI8kGnTS5sDkHbvjAZB84VtLay6+0uD983zEG7B636pWls0WL7Omol88/urIkBRxIAeBv5D0cndnrIqFdvwAE2/BsT5FkC+rEvD3PMQ78UJL9vJjD9lpHTl/IAVBIHSgAQtJc2tb2kuy3S4I+DPABXx84ZOnlF80eW8Xur05x4La5cREPikbTdoLcWdLlTpyul7R5O/HyO5sCwNemJzo5M8nEN5nANz2+FuBtwZgYt7c6xgEbUJzL9jFHTjEXiL3ZjwLAD/22js5MgkovQWEzf5sd6nc5N255U0nXOsWCq+beKNqosWRxnWhPS29x4nSepLXiUjcOaSgA/OxwkJMzk0j8EwmM02Rsg8di2+x3Zy9/el1syraQ55uOnGz8BdsYAhQAY6AE2uW5fKVXQKFdv2AN227Y2u/tsWwPc1zF7k+SVotF0ZZyPMcx+f8oowGSLTEvPZ0CYCmTUHtsZC5BHwb4QLc+sHWoC7hlO7YYz08dY8CTW8oXy+lWxFgx43Gd2ADJh8SiaIxyUAD4WeVUJ6f2uFBo0ycAwbV7rlv5XdK1Wt7L8fq3x+W5bP/qyMlmXWSbQoACYAqcll8d5ejYJJbuEwvM42duK+Gt3vK6DXH6nSRd6HT920A5GzCXw2YDGG0go8e1dbWku+cAyVMHCgA/ugc6ObbHxUKbPkEIrt1yPcPvcq7Vsq0052X799eSJO6DP+vIyVZcZJtBgAJgBqAWX9ta015BgHZhiw8s9YEYXgO0MQheq9jZJDk2WU4Om62NYk9sPPz4rIwGSLramgLAFa+Od3Jwj4uGNn2CEVy74WoTAdk7931vxzle8y/tW7lA/du0xT9x5PS0QHJm3wwFgK+Jt2MqYJcKn6TaTVJNifPBvpdypdZ3cUxqNseBLZSTw7anI6f/zgFQVzpQAPiTtlW6vB51pRSgkZWk7eUDJ0ewGJAtRmRjELx0fKx/qOqkB1u58QInTjZA8r6daJFJJxQA3RjSXgliOWC/4OgVdGk3fpsdE8lywK9ySmrmg1/uJkx10ss7HTkd3okGGXVCAdCdMXeSdJqj85Os4k9W2CicjS6VtH8ks7ytPyfLZU7Xtq0mumV3Ycq1J9PDa3VUGyC5gav0GTZOAdCtUW3wy66Sjph/XOi19CWJJlyigWUcLC1x2OhuG2S3t6R1ur10p/b2Eafkb773jqk9p/WlPa3xup5ekRaKOKSlAIjDDkgBAQikScAG+t7slNjOj+TnjRCWeZwTIysofpPRAMkQrCu3QQFQGRUHQgACEFhCwAYget3VvmhJb2nusAGSv3LktFuaWPqXmgKgfxsgAQQgkCaBZzomNRsvZD8Z5rC93JHTV3MA1JcOFAB9kadfCEAgZQKrSvqjU2Kz14YfmjKcIdltgKQN2PR4SmJvVt1rqC8+1iRAAVATGIdDAAIQmBvN/kanpGaJ8tMZEf6gI6d/y4hTL6pQAPSCnU4hAIGECdxN0pVOie0aSRsnzGZY9Hs7DpD8W2RvggzrncxnCoBkTIWgEIBAJAQ+5ZT87e7/TZHoGEKMkxw5vTiEgKW3QQFQugegPwQgUIfAAyXd5pTYzpa0eh1hIj72qU6MrEj6haQVI9Y9GdEoAJIxFYJCAAI9E7BR+T9wTGzP6lm/UN3bAMnfO3GyAZKPDCVo6e1QAJTuAegPAQhUJfACp6Rmd7XfqSpEAse93pHT5xLQPxkRKQCSMRWCQgACPRJYQ9JfnRLbrZLu16NuIbu+q6S/O3G6XtI9QgpbelsUAKV7APpDAAJVCLzNKanZ3f9HqwiQyDGfcOT0lkQYJCMmBUAypkJQCECgJwKbSbrOKbFdIWnDnvQK3e2OkuxphhU1of87V9KaoQUuvT0KgNI9AP0hAIFZBI5ySGiDBHnArM4T+v57jpx2T4hDMqJSACRjKgSFAAR6IPBwSTbyfJCwQ/77W0mr9KCTR5fPdWJkvH+Y0boIHuwbt0kB0BgdJ0IAApkTsHfNf+aY2J6YCT8bIPkXJ04258KDMuEUnRoUANGZBIEgAIFICOzrlNTsrvb4SHQMIcbBjpw+HkJA2hhPgAJgPBf2QgACZRO4k6SLnBKbrWK3TSZ4N5F0rROnqyRtlAmnKNWgAIjSLAgFAQj0TOB9TknN7v7f27NuIbv/vCOn14UUlLaWEqAAWMqEPRCAQNkEtpZ0o1Niu1jSupngfZjjAMk/SVotE07RqkEBEK1pEAwCEOiJwAlOyd/u/vfpSafQ3doAydMdOT05tMC0t5QABcBSJuyBAATKJbCrY1L7paSVMkH7EkdO38qEUfRqUABEbyIEhAAEOiKwsqRfOya2R3ekh3c3NkDyQidOt0ja3lsB2r+DAAUAngABCEDgDgKvcUpq9uj/SxlBPsyR0/sz4hS9KhQA0ZsIASEAgQ4I3FnSZU6JzVax26IDHbroYivHAZKXSzI7sHVEgAKgI9B0AwEIRE3gCKfkb3f/h0SteT3hvubI6aX1ROHotgQoANoS5HwIQCB1Avabs/32bMk69H/nzb33v1bqgObl38WBz4D3mZJsDAZbhwQoADqETVcQgECUBL7pmNieH6XG9YWytxfOcOT0D/VF4oy2BCgA2hLkfAhAIGUCz3ZMaj/OaBW7/R05fTllB0pZdgqAlK2H7BCAQBsCq0qyGecGj6FD/mur2O3URriIzl1f0qVOnGzGxXtGpGtRolAAFGVulIUABIYIvNkpqVkh8cmhflL/+CFHTu9IHU7K8lMApGw9ZIcABJoSuJskW20u5F3/oK2rJd29qWCRnXcfSTc7cTpf0tqR6VuUOBQARZkbZSEAgXkCn3FKalYEHJgR5ZMdOe2REackVaEASNJsCA0BCLQg8CBJ9hv94I495L9/zmgVu6c7MTLep2U0QLKFK/Z7KgVAv/zpHQIQ6JbACpJ+6JjYntGtOm692QDJPzhxul3SQ90kp+HKBCgAKqPiQAhAIAMC9tg55B3/cFvfzoDPQAX7GWNYt5CfPz3ohH/7JUAB0C1/u/vYTdKRkmzmqyscL7KQF2ydti6WZH71Pkk7d4u3Um82OMsWfbElR22WtpsytEFVe90g6WxJJ0jaV9K6lQime9Caks5xsvetku6bLppFkt917hq50onTNZI2XtQbf/RGgAKgO/SWDE93uqiqBvw+jjtJ0rbdYZ7Y0+pzU40eKum6Am1Q1e62GM4BklacSDHtL8z+VVnUPe7DaaNZJL29wlhX/6rH26uXbJEQoADoxhD7FH6naa9bPbkb1GN72Wh+0FHVIFX6ccdm+HrWPRyLP3uSt+FYz0tv5wMcB0ja0yYrxNkiIUAB4G8Iz98cU0pU9i7x4/xxL+lhDUk/d7yjSckGdWQ9RZLN/57L9hVHH7BpcnPZvu/I6Vm5QMpFDwoAX0vaKmP2O2udwJvzsTad6F18kS9p/bPwb+x/uSxj+0hJNvLc49r6jaRVlnhdmjts4SIPRtbmd9JEkrfUFAC+9j3R8YLyulC92z3cF/mi1h/iGPi9OcXQ/vVzU9putohoen/YU4xfOV6HT0gPyViJ7UnZX5042QDJ+43tlZ29EqAA8MNvA99iCOKxyWBPRO7kh31Ry1/ABq190AbOpby9zNEHvpYymBHZ7WmPV6w4YqQv/oyEAAWAnyEOcrygvC7Urtrd3Q/78pbtsezfsUHroG6vq6a6rSfpEicfsNdH75UqmBG5N5V0rROnnAZIjmBL/08KAD8bHu10QXWVpD37OcwP+/KWbfyFpw4ltW2Ph1PcPuDoA134cFfMv+jIyV4rZYuUAAWAn2E8pxtNPfnYwDzvbVfHoJY6/7ryb+1tLIf27+24it3fMpo06eGO42R+m9EASQcX7b9JCgA/G5xKApp4B24rsXlvj4f/RP51C4CtvI3l0L5NQFVXz6rHv8RB3j6atAmffurI6Yl9KEWf1QlQAFRnVffIoxwvrKqBKtbj3lUXZoPjt4N/kARor8+lNnnLUxxt/4uMZkq0Ccq8YoRNL80WOQEKAD8DeS6m4XXRdtXus/2wL2/ZBgHmuNZCVzYa9HPGcqJpfDC7/94psVkx9Kg0MMyU0t7EudCJkw2QjGH675kQSj+AAsDPA7ZxurgGgTnVf+01wLX9sC9qmdcA29/hpfYa4Oscr7vPL/KutP94jyOn96aNphzpKQB8bX2840WWagHwfl/ki1rf0XFe81T515HbJgKyV8RS2WyWSa9XP43F5qmAmCGnDeq80Sk22Wqgua8qOQNvOl9TAPjayn6HZirghbtQeye760VTbMBhnaTHsQu8Dva9PIK3/nFHW6fGYhpczxsTG1fAlggBCgB/Q9mkN17zkKeUrGwxoMf6417Sg73D/jPHxJCSDerIenJiiwHZ0x6bcraOjlWPPVfSmks8K80dnm/HWD7JaQGpNC1cQ2oKgBqwWhy6V+HLAV8p6Ukt+LU99W6SfuSUHKomkZSOO6bDcRptbTs4/3uO9n3uoJPE/11Z0q8dOT0mcT7FiU8B0J3Jdyp0TXpbECmGKVNXk/Q2xylPU0rwk2S11RptadsVurssgvRkT9km6dR2vxWOqfGYBPXVjpy+NKlT9sdLgAKgW9tYILEZ6mxxDHu96nLHC7Jt4Gt6vs2SZu9K2yhjK3pi2+xpgAVCW+/+nMKfzNj4lLMkHSdpb0nrxGasCvLYHAV/cbqObpP04AoypHDIneeKu8ucONkAyS1SgICMiwlQACzmwV8QgEBaBN7ilNSsAP5EWiimSvtRR062kiBbggQoABI0GiJDAALLCGzi+JPO1ZI2yoSzvY10i1MBcL6ktTLhVJwaFADFmRyFIZANgf9ySmp29//6bCjd8XNX05/0Zp33gow4FacKBUBxJkdhCGRBYGfH12ttXIQNGs1h+0fHIunHGQ2QzMHWtXWgAKiNjBMgAIGeCdhg2tMdE9tTe9YvVPerSvqjEycbIBnjIN9Q7IpohwKgCDOjJASyIvBip6Rmj7u/lRGpNzly+mRGnIpVhQKgWNOjOASSJGALSV3glNhsoNwOSVJZKrS97nqVEycbIHn3pV2yJzUCFACpWQx5IVA2gXc5JTW7+/9gRmg/7cjpjRlxKloVCoCizY/yEEiKwFaOi2vZpFwbJEVjsrAPdFwF888ZDZCcTLCQbygACjE0akIgAwJfdbyrfXkGfEwFGyB5qiOnZ2TCCTUkUQDgBhCAQAoEdnFMamdKsoVycthe5Mjp2zkAQocFAhQACyz4BAEIxEnAlpi1tTNmTUrT9HsrLnLYbEa+8xw5sdpfDl4ypAMFwBAMPkIAAlESeKVjUrOlj3PZ3uHIyYqrHXMBhR53EKAAwBMgAIGYCawvyZYpbnp3P+28myJZqjoE/80kXefEacCQAiCEpSJqgwIgImMgCgQgsITA4Y5J7Z1Lekt3x9GOnCgA0vWLqZJTAEzFw5cQgECPBO4j6WanxPY3Sev0qFvIrh/huC7CIPnbvzwBCGm1CNqiAIjACIgAAQiMJfANp+RvyWzPsT2mt3NFST935EQBkJ5PVJaYAqAyKg6EAAQ6JPB0x6RmCdMSZw7bfo6chpM/TwBy8JYRHSgARoDwJwQg0DsBW8XuD06J7XZJj+xdwzAC2E8YFzlxGk3+FABhbBZVKxQAUZkDYSAAgbnR7G9wTGqfzYjwvztyogDIyFEmqUIBMIkM+yEAgT4I3FXSlU6JzV6Tu0cfSjn0eU9JNzpxGpf8eQLgYMS+m6QA6NsC9A8BCAwT+A/HpPavwx0l/vnrjpwoABJ3jqriUwBUJcVxEICAN4EHOK5id66kNb0V6Kj9XXtI/jwB6Mi4XXZDAdAlbfqCAASmEfi+Y2J7zrSOE/rOFi2yxYsm3aV77mcegIQcpYqoFABVKHEMBCDgTeB5jknNlse1ZXJz2F7ryGlW8UABkIMHDelAATAEg48QgEAvBNaQ9FenxHabpAf1olX4Tu8s6XInTrOSv31PARDepr22SAHQK346hwAE5ggc4pjUPpYR4SMdOVEAZOQoVVWhAKhKiuMgAAEPAptKutYpsV0l6W4eQvfQ5vaSbnHiVCX58wSgB6N7d0kB4E2Y9iEAgWkEvuiY1Oz38ly2bzpyogDIxUtq6kEBUBMYh0MAAsEIPMxxFbvfSVolmKT9NmRvMFRN0p7HMQagXz8I3jsFQHCkNAgBCFQgYIvx/NQxsT2pggwpHLKapD85cqpTMFAApOAxNWSkAKgBi0MhAIFgBPZ2TGonBpOy/4Zs9sI6SdrzWAqA/v0hqAQUAEFx0hgEIFCBwJ0kXeiU2G6WtG0FGVI4ZBNJ1zhxalIoUACk4DU1ZKQAqAGLQyEAgSAE3uOY1GyFvFw2W7mwSaL2OocCIBfPmteDAiAzg6IOBCInsLXjKnaXSFovcv2rirez4wDJpgUCBUBV6yVyHAVAIoZCTAhkQuA4x7va/TJhZNMW/8SREwVAJo7SVg0KgLYE651vF/ZukmxGL1vQ44oIL/KmwSHW826QdPbcdLAnSNpX0rr1TMbRAQk83tHfLZatFFDWPpva05FTm+uUJwB9eoVD3xQADlAnNGmP9E6P9MJuExRSO/cySQdIstfQ2LojYKvYneHo/4/pThXXntaeK1QvcOTU5nqlAHA1ffeNUwB0w3wfSTdFelG3CQgpn3usJAu2bN0QeJWj/x/djQqd9PJOR05tr1cKgE5coLtOKAD8We8R8QXdNiCkfv4pGT029vfk5j2sL8mevHj4i/3Es0Vz0aI6c0tJpo8HpxBtUgBE5S7thaEAaM9wWgu2gEfMF3SIoJB6G7YSHZsvgY84JrW3+4reaevHOHIKcZ1SAHTqDv6dUQD4MrYZyUJceLThx/F6SZv5ukHRrW/nuIrd+ZLWyoTu4xKIFRQAmTjbQA0KgAGJ8P/abGQk7jQYHBre/LQ4T8B+ZvG6Dl6YCWV7e+FXjpxC8acAyMThBmpQAAxIhP/3oAQu6FCBIfV27JVMtvAEnul4DZwmyV6rzWF7uSOnkNcmBUAO3jakAwXAEIzAH21kcsiLj7Z8ea4R2P6lN7eqpD86XQO3S9opE8A2QPJSJ06hYwYFQCZON1CDAmBAIvy/P0zkog4dJFJtz6aoZQtHwPMJ2H+GE7P3lj6YUJygAOjdXcIKQAEQludwa6cmdGGnmrRDyr3VsPH43IrARpKudvJ/Wx1v41bSxXPyvSXZ6oUh/XjQ1kWSzgrcNgVAPL4TRBIKgCAYxzZyVOCLb3Bh82/4gGmPlFcfa0V2NiFgd+hefmpPFnLZTnLk9GJJxPdcPMVJDxzECaykAx0vbq/gWmq7NkUtWxgCD5R0m5Pv/zmjQu2pTozsGv7F/FTXxPcwPp1tKziIn2m3cbzAS03UXnrzGmCY68BG5f/A0e//MYyYvbdiAyR/78TJnmY9al5D4nvvpo5bABzE1z7HO13kXomwxHZtIqBNfd2gmNbtvXwvH/p2RhT/xZHTfw1xIr4PweDjUgI4yFImIffYLGhMBeyXFEIkm4NDGrzgtuw1ynOcEtutku6XCdu7SrrSiZMVs/cY4kR8H4LBx6UEcJClTELv2V2SPZYLkaxoIyzHk1kMKJi725z8Xv5pawnksn3CkdNbRiAR30eA8OdiAjjIYh5ef+3FcsBuyaFp0rGFV1gOOIzH21oK1zkltiskbRhGzN5bsdfo7GlGU5+ddt65ktYc0ZD4PgKEPxcTwEEW8/D8y2Yus+lLp13EfOfPx2Zd2z+jaWQ9fbZq256vvL66qhAJHPc9x+v/uWP0J76PgcKuBQI4yAKLLj7ZKOldJR0hyV49u9wxIFBM3FFM2BgMmxDlOEl7S1qnC0MX1McjHH/i+q2kVTJh+U+O17rNOjpuXQTieybO46UGDuJFlnYhkD+BFSX9zDGxPTEThDZA8i9OnGzOhQdP4ER8nwCG3XcQwEHwBAhAoCmB/ZySmj29sic2uWz2ponXE7mPT4FEfJ8Ch6+YKhIfgAAEmhG4kySbb94jsd0kySbSymHbRNK1TpxsvQVbd2HSRgEwiQz7lxHAQXAECECgCYH3OSU1Kyje00SgSM/5vCOn18/Qmfg+A1DpX+MgpXsA+kOgPoF7SrrRKbFdLGnd+iJFecbDHAdI/knSajO0Jr7PAFT61zhI6R6A/hCoT+BEp+Rvd//2pktUyPEAAA8hSURBVEYOmw2QPN2R01MqQCK+V4BU8iE4SMnWR3cI1Cdgr7F6/O5vbf5yfhW7+lLFd8ZLHDl9q6K6xPeKoEo9DAcp1fLoDYH6BFaWdKZjYnt0fZGiPMMGSF7oxOkWSdtX1Jr4XhFUqYfhIKVaHr0hUJ/Aa5ySmt39f7G+ONGecZgjpw/U0Jr4XgNWiYfiICVaHZ0hUJ/AneemUL7MKbHZKnab1xcpyjO2chwgaTOHblBDa+J7DVglHoqDlGh1dIZAfQIfc0r+dvd/SH1xoj3jWEdOL6upNfG9JrDSDsdBSrM4+kKgPgH7zdl+e/YY/HeepLXqixTlGbs4MTLuNvbCxmDU2YjvdWgVeCwOUqDRURkCNQmc5JjYnl9TllgPt+T8a0dOj2ugOPG9AbSSTsFBSrI2ukKgPoH7Ok5mc46kVeuLFOUZr3BM/sc01Jj43hBcKafhIKVYGj0h0IyA55S/9mj795Ke3Ey0aM7yHCBpy1lv2VBT4ntDcKWchoOUYmn0hEAzArbWvMdv/6Nt2uQ2OzQTsfezPuzI6NAW2hHfW8Ar4VQcpAQroyMEmhO4yjG5jRYBN0t6v6T1movb+ZnbOQ6QvEDS2i00Ir63gFfCqThICVZGRwg0I2CL8owm6S7+tvfdD5C0UjOxOz3rZEdGe7TUhPjeEmDup+MguVsY/SDQnIC9/tdFwp/Ux28lPaG5+O5nPsORz88DrItAfHd3gbQ7wEHSth/SQ8CTwG6OCW5S0h+3/wRJNsNeTJu9vfAHJz63S3pkAGWJ7wEg5twEDpKzddENAu0I7OWU4MYl+Vn7bpJ0uCRbaCeG7UBHNp8JpCDxPRDIXJvBQXK1LHpBoD2Bgx2T3KyEP+l7Gxi3X4DH423o3FXSlU5srpG0cRvhhs4lvg/B4ONSAjjIUibsgQAE7iDwcackNym519n/M0kP78lQn3Tk8uaAOhHfA8LMsSkcJEerohMEwhA40THR1Un2k46138qPlnSPMOpWauUBkm5z4nK2pNUrSVHtIOJ7NU7FHoWDFGt6FIfATAK/ckp0kxJ60/3XzWliKwqGTJ6T4PzAkcmzJ3XacD/xvSG4Uk7DQUqxNHpCoD6BSx2TXdNkP+28cyXtWV/NymfYwkXT+m/z3XcqS1H9QOJ7dVZFHomDFGl2lIbATAJ2N22P2Nsktb7O/a6k+8/UsN4Ba0j6qxOPWx3kNe2I7/VsXNzROEhxJkdhCFQisLVTsuuqKLDf6T8ryUbsh9jsJwYv2Y8IIeCYNojvY6Cwa4EADrLAgk8QgMACgcc4JjyvRDqu3b9LemPLZYc3lXStEw+Tb8MF7EE/Ed+D4syvMRwkP5uiEQRCEHiBU8Ibl6S72Gez9j2lIZgvObJ4TUOZqpxGfK9CqeBjcJCCjY/qEJhCwHOmuy4S/qQ+bNlhW+Og6mZzDXiNhfidpFWqCtLgOOJ7A2glnYKDlGRtdIVAdQI27e6kJJr6flt22PSz1Q6nbStK+qkjhydN6zzAd8T3ABBzbgIHydm66AaB5gSOcUx8sRQQl81YdngfRwa2wJH3Rnz3Jpx4+zhI4gZEfAg4ETgtcPI7P3B7IYuIX0p61AjHdST9zUlmW9ho25H+PP4kvntQzahNHCQjY6IKBAISCJ2wHybpaZL+4pRUQxQEdle+5TzD9zrK+b6AdprWFPF9Gh2+Y6IIfAACEFhCYCVJtwROgIP5+teca/etkmz63hBJO3Qb10t6vyS7Sw/dtrV3cYWxB0sM0nAHBUBDcKWchoOUYmn0hEB1Avbee8jkZ5PyrDzS/SbzE/V4jbAPKX/ItvYd4eD5J/Hdk24GbeMgGRgRFSAQmMBDAxcAF0yR7yGSfhy4v5AJO2RbFm/t6UpXG/G9K9KJ9oODJGo4xIaAIwFblS5k4rNX6aZtK8wv4nNR4H5D6hCiLZtdscuN+N4l7QT7wkESNBoiQ8CZwKsDJ+KvVpR3rbnjbM79GwL3HyJ5t23jqIoMQh5GfA9JM8O2cJAMjYpKEGhJ4N2BE/CHaspzT0lHB5ahbQJvc74NLNyiJoMQhxPfQ1DMuA0cJGPjohoEGhL4fODka4vxNNl2kfQ/gWVpk8ibnvu2JsoHOIf4HgBizk3gIDlbF90g0IzA9wMn3Rc1E2PZWfb2wH6SLgksU9NkXvc8m0/BftroYyO+90E9oT5xkISMhagQ6IjAWYGT7WMDyL2+pMMc38+vm9irHm+rKva1Ed/7Ip9IvzhIIoZCTAh0RMBG5IcehHevgLLbFLpfD1ygVE3mdY+z1xuNZ18b8b0v8on0i4MkYijEhEBHBDZ0SK42+1/obVdJv3WQtW6Sn3S8TX60U2ila7ZHfK8JrLTDcZDSLI6+EJhOYMfASfXy6d21+naV+dX8rgws86SkXmf/p1ppFuZk4nsYjtm2goNka1oUg0AjAk8JnExtFL/3toGkwyXdGlj2Ogl/+NirJd3dW+kK7RPfK0Aq+RAcpGTrozsElhJ4aeAketLSLtz2PFDSDwLLP5zYq35u+tpjaDDE99BEM2sPB8nMoKgDgZYE3h44gX6ipTxNTu9z2eE/S1qtidAO5xDfHaDm1CQOkpM10QUC7Ql8MnABYFP79rE9wWFJ4ypPAJ7Zh7IT+iS+TwDD7jsI4CB4AgQgMEzglMAFwD7DjXfwecX5gYE3B9ajSvL/dgf61emC+F6HVoHH4iAFGh2VITCFwG8CJ84nTukr9FebSgo9i2GVxG/H2ADE+4ZWqGV7xPeWAHM/HQfJ3cLoB4F6BEK/UrdDve4bH/10SZcFLl6qJn877sONJfc7kfjuxzaLlnGQLMyIEhAIQmBthwR65yCSTW5kdUm22uDtDrJXLQAumCsA7FXE2Dbie2wWiUweHCQygyAOBHokcO/ASfQ6Z11sWuDQMaxq0h8cZzP+Pd5Zz6bNh2Zjk0SxZUQAB8nImKgCgZYEbHrdQWIL8e8fWsoz7fQ9JV0TWN66Ot8k6fnThOz5O+J7zwaIvXscJHYLIR8EuiNgSbVuEpx2/HccRF9H0hcCyzlNh0nfXRzxnf8AO/F9QIJ/xxLAQcZiYScEiiTwr4ET62cDU3ywpD8FlnFSgp+231732ziwbh7NEd89qGbUJg6SkTFRBQItCRwROLn+W0t5BqfbkroHSLJH7tMSs/d3t8wJZBMb2VwDKWzE9xSs1KOMOEiP8OkaApEROC5wgn1lAP3uMresrq0n4J3cZ7V/jqRHBNCnyyaI713STrAvHCRBoyEyBJwI/CJwom07La6Nrr8wsEyzEv2474+ZW21wfSfmns0S3z3pZtA2DpKBEVEBAoEI2MC2cQmw6T77zb7JtvLcSfao3V6xa9p3iPOun//poYkOMZxDfI/BChHLgINEbBxEg0CHBFZ1SLgbNZB/c0k/6jnxW/FgUyLHNrVvXZzE97rECjseBynM4KgLgQkEtgicdG0xnpUm9DVp93Pm7rj/HliOJk8C7O2FNScJmdB+4ntCxupDVBykD+r0CYH4CDwycOK1QXNVtzXmfmM/PHD/TRK/rYPwT1WFTuA44nsCRupTRBykT/r0DYF4CDwvcAK2x/hVtu0l/Tpw302S/08kbVlF4ISOIb4nZKw+RMVB+qBOnxCIj8DrAyfhoyuoaDMP2kC7Jgk71Dk20NCePqxSQd7UDiG+p2axjuXFQToGTncQiJTA+wMnYmtv0rahpOMD99ekIPibpN0mCZnBfuJ7Bkb0VAEH8aRL2xBIh4DdsTdJopPOsScK47bHSDo/cF+TZJi23yY9inEJ33HMmu4jvjclV8h5OEghhkZNCMwgEPrVu9HBdPZGgL3bf2vPyf/G+Xf7bXrh3Dfie+4WbqkfDtISIKdDIBMCNmp/2h1z3e/srYLBtpmkHwRuv648dvzvJT1gIFQB/xLfCzByGxVxkDb0OBcCeRCwxW3svf0mSXXSOTavgG02HfDlgdue1Oe0/fZu/9rzMpXyD/G9FEs31BMHaQiO0yCQEYG7B07Qt0tad350vX2elpi9v7t6bgnhF2ZkqzqqEN/r0CrwWBykQKOjMgRGCDwocJK+QdIZgdtsUij8VNLWI7qW9CfxvSRrN9AVB2kAjVMgkBkBe0zfJMHGeo49dbB3+219g5I34nvJ1q+gOw5SARKHQCBzAvtnVABcIunJmdurqnrE96qkCj0OBynU8KgNgSEC78qkAPi2pI2H9Cr9I/G9dA+YoT8OMgMQX0OgAAI2Qj7Wx/lV5LplzkY2x4C9zcC2QID4vsCCT2MI4CBjoLALAoUR+E7CBcBfJT2iMHtVVZf4XpVUocfhIIUaHrUhMETgD4kWAF+ZG+y3/pAefFxMgPi+mAd/jRDAQUaA8CcECiRwbWIFgK0geECBdqqrMvG9LrHCjsdBCjM46kJghIDdQVf5nT2WY34j6b4jOvDneALE9/Fc2DtPAAfBFSBQNgFLprEk91ly2GDFNcs2Vy3tie+1cJV3MA5Sns3RGALDBJ6YQAFwpaTnDgvN50oEiO+VMJV7EA5Sru3RHAJGYJ/IC4DTJG2JqRoRIL43wlbOSaEdZNYjPL5P53ErtsJW+AA+MOwDO5aTGsvQlAKAC3z4Aucz/oAP4AOTfIACILO6gAKAi33Sxc5+fAMfwAeGfYACgAIgmRHDw47LZwIZPoAP4APtfIACgAKAAiDyQVMEuXZBDn7wwwfG+wAFAAUABQAFAD6AD+ADBfoABQAFABd+gRc+d0Tj74jgApeSfIACgAKAAoACAB/AB/CBAn2AAoACgAu/wAu/pLscdOWuHh8Y7wMUABQAFAAUAPgAPoAPFOgDFACZFQCnFujEVPfjq3u4wAUfwAem+cBWmeW/4tU5igKAOxl8AB/AB/CBGT5wu6TVi8+YmQE4cIbRp1WDfMfdAj6AD+ADZfjAGZnlPtSRtA0FAJU/PoAP4AP4wAwfOJSMmSeB42cYngq/jAofO2NnfAAfGOcD10vaNM/0h1bbSbqBIoA7AHwAH8AH8IExPnAwaTJvArtLskEe46o/9sEFH8AH8IEyfeBkSSvlnf7QzgjsJekmigCKIHwAH8AH8AFJx0ham/RYDoGdJJ3Gxc/Fjw/gA/hAsT5wqaT9Ja1QTupD0wEBM/quko6QZK9+XE4gKDYQ8Ni3zMe+2L0su9sYsLMkHSdpb0nrDJIB/+ZL4P8DLRULN0Vf9bgAAAAASUVORK5CYII=;" parent="1" vertex="1">
          <mxGeometry x="-285" y="617.5" width="55.26" height="55" as="geometry" />
        </mxCell>
      </root>
    </mxGraphModel>
  </diagram>
</mxfile>
